<svg xmlns="http://www.w3.org/2000/svg" viewBox="3.49 6.43 25.39 20.73" width="25.39" height="20.73" fill="currentColor">
  <path d="M10.38 18.01L27.67 18.01C28.38 18.01 28.88 17.50 28.88 16.79C28.88 16.08 28.38 15.57 27.67 15.57L10.38 15.57L7.08 15.78L11.68 11.58L14.74 8.46C14.96 8.24 15.08 7.93 15.08 7.60C15.08 6.92 14.55 6.43 13.88 6.43C13.55 6.43 13.26 6.54 12.96 6.84L3.91 15.87C3.64 16.13 3.49 16.45 3.49 16.79C3.49 17.13 3.64 17.45 3.91 17.71L12.99 26.77C13.26 27.03 13.55 27.15 13.88 27.15C14.55 27.15 15.08 26.66 15.08 25.98C15.08 25.65 14.96 25.32 14.74 25.12L11.68 22.00L7.08 17.80Z" />
</svg>