<svg xmlns="http://www.w3.org/2000/svg" viewBox="3.49 2.06 25.09 29.48" width="25.09" height="29.48" fill="currentColor">
  <path d="M16.02 31.54C16.49 31.54 17.01 31.36 17.50 30.84L27.59 20.06C28.27 19.33 28.57 18.88 28.57 18.21C28.57 17.25 27.81 16.57 26.89 16.57L21.72 16.57L21.72 5.48C21.72 3.31 20.49 2.06 18.38 2.06L13.66 2.06C11.54 2.06 10.31 3.31 10.31 5.48L10.31 16.57L5.09 16.57C4.17 16.57 3.49 17.25 3.49 18.18C3.49 18.85 3.76 19.40 4.38 20.06L14.56 30.84C15.05 31.36 15.57 31.54 16.02 31.54ZM16.02 29.08C15.94 29.08 15.87 29.05 15.76 28.94L6.55 19.20C6.47 19.11 6.43 19.04 6.43 18.96C6.43 18.85 6.51 18.77 6.63 18.77L11.92 18.77C12.24 18.77 12.37 18.63 12.37 18.32L12.37 5.51C12.37 4.63 12.88 4.13 13.77 4.13L18.28 4.13C19.17 4.13 19.66 4.63 19.66 5.51L19.66 18.32C19.66 18.63 19.80 18.77 20.11 18.77L25.54 18.77C25.66 18.77 25.73 18.85 25.73 18.96C25.73 19.06 25.69 19.14 25.62 19.21L16.28 28.94C16.19 29.04 16.11 29.08 16.02 29.08Z" />
</svg>