<svg xmlns="http://www.w3.org/2000/svg" viewBox="2.45 0.19 27.89 30.54" width="27.89" height="30.54" fill="currentColor">
  <path d="M16.39 30.73C24.09 30.73 30.34 24.49 30.34 16.79C30.34 12.10 28.05 8.04 24.53 5.50C23.93 5.03 23.15 5.20 22.80 5.74C22.46 6.32 22.64 6.96 23.20 7.38C26.10 9.46 28.01 12.89 28.01 16.79C28.01 23.21 22.82 28.41 16.39 28.41C9.97 28.41 4.77 23.21 4.77 16.79C4.77 11.27 8.60 6.66 13.75 5.47L13.75 7.44C13.75 8.41 14.42 8.65 15.18 8.13L19.54 5.07C20.15 4.63 20.17 3.98 19.54 3.53L15.19 0.46C14.42-0.07 13.75 0.18 13.75 1.16L13.75 3.09C7.30 4.33 2.45 9.99 2.45 16.79C2.45 24.49 8.70 30.73 16.39 30.73Z" />
</svg>