<svg xmlns="http://www.w3.org/2000/svg" viewBox="3.49 2.06 25.09 29.48" width="25.09" height="29.48" fill="currentColor">
  <path d="M16.02 2.06C15.57 2.06 15.05 2.24 14.56 2.76L4.38 13.55C3.76 14.21 3.49 14.75 3.49 15.42C3.49 16.35 4.17 17.02 5.09 17.02L10.31 17.02L10.31 28.12C10.31 30.28 11.54 31.54 13.66 31.54L18.38 31.54C20.49 31.54 21.72 30.28 21.72 28.12L21.72 17.02L26.89 17.02C27.81 17.02 28.57 16.35 28.57 15.39C28.57 14.72 28.27 14.27 27.59 13.55L17.50 2.76C17.01 2.23 16.49 2.06 16.02 2.06ZM16.02 4.51C16.11 4.51 16.19 4.55 16.28 4.66L25.62 14.40C25.69 14.46 25.73 14.55 25.73 14.63C25.73 14.75 25.66 14.82 25.54 14.82L20.11 14.82C19.80 14.82 19.66 14.97 19.66 15.29L19.66 28.10C19.66 28.97 19.17 29.48 18.28 29.48L13.77 29.48C12.88 29.48 12.37 28.97 12.37 28.10L12.37 15.29C12.37 14.97 12.24 14.82 11.92 14.82L6.63 14.82C6.51 14.82 6.43 14.75 6.43 14.64C6.43 14.56 6.47 14.48 6.55 14.40L15.76 4.66C15.87 4.55 15.94 4.51 16.02 4.51Z" />
</svg>