<svg xmlns="http://www.w3.org/2000/svg" viewBox="3.49 3.88 20.73 25.83" width="20.73" height="25.83" fill="currentColor">
  <path d="M13.85 29.71C14.19 29.71 14.51 29.57 14.77 29.30L23.84 20.21C24.10 19.93 24.21 19.65 24.21 19.32C24.21 18.65 23.72 18.13 23.04 18.13C22.71 18.13 22.39 18.24 22.18 18.46L19.06 21.52L14.97 25.99L15.07 23.09L15.07 5.09C15.07 4.38 14.56 3.88 13.85 3.88C13.14 3.88 12.63 4.38 12.63 5.09L12.63 23.09L12.74 26.02L8.64 21.52L5.52 18.46C5.32 18.24 4.99 18.13 4.66 18.13C3.98 18.13 3.49 18.65 3.49 19.32C3.49 19.65 3.61 19.93 3.87 20.21L12.93 29.30C13.19 29.57 13.51 29.71 13.85 29.71Z" />
</svg>