<svg xmlns="http://www.w3.org/2000/svg" viewBox="2 4.25 29.48 25.07" width="29.48" height="25.07" fill="currentColor">
  <path d="M2.00 16.79C2.00 17.24 2.17 17.76 2.69 18.25L13.48 28.44C14.14 29.05 14.68 29.33 15.35 29.33C16.28 29.33 16.95 28.64 16.95 27.73L16.95 22.50L28.05 22.50C30.21 22.50 31.47 21.27 31.47 19.15L31.47 14.44C31.47 12.32 30.21 11.09 28.05 11.09L16.95 11.09L16.95 5.92C16.95 5.00 16.28 4.25 15.33 4.25C14.66 4.25 14.21 4.54 13.48 5.22L2.69 15.31C2.16 15.82 2.00 16.32 2.00 16.79ZM4.44 16.79C4.44 16.71 4.48 16.63 4.59 16.53L14.33 7.19C14.40 7.14 14.48 7.08 14.56 7.08C14.68 7.08 14.75 7.16 14.75 7.27L14.75 12.70C14.75 13.02 14.90 13.15 15.22 13.15L28.03 13.15C28.90 13.15 29.41 13.66 29.41 14.55L29.41 19.04C29.41 19.93 28.90 20.44 28.03 20.44L15.22 20.44C14.90 20.44 14.75 20.58 14.75 20.89L14.75 26.18C14.75 26.30 14.68 26.39 14.57 26.39C14.49 26.39 14.41 26.35 14.34 26.26L4.59 17.05C4.48 16.94 4.44 16.87 4.44 16.79Z" />
</svg>