<svg xmlns="http://www.w3.org/2000/svg" viewBox="3.49 3.88 20.73 25.83" width="20.73" height="25.83" fill="currentColor">
  <path d="M4.66 15.46C4.99 15.46 5.32 15.35 5.52 15.13L8.64 12.07L12.74 7.57L12.63 10.50L12.63 28.51C12.63 29.22 13.14 29.71 13.85 29.71C14.56 29.71 15.07 29.22 15.07 28.51L15.07 10.50L14.97 7.60L19.06 12.07L22.18 15.13C22.39 15.35 22.71 15.46 23.04 15.46C23.72 15.46 24.21 14.94 24.21 14.27C24.21 13.95 24.10 13.66 23.84 13.38L14.77 4.29C14.51 4.02 14.19 3.88 13.85 3.88C13.51 3.88 13.19 4.02 12.93 4.29L3.87 13.38C3.61 13.66 3.49 13.95 3.49 14.27C3.49 14.94 3.98 15.46 4.66 15.46Z" />
</svg>