<svg xmlns="http://www.w3.org/2000/svg" viewBox="2 4.25 29.48 25.07" width="29.48" height="25.07" fill="currentColor">
  <path d="M15.35 29.33C16.28 29.33 16.95 28.64 16.95 27.73L16.95 22.50L17.35 22.50C22.65 22.50 25.99 23.84 28.38 28.31C28.86 29.19 29.49 29.33 30.06 29.33C30.79 29.33 31.47 28.67 31.47 27.49C31.47 17.39 27.19 11.09 17.35 11.09L16.95 11.09L16.95 5.92C16.95 5.00 16.28 4.25 15.33 4.25C14.66 4.25 14.21 4.54 13.48 5.22L2.69 15.31C2.16 15.82 2.00 16.32 2.00 16.79C2.00 17.24 2.17 17.76 2.69 18.25L13.48 28.44C14.14 29.05 14.68 29.33 15.35 29.33ZM14.57 26.39C14.49 26.39 14.41 26.35 14.34 26.26L4.59 17.05C4.48 16.94 4.44 16.87 4.44 16.79C4.44 16.71 4.48 16.63 4.59 16.53L14.33 7.19C14.40 7.14 14.48 7.08 14.56 7.08C14.68 7.08 14.75 7.16 14.75 7.27L14.75 12.70C14.75 13.02 14.90 13.15 15.22 13.15L17.05 13.15C26.43 13.15 29.26 19.66 29.53 26.11C29.53 26.22 29.49 26.26 29.42 26.26C29.37 26.26 29.34 26.22 29.30 26.13C27.69 22.70 23.54 20.44 17.05 20.44L15.22 20.44C14.90 20.44 14.75 20.58 14.75 20.89L14.75 26.18C14.75 26.30 14.68 26.39 14.57 26.39Z" />
</svg>