<svg xmlns="http://www.w3.org/2000/svg" viewBox="3.83 1.41 19.26 30.55" width="19.26" height="30.55" fill="currentColor">
  <path d="M10.31 31.39L22.74 15.41C22.97 15.12 23.09 14.85 23.09 14.53C23.09 14.01 22.68 13.62 22.11 13.62L14.38 13.62L18.46 2.98C19.00 1.57 17.50 0.81 16.61 1.98L4.18 17.95C3.95 18.25 3.83 18.53 3.83 18.83C3.83 19.36 4.24 19.76 4.81 19.76L12.54 19.76L8.46 30.38C7.92 31.79 9.42 32.55 10.31 31.39ZM15.70 17.72L7.25 17.72L14.96 7.48L11.22 15.65L19.66 15.65L11.95 25.89Z" />
</svg>