<svg xmlns="http://www.w3.org/2000/svg" viewBox="3.49 3.53 30.13 28.29" width="30.13" height="28.29" fill="currentColor">
  <path d="M11.89 31.81C12.56 31.81 13.03 31.46 13.86 30.72L18.58 26.52L27.36 26.52C31.43 26.52 33.62 24.27 33.62 20.26L33.62 9.79C33.62 5.78 31.43 3.53 27.36 3.53L9.75 3.53C5.67 3.53 3.49 5.77 3.49 9.79L3.49 20.26C3.49 24.28 5.67 26.52 9.75 26.52L10.40 26.52L10.40 30.08C10.40 31.13 10.94 31.81 11.89 31.81ZM12.46 29.31L12.46 25.35C12.46 24.61 12.17 24.32 11.43 24.32L9.75 24.32C6.99 24.32 5.69 22.91 5.69 20.25L5.69 9.79C5.69 7.12 6.99 5.73 9.75 5.73L27.36 5.73C30.11 5.73 31.42 7.12 31.42 9.79L31.42 20.25C31.42 22.91 30.11 24.32 27.36 24.32L18.50 24.32C17.73 24.32 17.35 24.43 16.83 24.96Z" />
</svg>