<svg xmlns="http://www.w3.org/2000/svg" viewBox="3.49 4.09 32.35 25.36" width="32.35" height="25.36" fill="currentColor">
  <path d="M3.49 22.60C3.49 23.46 3.72 24.20 4.18 24.75L4.18 27.64C4.18 28.66 4.98 29.45 6.00 29.45L7.60 29.45C8.63 29.45 9.42 28.66 9.42 27.64L9.42 25.66L29.91 25.66L29.91 27.64C29.91 28.66 30.69 29.45 31.72 29.45L33.33 29.45C34.36 29.45 35.14 28.66 35.14 27.64L35.14 24.75C35.60 24.20 35.83 23.46 35.83 22.60L35.83 18.51C35.83 16.21 35.52 14.83 34.11 13.29L32.73 11.80L31.29 7.68C30.52 5.44 29.00 4.50 27.11 4.28C26.20 4.17 23.20 4.09 19.66 4.09C16.13 4.09 13.14 4.17 12.22 4.28C10.32 4.50 8.80 5.44 8.03 7.68L6.59 11.80L5.22 13.29C3.80 14.83 3.49 16.21 3.49 18.51ZM5.28 22.05L5.28 18.51C5.28 16.65 5.50 15.68 6.64 14.38L8.26 12.55L9.64 8.49C10.20 6.84 11.16 6.26 12.43 6.11C13.30 6.00 16.08 5.88 19.66 5.88C23.26 5.88 26.02 6.00 26.89 6.11C28.16 6.26 29.12 6.84 29.68 8.49L31.06 12.55L32.69 14.38C33.82 15.68 34.04 16.65 34.04 18.51L34.04 22.05C34.04 23.13 33.61 23.87 32.43 23.87L6.89 23.87C5.73 23.87 5.28 23.13 5.28 22.05ZM10.88 12.32L28.44 12.32C29.05 12.32 29.27 11.87 29.07 11.29L28.26 8.90C27.96 8.01 27.49 7.71 26.70 7.60C25.81 7.48 23.34 7.38 19.66 7.38C15.98 7.38 13.52 7.48 12.62 7.60C11.84 7.71 11.36 8.01 11.06 8.90L10.25 11.29C10.06 11.87 10.27 12.32 10.88 12.32ZM9.11 20.23C9.88 20.23 10.46 19.66 10.46 18.87L10.46 16.86C10.46 16.06 9.88 15.50 9.11 15.50C8.31 15.50 7.74 16.08 7.74 16.86L7.74 18.87C7.74 19.65 8.31 20.23 9.11 20.23ZM30.35 20.23C31.14 20.23 31.73 19.66 31.73 18.87L31.73 16.86C31.73 16.06 31.14 15.50 30.35 15.50C29.59 15.50 29.00 16.09 29.00 16.86L29.00 18.87C29.00 19.65 29.59 20.23 30.35 20.23ZM16.73 19.62L22.54 19.62C23.19 19.62 23.61 19.20 23.61 18.53L23.61 17.20C23.61 16.53 23.19 16.13 22.54 16.13L16.73 16.13C16.12 16.13 15.70 16.53 15.70 17.20L15.70 18.53C15.70 19.20 16.12 19.62 16.73 19.62Z" />
</svg>