<svg xmlns="http://www.w3.org/2000/svg" viewBox="2.45 2.84 27.89 27.89" width="27.89" height="27.89" fill="currentColor">
  <path d="M16.39 30.73C24.09 30.73 30.34 24.49 30.34 16.79C30.34 9.09 24.09 2.84 16.39 2.84C8.70 2.84 2.45 9.09 2.45 16.79C2.45 24.49 8.70 30.73 16.39 30.73ZM16.39 28.41C9.97 28.41 4.77 23.21 4.77 16.79C4.77 10.62 9.56 5.59 15.63 5.20L15.63 16.98C15.63 17.28 15.70 17.53 15.96 17.77L23.97 25.61C21.93 27.36 19.29 28.41 16.39 28.41ZM17.46 15.60L17.46 5.21C21.15 5.55 24.34 7.60 26.22 10.57ZM18.22 17.28L27.07 12.20C27.69 13.60 28.01 15.15 28.01 16.79C28.01 19.63 26.99 22.24 25.29 24.27Z" />
</svg>