<svg xmlns="http://www.w3.org/2000/svg" viewBox="2.45 2.47 31.8 26.62" width="31.8" height="26.62" fill="currentColor">
  <path d="M18.35 29.09C27.54 29.09 34.25 23.49 34.25 15.78C34.25 8.04 27.52 2.47 18.35 2.47C9.16 2.47 2.45 8.04 2.45 15.78C2.45 18.33 3.20 20.71 4.51 22.64C5.15 23.60 5.39 24.27 5.39 24.83C5.39 25.55 5.17 26.14 4.54 26.69C3.46 27.60 4.02 29.09 5.44 29.09C7.15 29.09 9.05 28.51 10.46 27.54C12.77 28.55 15.46 29.09 18.35 29.09ZM18.35 26.89C15.74 26.89 13.40 26.40 11.42 25.51C10.54 25.13 9.91 25.24 9.08 25.73C8.49 26.10 7.81 26.41 7.11 26.56C7.40 26.09 7.59 25.54 7.59 24.83C7.59 23.82 7.22 22.71 6.34 21.40C5.25 19.81 4.65 17.88 4.65 15.78C4.65 9.37 10.31 4.68 18.35 4.68C26.39 4.68 32.05 9.37 32.05 15.78C32.05 22.19 26.39 26.89 18.35 26.89ZM16.86 22.27C17.31 22.27 17.69 22.04 17.95 21.63L24.20 11.79C24.36 11.53 24.54 11.22 24.54 10.92C24.54 10.31 23.99 9.91 23.42 9.91C23.06 9.91 22.72 10.12 22.48 10.53L16.79 19.63L14.10 16.15C13.78 15.71 13.47 15.59 13.10 15.59C12.50 15.59 12.03 16.08 12.03 16.68C12.03 16.98 12.15 17.27 12.35 17.53L15.68 21.63C16.04 22.08 16.39 22.27 16.86 22.27Z" />
</svg>