<svg xmlns="http://www.w3.org/2000/svg" viewBox="3.49 3.58 26.32 26.4" width="26.32" height="26.4" fill="currentColor">
  <path d="M13.37 6.11L27.29 6.11L27.29 20.06C27.29 20.79 27.81 21.31 28.56 21.31C29.24 21.31 29.80 20.79 29.80 20.06L29.80 4.91C29.80 4.16 29.23 3.58 28.48 3.58L13.37 3.58C12.63 3.58 12.11 4.12 12.11 4.85C12.11 5.54 12.63 6.11 13.37 6.11ZM4.74 14.78L18.66 14.78L18.66 28.72C18.66 29.46 19.20 29.98 19.93 29.98C20.62 29.98 21.18 29.46 21.18 28.72L21.18 13.58C21.18 12.82 20.62 12.26 19.87 12.26L4.74 12.26C4.01 12.26 3.49 12.78 3.49 13.52C3.49 14.21 4.01 14.78 4.74 14.78Z" />
</svg>