<svg xmlns="http://www.w3.org/2000/svg" viewBox="3.49 1.4 27.44 30.77" width="27.44" height="30.77" fill="currentColor">
  <path d="M5.04 25.61L15.65 31.75C16.64 32.32 17.77 32.32 18.77 31.75L29.37 25.61C30.35 25.05 30.93 24.05 30.93 22.91L30.93 10.66C30.93 9.53 30.35 8.53 29.37 7.96L18.77 1.85C17.77 1.26 16.64 1.26 15.65 1.85L5.04 7.96C4.06 8.53 3.49 9.53 3.49 10.66L3.49 22.91C3.49 24.05 4.06 25.05 5.04 25.61ZM17.21 15.97L6.37 9.80C6.44 9.73 6.47 9.69 6.59 9.63L16.41 3.95C16.91 3.65 17.50 3.65 18.01 3.95L27.84 9.63C27.95 9.69 27.97 9.73 28.04 9.80ZM16.11 29.45C16.01 29.41 16.00 29.39 15.89 29.33L6.49 23.90C5.99 23.60 5.69 23.09 5.69 22.52L5.69 12.00L16.11 17.92ZM18.31 29.45L18.31 17.92L28.72 12.00L28.72 22.52C28.72 23.09 28.44 23.60 27.93 23.90L18.61 29.29C18.46 29.37 18.44 29.38 18.31 29.45Z" />
</svg>