<svg xmlns="http://www.w3.org/2000/svg" viewBox="3.49 2.13 23 29.31" width="23" height="29.31" fill="currentColor">
  <path d="M7.72 31.45L22.24 31.45C25.07 31.45 26.48 30.01 26.48 27.17L26.48 14.75C26.48 12.99 26.28 12.22 25.18 11.10L17.65 3.43C16.61 2.37 15.75 2.13 14.22 2.13L7.72 2.13C4.91 2.13 3.49 3.58 3.49 6.43L3.49 27.17C3.49 30.02 4.89 31.45 7.72 31.45ZM7.82 29.24C6.41 29.24 5.69 28.49 5.69 27.13L5.69 6.47C5.69 5.11 6.41 4.33 7.83 4.33L13.92 4.33L13.92 12.28C13.92 14 14.78 14.85 16.49 14.85L24.28 14.85L24.28 27.13C24.28 28.49 23.56 29.24 22.13 29.24ZM16.73 12.78C16.19 12.78 15.98 12.56 15.98 12.02L15.98 4.76L23.86 12.78Z" />
</svg>