<svg xmlns="http://www.w3.org/2000/svg" viewBox="2.45 14.19 25.51 5.18" width="25.51" height="5.18" fill="currentColor">
  <path d="M5.04 19.37C6.48 19.37 7.63 18.22 7.63 16.79C7.63 15.35 6.48 14.19 5.04 14.19C3.61 14.19 2.45 15.35 2.45 16.79C2.45 18.22 3.61 19.37 5.04 19.37ZM15.20 19.37C16.64 19.37 17.79 18.22 17.79 16.79C17.79 15.35 16.64 14.19 15.20 14.19C13.77 14.19 12.61 15.35 12.61 16.79C12.61 18.22 13.77 19.37 15.20 19.37ZM25.36 19.37C26.80 19.37 27.96 18.22 27.96 16.79C27.96 15.35 26.80 14.19 25.36 14.19C23.93 14.19 22.76 15.35 22.76 16.79C22.76 18.22 23.93 19.37 25.36 19.37Z" />
</svg>