<svg xmlns="http://www.w3.org/2000/svg" viewBox="2.45 2.84 27.89 27.89" width="27.89" height="27.89" fill="currentColor">
  <path d="M16.39 30.73C24.09 30.73 30.34 24.49 30.34 16.79C30.34 9.09 24.09 2.84 16.39 2.84C8.70 2.84 2.45 9.09 2.45 16.79C2.45 24.49 8.70 30.73 16.39 30.73ZM16.39 28.41C9.97 28.41 4.77 23.21 4.77 16.79C4.77 10.36 9.97 5.17 16.39 5.17C22.82 5.17 28.01 10.36 28.01 16.79C28.01 23.21 22.82 28.41 16.39 28.41ZM10.01 18.76C11.09 18.76 11.98 17.87 11.98 16.78C11.98 15.68 11.07 14.79 10.01 14.79C8.91 14.79 8.03 15.68 8.03 16.78C8.03 17.87 8.91 18.76 10.01 18.76ZM16.38 18.76C17.47 18.76 18.36 17.87 18.36 16.78C18.36 15.68 17.47 14.79 16.38 14.79C15.29 14.79 14.40 15.68 14.40 16.78C14.40 17.87 15.29 18.76 16.38 18.76ZM22.76 18.76C23.84 18.76 24.75 17.87 24.75 16.78C24.75 15.68 23.84 14.79 22.76 14.79C21.67 14.79 20.78 15.68 20.78 16.78C20.78 17.87 21.67 18.76 22.76 18.76Z" />
</svg>