<svg xmlns="http://www.w3.org/2000/svg" viewBox="4.28 3.39 24.28 26.82" width="24.28" height="26.82" fill="currentColor">
  <path d="M5.32 30.21C5.89 30.21 6.36 29.76 6.36 29.19L6.36 21.59C6.70 21.44 7.98 20.95 9.99 20.95C15.05 20.95 18.22 23.42 23.04 23.42C25.17 23.42 25.96 23.19 27.00 22.72C27.95 22.30 28.56 21.59 28.56 20.33L28.56 6.45C28.56 5.71 27.93 5.29 27.14 5.29C26.47 5.29 25.21 5.87 22.86 5.87C18.05 5.87 14.89 3.39 9.82 3.39C7.68 3.39 6.88 3.62 5.84 4.09C4.89 4.51 4.28 5.22 4.28 6.47L4.28 29.19C4.28 29.75 4.76 30.21 5.32 30.21ZM23.04 21.36C18.48 21.36 15.26 18.88 9.99 18.88C8.49 18.88 7.12 19.06 6.36 19.37L6.36 6.54C6.55 6.08 7.68 5.46 9.82 5.46C14.63 5.46 17.84 7.93 22.86 7.93C24.35 7.93 25.58 7.75 26.50 7.49L26.50 20.28C26.30 20.73 25.17 21.36 23.04 21.36Z" />
</svg>