<svg xmlns="http://www.w3.org/2000/svg" viewBox="2.45 1.89 30.23 29.81" width="30.23" height="29.81" fill="currentColor">
  <path d="M17.55 29.86C17.90 29.86 18.22 29.85 18.55 29.82L19.30 31.23C19.48 31.58 19.80 31.72 20.18 31.68C20.58 31.61 20.81 31.35 20.85 30.97L21.08 29.38C21.74 29.20 22.35 28.97 22.96 28.70L24.13 29.76C24.42 30.04 24.77 30.05 25.12 29.87C25.46 29.68 25.59 29.35 25.51 28.97L25.17 27.41C25.72 27.03 26.22 26.59 26.70 26.14L28.16 26.74C28.53 26.88 28.88 26.80 29.13 26.50C29.39 26.20 29.42 25.85 29.20 25.51L28.36 24.17C28.72 23.61 29.05 23.04 29.35 22.45L30.93 22.50C31.32 22.52 31.62 22.33 31.76 21.94C31.90 21.59 31.80 21.25 31.49 21.01L30.21 20.04C30.39 19.40 30.50 18.74 30.57 18.06L32.07 17.58C32.46 17.46 32.68 17.19 32.68 16.79C32.68 16.39 32.46 16.11 32.07 16.00L30.57 15.52C30.50 14.83 30.39 14.18 30.21 13.54L31.47 12.56C31.80 12.33 31.88 11.99 31.76 11.62C31.62 11.24 31.32 11.06 30.93 11.07L29.35 11.12C29.05 10.53 28.72 9.94 28.36 9.39L29.19 8.07C29.41 7.72 29.38 7.37 29.15 7.07C28.88 6.77 28.53 6.70 28.18 6.84L26.70 7.44C26.22 6.96 25.70 6.54 25.17 6.15L25.51 4.61C25.59 4.21 25.46 3.90 25.13 3.71C24.77 3.50 24.42 3.55 24.13 3.81L22.94 4.87C22.35 4.59 21.72 4.38 21.07 4.18L20.85 2.61C20.81 2.23 20.56 1.98 20.19 1.90C19.80 1.83 19.48 2.00 19.30 2.34L18.55 3.75C18.22 3.73 17.90 3.72 17.55 3.72C17.23 3.72 16.90 3.73 16.56 3.75L15.82 2.35C15.63 2.00 15.31 1.85 14.94 1.90C14.55 1.97 14.31 2.23 14.26 2.61L14.03 4.18C13.38 4.38 12.76 4.61 12.15 4.88L10.99 3.81C10.71 3.54 10.35 3.51 9.99 3.71C9.65 3.90 9.53 4.22 9.61 4.61L9.94 6.17C9.39 6.55 8.89 6.97 8.41 7.44L6.95 6.84C6.59 6.69 6.23 6.78 5.97 7.08C5.71 7.37 5.70 7.72 5.92 8.07L6.77 9.41C6.38 9.95 6.06 10.54 5.77 11.13L4.20 11.07C3.79 11.05 3.50 11.25 3.36 11.62C3.21 11.99 3.32 12.33 3.64 12.56L4.89 13.54C4.73 14.18 4.61 14.83 4.55 15.52L3.04 16.00C2.65 16.11 2.45 16.39 2.45 16.79C2.45 17.19 2.65 17.46 3.04 17.58L4.55 18.06C4.61 18.74 4.73 19.40 4.89 20.04L3.64 21.01C3.32 21.25 3.24 21.59 3.35 21.96C3.50 22.34 3.79 22.52 4.18 22.50L5.77 22.45C6.06 23.05 6.38 23.63 6.77 24.19L5.92 25.51C5.70 25.85 5.74 26.21 5.97 26.50C6.25 26.81 6.59 26.88 6.95 26.74L8.41 26.13C8.89 26.61 9.41 27.03 9.94 27.43L9.61 28.97C9.53 29.35 9.67 29.68 9.99 29.87C10.35 30.08 10.71 30.04 10.98 29.76L12.17 28.70C12.77 28.98 13.40 29.20 14.04 29.38L14.26 30.95C14.31 31.35 14.56 31.60 14.93 31.68C15.33 31.75 15.63 31.58 15.82 31.23L16.56 29.82C16.90 29.85 17.23 29.86 17.55 29.86ZM17.57 13.21C17.23 13.21 16.90 13.25 16.60 13.33L12.92 7.03C14.33 6.36 15.90 5.99 17.55 5.99C23.20 5.99 27.84 10.31 28.31 15.83L21.01 15.83C20.60 14.31 19.21 13.21 17.57 13.21ZM6.75 16.79C6.75 13.17 8.53 9.97 11.25 8.01L14.96 14.33C14.36 14.97 13.99 15.83 13.99 16.79C13.99 17.75 14.37 18.63 14.98 19.28L11.17 25.51C8.49 23.54 6.75 20.37 6.75 16.79ZM17.57 18.32C16.72 18.32 16.04 17.64 16.04 16.79C16.04 15.94 16.72 15.26 17.57 15.26C18.42 15.26 19.10 15.94 19.10 16.79C19.10 17.64 18.42 18.32 17.57 18.32ZM17.55 27.59C15.86 27.59 14.26 27.19 12.82 26.50L16.63 20.25C16.93 20.33 17.24 20.37 17.57 20.37C19.22 20.37 20.62 19.25 21.03 17.72L28.33 17.72C27.85 23.26 23.21 27.59 17.55 27.59Z" />
</svg>