<svg xmlns="http://www.w3.org/2000/svg" viewBox="2.43 3.62 23.89 26.53" width="23.89" height="26.53" fill="currentColor">
  <path d="M19.95 29.45C25.38 27.48 27.69 22.50 25.51 16.49L24.49 13.69C23.41 10.72 21.37 9.50 18.99 10.34C18.35 9.50 17.36 9.21 16.28 9.61C15.89 9.75 15.54 9.95 15.22 10.20C14.52 9.28 13.44 8.96 12.32 9.37C12.02 9.47 11.73 9.64 11.46 9.83L9.91 5.56C9.31 3.94 7.85 3.25 6.33 3.80C4.80 4.36 4.12 5.82 4.69 7.45L8.60 18.17C8.61 18.24 8.60 18.29 8.53 18.32C8.48 18.35 8.44 18.32 8.39 18.27L6.79 16.53C6.00 15.68 5.06 15.44 4.14 15.76C2.88 16.21 2.08 17.40 2.58 18.81C2.72 19.21 3.01 19.70 3.31 20.07L7.89 25.61C11.36 29.80 15.41 31.10 19.95 29.45ZM19.37 27.66C15.78 28.97 12.41 28.30 9.26 24.49L4.69 18.98C4.54 18.81 4.44 18.66 4.36 18.44C4.20 17.99 4.39 17.50 4.92 17.31C5.35 17.14 5.70 17.31 6.04 17.68L9.20 20.95C9.73 21.49 10.20 21.55 10.65 21.38C11.20 21.18 11.42 20.63 11.21 20.03L6.36 6.71C6.15 6.18 6.40 5.66 6.93 5.46C7.46 5.28 7.96 5.51 8.15 6.07L11.61 15.57C11.79 16.02 12.29 16.23 12.73 16.05C13.17 15.90 13.41 15.42 13.25 14.97L11.99 11.55C12.18 11.38 12.44 11.20 12.71 11.12C13.34 10.88 13.88 11.16 14.12 11.83L15.22 14.81C15.39 15.29 15.90 15.46 16.32 15.31C16.76 15.15 17.02 14.70 16.84 14.23L15.97 11.79C16.15 11.61 16.42 11.43 16.67 11.33C17.31 11.10 17.86 11.38 18.10 12.06L18.83 14.07C18.99 14.53 19.51 14.71 19.95 14.55C20.36 14.40 20.62 13.93 20.45 13.47L19.92 11.99C21.05 11.58 22.13 12.52 22.89 14.56L23.73 16.90C25.61 22.07 23.91 26.00 19.37 27.66Z" />
</svg>