<svg xmlns="http://www.w3.org/2000/svg" viewBox="2.45 1.53 27.85 29.72" width="27.85" height="29.72" fill="currentColor">
  <path d="M2.45 21.67C2.45 26.09 5.33 29.80 8.82 29.80L13.18 29.80C14.92 30.72 17.02 31.25 19.37 31.25L21.21 31.25C22.85 31.25 24.27 31.16 25.21 30.93C27.04 30.47 28.19 29.20 28.19 27.59C28.19 27.25 28.14 26.95 28.05 26.65C28.96 25.96 29.46 24.96 29.46 23.87C29.46 23.34 29.35 22.80 29.16 22.38C29.78 21.75 30.12 20.84 30.12 19.88C30.12 19.26 29.97 18.61 29.71 18.13C30.08 17.60 30.30 16.84 30.30 16.05C30.30 14.08 28.75 12.52 26.78 12.52L21.79 12.52C21.49 12.52 21.30 12.39 21.30 12.13C21.30 10.71 23.54 7.37 23.54 4.69C23.54 2.84 22.26 1.53 20.49 1.53C19.20 1.53 18.32 2.20 17.46 3.84C15.86 6.92 13.95 9.68 10.83 13.48L8.33 13.48C5.07 13.48 2.45 17.16 2.45 21.67ZM10.14 21.60C10.14 18.74 10.79 16.93 12.56 14.53C14.55 11.88 17.29 8.71 19.28 4.77C19.77 3.77 20.10 3.55 20.58 3.55C21.14 3.55 21.52 3.95 21.52 4.69C21.52 6.82 19.28 10.05 19.28 12.13C19.28 13.63 20.51 14.55 22.08 14.55L26.78 14.55C27.63 14.55 28.27 15.19 28.27 16.05C28.27 16.68 28.07 17.08 27.56 17.60C27.32 17.81 27.29 18.09 27.49 18.35C27.92 18.98 28.10 19.36 28.10 19.88C28.10 20.49 27.81 21.03 27.21 21.48C26.88 21.74 26.74 22.08 26.93 22.49C27.28 23.11 27.44 23.39 27.44 23.87C27.44 24.57 26.99 25.10 26.03 25.59C25.73 25.77 25.66 26.02 25.79 26.30C26.11 27.13 26.15 27.25 26.15 27.59C26.15 28.22 25.69 28.72 24.73 28.97C23.95 29.16 22.71 29.24 21.22 29.24L19.52 29.24C13.89 29.24 10.14 26.04 10.14 21.60ZM4.47 21.67C4.47 18.27 6.30 15.50 8.33 15.50L9.52 15.50C8.54 17.34 8.12 19.25 8.12 21.56C8.12 24.01 9.00 26.14 10.57 27.77L8.82 27.77C6.51 27.77 4.47 24.98 4.47 21.67Z" />
</svg>