<svg xmlns="http://www.w3.org/2000/svg" viewBox="3.49 4.66 27.15 25.1" width="27.15" height="25.1" fill="currentColor">
  <path d="M3.49 12.92C3.49 18.74 8.37 24.47 16.08 29.39C16.37 29.57 16.78 29.76 17.06 29.76C17.35 29.76 17.76 29.57 18.06 29.39C25.76 24.47 30.64 18.74 30.64 12.92C30.64 8.08 27.32 4.66 22.89 4.66C20.36 4.66 18.31 5.87 17.06 7.71C15.85 5.88 13.77 4.66 11.24 4.66C6.81 4.66 3.49 8.08 3.49 12.92ZM5.69 12.92C5.69 9.28 8.04 6.86 11.21 6.86C13.78 6.86 15.26 8.46 16.13 9.83C16.50 10.38 16.73 10.53 17.06 10.53C17.39 10.53 17.60 10.36 17.99 9.83C18.94 8.49 20.36 6.86 22.91 6.86C26.09 6.86 28.44 9.28 28.44 12.92C28.44 18.01 23.06 23.49 17.35 27.29C17.21 27.38 17.12 27.45 17.06 27.45C17.01 27.45 16.91 27.38 16.79 27.29C11.06 23.49 5.69 18.01 5.69 12.92Z" />
</svg>