<svg xmlns="http://www.w3.org/2000/svg" viewBox="2.79 3.73 28.66 25.98" width="28.66" height="25.98" fill="currentColor">
  <path d="M6.52 29.71L27.71 29.71C30.04 29.71 31.45 28.10 31.45 26.00C31.45 25.36 31.25 24.69 30.91 24.09L20.30 5.61C19.59 4.36 18.38 3.73 17.12 3.73C15.86 3.73 14.63 4.36 13.93 5.61L3.32 24.09C2.95 24.71 2.79 25.36 2.79 26.00C2.79 28.10 4.20 29.71 6.52 29.71ZM6.54 27.56C5.58 27.56 5.00 26.82 5.00 25.99C5.00 25.73 5.06 25.40 5.21 25.12L15.80 6.64C16.09 6.14 16.61 5.92 17.12 5.92C17.62 5.92 18.13 6.14 18.42 6.64L29.01 25.13C29.16 25.42 29.23 25.73 29.23 25.99C29.23 26.82 28.63 27.56 27.69 27.56ZM17.02 13.77C17.92 13.77 18.62 13.06 18.62 12.17C18.62 11.27 17.92 10.55 17.02 10.55C16.13 10.55 15.42 11.27 15.42 12.17C15.42 13.06 16.13 13.77 17.02 13.77ZM14.98 24.92L19.99 24.92C20.49 24.92 20.89 24.55 20.89 24.05C20.89 23.57 20.49 23.19 19.99 23.19L18.46 23.19L18.46 16.93C18.46 16.26 18.13 15.82 17.50 15.82L15.19 15.82C14.68 15.82 14.29 16.20 14.29 16.68C14.29 17.19 14.68 17.54 15.19 17.54L16.50 17.54L16.50 23.19L14.98 23.19C14.48 23.19 14.08 23.57 14.08 24.05C14.08 24.55 14.48 24.92 14.98 24.92Z" />
</svg>