<svg xmlns="http://www.w3.org/2000/svg" viewBox="5.24 2.31 17.57 28.94" width="17.57" height="28.94" fill="currentColor">
  <path d="M8.96 31.25L19.09 31.25C21.31 31.25 22.80 29.83 22.80 27.70L22.80 5.87C22.80 3.73 21.31 2.31 19.09 2.31L8.96 2.31C6.73 2.31 5.24 3.73 5.24 5.87L5.24 27.70C5.24 29.83 6.73 31.25 8.96 31.25ZM9.24 29.05C8.08 29.05 7.44 28.44 7.44 27.34L7.44 6.22C7.44 5.13 8.08 4.51 9.24 4.51L18.81 4.51C19.96 4.51 20.60 5.13 20.60 6.22L20.60 27.34C20.60 28.44 19.96 29.05 18.81 29.05ZM12.37 7.41L15.68 7.41C16.21 7.41 16.64 6.99 16.64 6.44C16.64 5.91 16.21 5.48 15.68 5.48L12.37 5.48C11.83 5.48 11.40 5.91 11.40 6.44C11.40 6.99 11.83 7.41 12.37 7.41ZM11.13 28.05L16.94 28.05C17.31 28.05 17.57 27.79 17.57 27.41C17.57 27.03 17.31 26.78 16.94 26.78L11.13 26.78C10.76 26.78 10.49 27.03 10.49 27.41C10.49 27.79 10.76 28.05 11.13 28.05Z" />
</svg>