<svg xmlns="http://www.w3.org/2000/svg" viewBox="2.31 3.9 25.95 25.83" width="25.95" height="25.83" fill="currentColor">
  <path d="M3.47 14.33C1.59 15.20 2.11 17.73 4.18 17.75L14.15 17.79C14.31 17.79 14.36 17.83 14.36 17.99L14.38 27.88C14.40 30.04 16.97 30.42 17.88 28.44L27.99 6.71C28.92 4.69 27.33 3.25 25.32 4.20ZM5.85 15.61C5.80 15.61 5.78 15.56 5.85 15.53L25.50 6.54C25.59 6.49 25.63 6.52 25.59 6.63L16.54 26.26C16.53 26.32 16.47 26.30 16.47 26.25L16.54 16.58C16.54 15.98 16.12 15.56 15.50 15.56Z" />
</svg>