<svg xmlns="http://www.w3.org/2000/svg" viewBox="3.49 3.35 22.72 27.62" width="22.72" height="27.62" fill="currentColor">
  <path d="M14.85 30.97C15.07 30.97 15.42 30.88 15.76 30.69C23.54 26.33 26.21 24.49 26.21 19.50L26.21 9.04C26.21 7.60 25.59 7.15 24.43 6.66C22.82 5.99 17.61 4.12 16.00 3.55C15.63 3.43 15.23 3.35 14.85 3.35C14.46 3.35 14.07 3.46 13.71 3.55C12.10 4.02 6.88 6.00 5.26 6.66C4.12 7.14 3.49 7.60 3.49 9.04L3.49 19.50C3.49 24.49 6.17 26.32 13.93 30.69C14.29 30.88 14.63 30.97 14.85 30.97ZM14.85 28.49C14.63 28.49 14.41 28.41 14 28.16C7.68 24.34 5.66 23.21 5.66 18.99L5.66 9.46C5.66 9.00 5.74 8.82 6.13 8.67C8.20 7.85 12.24 6.49 14.30 5.67C14.52 5.58 14.70 5.55 14.85 5.55C15.00 5.55 15.18 5.59 15.39 5.67C17.46 6.49 21.46 7.94 23.58 8.67C23.95 8.80 24.04 9.00 24.04 9.46L24.04 18.99C24.04 23.21 22.01 24.32 15.70 28.16C15.30 28.41 15.07 28.49 14.85 28.49ZM9.91 21.89C9.91 22.91 10.38 23.39 11.32 23.39L18.40 23.39C19.35 23.39 19.80 22.91 19.80 21.89L19.80 16.45C19.80 15.49 19.40 15.01 18.59 14.96L18.59 13.34C18.59 10.83 17.09 9.15 14.86 9.15C12.63 9.15 11.13 10.83 11.13 13.34L11.13 14.96C10.32 15.01 9.91 15.49 9.91 16.45ZM12.55 14.94L12.55 13.19C12.55 11.58 13.48 10.53 14.86 10.53C16.24 10.53 17.17 11.58 17.17 13.19L17.17 14.94Z" />
</svg>