<svg xmlns="http://www.w3.org/2000/svg" viewBox="3.49 4.13 23.88 25.32" width="23.88" height="25.32" fill="currentColor">
  <path d="M15.44 16.79C18.69 16.79 21.34 13.90 21.34 10.38C21.34 6.88 18.70 4.13 15.44 4.13C12.20 4.13 9.53 6.93 9.53 10.40C9.53 13.92 12.18 16.79 15.44 16.79ZM15.44 14.72C13.44 14.72 11.73 12.82 11.73 10.40C11.73 8.03 13.41 6.19 15.44 6.19C17.47 6.19 19.14 7.98 19.14 10.38C19.14 12.80 17.45 14.72 15.44 14.72ZM6.84 29.45L24.02 29.45C26.29 29.45 27.37 28.77 27.37 27.26C27.37 23.68 22.85 18.50 15.44 18.50C8.01 18.50 3.49 23.68 3.49 27.26C3.49 28.77 4.57 29.45 6.84 29.45ZM6.19 27.38C5.84 27.38 5.69 27.29 5.69 27.00C5.69 24.75 9.16 20.56 15.44 20.56C21.70 20.56 25.17 24.75 25.17 27.00C25.17 27.29 25.03 27.38 24.68 27.38Z" />
</svg>