<svg xmlns="http://www.w3.org/2000/svg" viewBox="3.49 4.13 38.08 25.32" width="38.08" height="25.32" fill="currentColor">
  <path d="M29.63 16.79C32.88 16.79 35.53 13.90 35.53 10.38C35.53 6.88 32.89 4.13 29.63 4.13C26.37 4.13 23.72 6.93 23.72 10.40C23.72 13.92 26.37 16.79 29.63 16.79ZM13.88 16.91C16.69 16.91 19.00 14.38 19.00 11.28C19.00 8.24 16.72 5.80 13.88 5.80C11.06 5.80 8.75 8.29 8.75 11.31C8.75 14.40 11.06 16.91 13.88 16.91ZM29.63 14.72C27.63 14.72 25.92 12.82 25.92 10.40C25.92 8.03 27.59 6.19 29.63 6.19C31.66 6.19 33.33 7.98 33.33 10.38C33.33 12.80 31.64 14.72 29.63 14.72ZM13.88 14.88C12.20 14.88 10.79 13.28 10.79 11.31C10.79 9.38 12.18 7.83 13.88 7.83C15.60 7.83 16.98 9.35 16.98 11.28C16.98 13.28 15.56 14.88 13.88 14.88ZM6.26 29.45L16.99 29.45C16.34 29.08 15.85 28.26 15.94 27.43L5.93 27.43C5.65 27.43 5.52 27.32 5.52 27.04C5.52 23.65 9.39 20.49 13.86 20.49C15.57 20.49 17.13 20.90 18.46 21.68C18.88 21.14 19.39 20.66 20.00 20.22C18.24 19.07 16.12 18.47 13.86 18.47C8.13 18.47 3.49 22.63 3.49 27.17C3.49 28.70 4.42 29.45 6.26 29.45ZM21.03 29.45L38.20 29.45C40.48 29.45 41.56 28.77 41.56 27.26C41.56 23.68 37.04 18.50 29.61 18.50C22.20 18.50 17.68 23.68 17.68 27.26C17.68 28.77 18.76 29.45 21.03 29.45ZM20.37 27.38C20.02 27.38 19.88 27.29 19.88 27.00C19.88 24.75 23.35 20.56 29.61 20.56C35.89 20.56 39.36 24.75 39.36 27.00C39.36 27.29 39.21 27.38 38.86 27.38Z" />
</svg>