<svg xmlns="http://www.w3.org/2000/svg" viewBox="3.14 4.03 25.48 25.51" width="25.48" height="25.51" fill="currentColor">
  <path d="M10.14 22.45C14.16 26.48 18.98 29.54 22.85 29.54C24.66 29.54 26.25 28.82 27.29 27.66C28.29 26.54 28.63 25.70 28.63 24.96C28.63 24.39 28.27 23.86 27.37 23.23L24.04 20.84C23.20 20.25 22.83 20.14 22.34 20.14C21.92 20.14 21.56 20.22 20.85 20.60L18.66 21.81C18.40 21.96 18.29 21.98 18.10 21.98C17.84 21.98 17.66 21.92 17.40 21.81C16.37 21.33 14.90 20.18 13.60 18.88C12.30 17.58 11.29 16.26 10.77 15.23C10.71 15.09 10.62 14.88 10.62 14.66C10.62 14.48 10.72 14.33 10.83 14.14L12.11 11.94C12.47 11.33 12.56 11.01 12.56 10.54C12.56 10.01 12.39 9.43 11.88 8.71L9.58 5.51C8.93 4.59 8.44 4.03 7.70 4.03C6.78 4.03 5.67 4.73 4.88 5.50C3.75 6.59 3.14 8.12 3.14 9.84C3.14 13.74 6.14 18.46 10.14 22.45Z" />
</svg>