<svg xmlns="http://www.w3.org/2000/svg" viewBox="3.49 4.21 32.24 25.17" width="32.24" height="25.17" fill="currentColor">
  <path d="M7.78 29.38L31.43 29.38C34.30 29.38 35.72 27.97 35.72 25.16L35.72 8.45C35.72 5.63 34.30 4.21 31.43 4.21L7.78 4.21C4.92 4.21 3.49 5.63 3.49 8.45L3.49 25.16C3.49 27.97 4.92 29.38 7.78 29.38ZM26.20 16.79C25.59 16.23 24.87 15.94 24.13 15.94C23.38 15.94 22.71 16.20 22.08 16.76L15.90 22.29L13.37 20.00C12.80 19.48 12.17 19.22 11.53 19.22C10.91 19.22 10.32 19.47 9.76 19.99L5.69 23.67L5.69 8.57C5.69 7.15 6.44 6.41 7.81 6.41L31.40 6.41C32.76 6.41 33.52 7.15 33.52 8.57L33.52 23.67ZM13.67 16.93C15.44 16.93 16.88 15.48 16.88 13.70C16.88 11.94 15.44 10.47 13.67 10.47C11.89 10.47 10.45 11.94 10.45 13.70C10.45 15.48 11.89 16.93 13.67 16.93Z" />
</svg>