<svg xmlns="http://www.w3.org/2000/svg" viewBox="3.49 4.21 32.24 25.17" width="32.24" height="25.17" fill="currentColor">
  <path d="M7.78 29.38L31.43 29.38C34.30 29.38 35.72 27.97 35.72 25.16L35.72 8.45C35.72 5.63 34.30 4.21 31.43 4.21L7.78 4.21C4.92 4.21 3.49 5.63 3.49 8.45L3.49 25.16C3.49 27.97 4.92 29.38 7.78 29.38ZM7.81 27.18C6.44 27.18 5.69 26.46 5.69 25.03L5.69 8.57C5.69 7.15 6.44 6.41 7.81 6.41L31.40 6.41C32.76 6.41 33.52 7.15 33.52 8.57L33.52 25.03C33.52 26.46 32.76 27.18 31.40 27.18ZM17.06 22.13L24.86 17.53C25.43 17.20 25.42 16.41 24.86 16.06L17.06 11.46C16.49 11.12 15.70 11.38 15.70 12.04L15.70 21.55C15.70 22.20 16.43 22.52 17.06 22.13Z" />
</svg>