<svg xmlns="http://www.w3.org/2000/svg" viewBox="2.45 2.84 27.89 27.89" width="27.89" height="27.89" fill="currentColor">
  <path d="M16.39 30.73C24.09 30.73 30.34 24.49 30.34 16.79C30.34 9.09 24.09 2.84 16.39 2.84C8.70 2.84 2.45 9.09 2.45 16.79C2.45 24.49 8.70 30.73 16.39 30.73ZM16.39 28.41C9.97 28.41 4.77 23.21 4.77 16.79C4.77 10.36 9.97 5.17 16.39 5.17C22.82 5.17 28.01 10.36 28.01 16.79C28.01 23.21 22.82 28.41 16.39 28.41ZM13.84 22.13L21.62 17.53C22.19 17.20 22.18 16.41 21.62 16.06L13.84 11.46C13.25 11.12 12.47 11.38 12.47 12.04L12.47 21.55C12.47 22.20 13.19 22.52 13.84 22.13Z" />
</svg>