<svg xmlns="http://www.w3.org/2000/svg" viewBox="3.49 4.21 25.17 25.17" width="25.17" height="25.17" fill="currentColor">
  <path d="M7.78 29.38L24.36 29.38C27.23 29.38 28.66 27.97 28.66 25.16L28.66 8.45C28.66 5.63 27.23 4.21 24.36 4.21L7.78 4.21C4.92 4.21 3.49 5.63 3.49 8.45L3.49 25.16C3.49 27.97 4.92 29.38 7.78 29.38ZM7.81 27.18C6.44 27.18 5.69 26.46 5.69 25.03L5.69 8.57C5.69 7.15 6.44 6.41 7.81 6.41L24.34 6.41C25.69 6.41 26.46 7.15 26.46 8.57L26.46 25.03C26.46 26.46 25.69 27.18 24.34 27.18ZM10.91 17.91L14.93 17.91L14.93 21.94C14.93 22.63 15.39 23.11 16.06 23.11C16.75 23.11 17.23 22.64 17.23 21.94L17.23 17.91L21.26 17.91C21.94 17.91 22.42 17.46 22.42 16.79C22.42 16.11 21.94 15.63 21.26 15.63L17.23 15.63L17.23 11.61C17.23 10.91 16.75 10.43 16.06 10.43C15.39 10.43 14.93 10.91 14.93 11.61L14.93 15.63L10.91 15.63C10.21 15.63 9.75 16.11 9.75 16.79C9.75 17.46 10.21 17.91 10.91 17.91Z" />
</svg>