<svg xmlns="http://www.w3.org/2000/svg" viewBox="3.49 2.21 24.27 29.23" width="24.27" height="29.23" fill="currentColor">
  <path d="M10.98 15.83C10.40 15.83 9.99 16.23 9.99 16.79C9.99 17.09 10.12 17.31 10.32 17.51L14.83 21.86C15.11 22.13 15.34 22.22 15.63 22.22C15.90 22.22 16.13 22.13 16.41 21.86L20.92 17.51C21.12 17.31 21.25 17.09 21.25 16.79C21.25 16.23 20.81 15.83 20.25 15.83C19.97 15.83 19.70 15.94 19.51 16.16L17.39 18.42L16.61 19.24L16.71 17.17L16.71 3.27C16.71 2.69 16.21 2.21 15.63 2.21C15.04 2.21 14.53 2.69 14.53 3.27L14.53 17.17L14.63 19.24L13.85 18.42L11.73 16.16C11.54 15.94 11.25 15.83 10.98 15.83ZM9.20 31.45L22.03 31.45C25.70 31.45 27.75 29.39 27.75 25.73L27.75 15.20C27.75 11.53 25.70 9.49 22.03 9.49L19.26 9.49L19.26 11.69L22.03 11.69C24.28 11.69 25.55 12.96 25.55 15.20L25.55 25.73C25.55 27.97 24.28 29.24 22.03 29.24L9.20 29.24C6.96 29.24 5.69 27.97 5.69 25.73L5.69 15.20C5.69 12.96 6.96 11.69 9.20 11.69L11.96 11.69L11.96 9.49L9.20 9.49C5.52 9.49 3.49 11.53 3.49 15.20L3.49 25.73C3.49 29.39 5.52 31.45 9.20 31.45Z" />
</svg>