<svg xmlns="http://www.w3.org/2000/svg" viewBox="2.45 1.96 29.57 29.65" width="29.57" height="29.65" fill="currentColor">
  <path d="M17.24 7.27C17.88 7.27 18.42 6.74 18.42 6.08L18.42 3.14C18.42 2.49 17.88 1.96 17.24 1.96C16.58 1.96 16.05 2.49 16.05 3.14L16.05 6.08C16.05 6.74 16.58 7.27 17.24 7.27ZM23.94 10.08C24.40 10.53 25.16 10.54 25.62 10.08L27.71 7.98C28.16 7.53 28.16 6.77 27.71 6.30C27.26 5.85 26.50 5.85 26.04 6.30L23.94 8.41C23.49 8.86 23.49 9.63 23.94 10.08ZM10.51 10.08C10.96 9.64 10.96 8.85 10.53 8.41L8.44 6.30C8.00 5.87 7.22 5.85 6.77 6.30C6.32 6.77 6.32 7.53 6.75 7.97L8.85 10.08C9.30 10.53 10.05 10.53 10.51 10.08ZM17.23 23.75C21.07 23.75 24.19 20.63 24.19 16.79C24.19 12.95 21.07 9.82 17.23 9.82C13.38 9.82 10.27 12.95 10.27 16.79C10.27 20.63 13.38 23.75 17.23 23.75ZM26.71 16.79C26.71 17.43 27.26 17.96 27.90 17.96L30.84 17.96C31.49 17.96 32.02 17.43 32.02 16.79C32.02 16.15 31.49 15.60 30.84 15.60L27.90 15.60C27.26 15.60 26.71 16.15 26.71 16.79ZM7.75 16.79C7.75 16.15 7.21 15.60 6.56 15.60L3.62 15.60C2.98 15.60 2.45 16.15 2.45 16.79C2.45 17.43 2.98 17.96 3.62 17.96L6.56 17.96C7.21 17.96 7.75 17.43 7.75 16.79ZM10.53 23.50C10.06 23.06 9.30 23.05 8.85 23.50L6.75 25.59C6.30 26.04 6.30 26.80 6.74 27.26C7.19 27.70 7.97 27.73 8.42 27.28L10.51 25.17C10.96 24.72 10.96 23.97 10.53 23.50ZM23.94 23.50C23.49 23.97 23.49 24.72 23.94 25.17L26.04 27.29C26.50 27.74 27.26 27.71 27.71 27.28C28.16 26.81 28.16 26.06 27.71 25.61L25.61 23.50C25.16 23.05 24.40 23.06 23.94 23.50ZM17.24 26.30C16.58 26.30 16.05 26.84 16.05 27.48L16.05 30.43C16.05 31.08 16.58 31.61 17.24 31.61C17.88 31.61 18.42 31.08 18.42 30.43L18.42 27.48C18.42 26.84 17.88 26.30 17.24 26.30Z" />
</svg>