<svg xmlns="http://www.w3.org/2000/svg" viewBox="2.79 3.41 27.38 28.11" width="27.38" height="28.11" fill="currentColor">
  <path d="M3.77 19.44L9.83 19.44C10.45 19.44 10.81 19.17 10.95 18.62L13.00 9.21L16.60 30.79C16.76 31.77 18.28 31.76 18.47 30.79L21.94 14.53L22.76 18.51C22.89 19.14 23.24 19.44 23.88 19.44L29.19 19.44C29.74 19.44 30.17 19.02 30.17 18.48C30.17 17.94 29.75 17.51 29.19 17.51L24.35 17.51L22.78 10.55C22.57 9.60 21.16 9.61 20.93 10.60L17.50 25.88L13.90 4.14C13.75 3.19 12.36 3.16 12.14 4.14L9.24 17.51L3.77 17.51C3.21 17.51 2.79 17.95 2.79 18.48C2.79 19.02 3.21 19.44 3.77 19.44Z" />
</svg>