<svg xmlns="http://www.w3.org/2000/svg" viewBox="3.49 4.44 25.39 24.94" width="25.39" height="24.94" fill="currentColor">
  <path d="M5.69 14.77L9.37 11.10L13.04 14.77C13.41 15.15 14.01 15.11 14.37 14.74C14.74 14.37 14.78 13.78 14.41 13.41L10.73 9.73L14.42 6.06C14.78 5.70 14.74 5.09 14.38 4.73C14.03 4.36 13.41 4.33 13.06 4.69L9.37 8.38L5.67 4.69C5.32 4.33 4.72 4.36 4.35 4.73C3.99 5.09 3.95 5.70 4.31 6.06L8.00 9.73L4.32 13.41C3.95 13.78 3.99 14.37 4.36 14.74C4.73 15.11 5.32 15.15 5.69 14.77ZM18.70 15.07L27.49 15.07C28.72 15.07 29.22 14.03 28.63 12.97L24.32 5.32C23.71 4.22 22.48 4.24 21.88 5.32L17.58 12.97C17.01 14 17.46 15.07 18.70 15.07ZM19.81 13.28C19.62 13.28 19.54 13.15 19.63 12.97L22.91 7.10C23.02 6.92 23.17 6.92 23.27 7.10L26.56 12.97C26.66 13.15 26.58 13.28 26.39 13.28ZM9.38 29.38C12.63 29.38 15.26 26.74 15.26 23.49C15.26 20.23 12.63 17.61 9.38 17.61C6.13 17.61 3.49 20.23 3.49 23.49C3.49 26.74 6.13 29.38 9.38 29.38ZM19.99 29.19L26.21 29.19C27.95 29.19 28.82 28.33 28.82 26.52L28.82 20.41C28.82 18.61 27.95 17.75 26.21 17.75L19.99 17.75C18.25 17.75 17.38 18.61 17.38 20.41L17.38 26.52C17.38 28.33 18.25 29.19 19.99 29.19ZM9.38 27.45C7.19 27.45 5.41 25.68 5.41 23.49C5.41 21.30 7.19 19.54 9.38 19.54C11.57 19.54 13.33 21.30 13.33 23.49C13.33 25.68 11.57 27.45 9.38 27.45ZM20.02 27.26C19.54 27.26 19.30 27.02 19.30 26.52L19.30 20.41C19.30 19.91 19.54 19.67 20.02 19.67L26.20 19.67C26.66 19.67 26.89 19.91 26.89 20.41L26.89 26.52C26.89 27.02 26.66 27.26 26.20 27.26Z" />
</svg>