<svg xmlns="http://www.w3.org/2000/svg" viewBox="3.49 6.43 25.39 20.73" width="25.39" height="20.73" fill="currentColor">
  <path d="M4.69 18.01L21.98 18.01L25.28 17.80L20.69 22.00L17.62 25.12C17.40 25.32 17.29 25.65 17.29 25.98C17.29 26.66 17.81 27.15 18.48 27.15C18.81 27.15 19.10 27.03 19.37 26.77L28.46 17.71C28.74 17.45 28.88 17.13 28.88 16.79C28.88 16.45 28.74 16.13 28.46 15.87L19.40 6.84C19.10 6.54 18.81 6.43 18.48 6.43C17.81 6.43 17.29 6.92 17.29 7.60C17.29 7.93 17.40 8.24 17.62 8.46L20.69 11.58L25.28 15.78L21.98 15.57L4.69 15.57C3.98 15.57 3.49 16.08 3.49 16.79C3.49 17.50 3.98 18.01 4.69 18.01Z" />
</svg>