<svg xmlns="http://www.w3.org/2000/svg" viewBox="3.48 6.73 20.21 20.16" width="20.21" height="20.16" fill="currentColor">
  <path d="M3.87 26.51C4.38 27.00 5.07 27.03 5.59 26.51L19.47 12.65L21.46 10.50L21.21 16.80L21.21 21.85C21.21 22.50 21.78 23.09 22.45 23.09C23.11 23.09 23.69 22.54 23.69 21.79L23.68 8.05C23.68 7.26 23.16 6.73 22.35 6.73L8.60 6.73C7.83 6.73 7.31 7.30 7.31 7.96C7.31 8.61 7.90 9.17 8.54 9.17L13.30 9.17L19.82 8.97L17.73 10.91L3.87 24.79C3.35 25.31 3.36 26.00 3.87 26.51Z" />
</svg>