<svg xmlns="http://www.w3.org/2000/svg" viewBox="3.49 2.13 23 29.31" width="23" height="29.31" fill="currentColor">
  <path d="M7.72 31.45L22.24 31.45C25.07 31.45 26.48 30.01 26.48 27.17L26.48 14.75C26.48 12.99 26.28 12.22 25.18 11.10L17.65 3.43C16.61 2.37 15.75 2.13 14.22 2.13L7.72 2.13C4.91 2.13 3.49 3.58 3.49 6.43L3.49 27.17C3.49 30.02 4.89 31.45 7.72 31.45ZM7.82 29.24C6.41 29.24 5.69 28.49 5.69 27.13L5.69 6.47C5.69 5.11 6.41 4.33 7.83 4.33L13.92 4.33L13.92 12.28C13.92 14 14.78 14.85 16.49 14.85L24.28 14.85L24.28 27.13C24.28 28.49 23.56 29.24 22.13 29.24ZM16.73 12.78C16.19 12.78 15.98 12.56 15.98 12.02L15.98 4.76L23.86 12.78ZM10.99 21.97C10.43 21.97 10.02 22.37 10.02 22.91C10.02 23.23 10.16 23.46 10.38 23.65L14.27 27.23C14.56 27.49 14.77 27.59 15.04 27.59C15.31 27.59 15.52 27.49 15.80 27.23L19.70 23.65C19.92 23.46 20.04 23.23 20.04 22.91C20.04 22.37 19.62 21.97 19.07 21.97C18.81 21.97 18.54 22.08 18.35 22.29L17.16 23.50L15.98 24.71L16.08 22.48L16.08 17.55C16.08 16.99 15.60 16.54 15.04 16.54C14.48 16.54 13.99 16.99 13.99 17.55L13.99 22.48L14.08 24.71L12.92 23.50L11.72 22.29C11.53 22.08 11.25 21.97 10.99 21.97Z" />
</svg>