<svg xmlns="http://www.w3.org/2000/svg" viewBox="2.45 0.11 27.89 33.36" width="27.89" height="33.36" fill="currentColor">
  <path d="M28.01 16.79C28.01 20.19 26.55 23.28 24.19 25.42C23.57 25.98 23.60 26.58 23.91 27.02C24.28 27.54 25.09 27.73 25.70 27.17C28.56 24.61 30.34 20.89 30.34 16.79C30.34 9.87 25.29 4.13 18.66 3.04L18.66 1.08C18.66 0.10 17.99-0.15 17.24 0.38L12.89 3.45C12.25 3.90 12.26 4.55 12.89 4.99L17.25 8.05C17.99 8.57 18.66 8.31 18.66 7.36L18.66 5.39C24.01 6.44 28.01 11.14 28.01 16.79ZM4.77 16.79C4.77 13.37 6.23 10.29 8.61 8.15C9.21 7.59 9.19 7 8.87 6.55C8.50 6.04 7.70 5.85 7.08 6.41C4.22 8.97 2.45 12.69 2.45 16.79C2.45 23.71 7.49 29.45 14.12 30.54L14.12 32.48C14.12 33.47 14.79 33.73 15.54 33.18L19.89 30.13C20.54 29.68 20.52 29.03 19.89 28.59L15.53 25.53C14.79 25.01 14.12 25.25 14.12 26.22L14.12 28.19C8.79 27.14 4.77 22.44 4.77 16.79Z" />
</svg>