<svg xmlns="http://www.w3.org/2000/svg" viewBox="2.9 2.67 25.8 28.25" width="25.8" height="28.25" fill="currentColor">
  <path d="M2.90 24.31C2.90 25.31 3.66 25.96 4.96 25.96L10.73 25.96C10.84 28.60 12.91 30.91 15.79 30.91C18.69 30.91 20.75 28.62 20.86 25.96L26.63 25.96C27.92 25.96 28.70 25.31 28.70 24.31C28.70 22.94 27.30 21.71 26.13 20.49C25.22 19.55 24.98 17.61 24.87 16.04C24.77 10.65 23.38 7.18 19.74 5.87C19.28 4.07 17.81 2.67 15.79 2.67C13.78 2.67 12.30 4.07 11.85 5.87C8.22 7.18 6.82 10.65 6.73 16.04C6.62 17.61 6.37 19.55 5.47 20.49C4.28 21.71 2.90 22.94 2.90 24.31ZM5.55 23.90L5.55 23.73C5.80 23.34 6.62 22.53 7.33 21.74C8.31 20.64 8.78 18.88 8.90 16.21C9.01 10.24 10.79 8.34 13.13 7.70C13.47 7.62 13.66 7.45 13.67 7.10C13.71 5.67 14.53 4.68 15.79 4.68C17.06 4.68 17.87 5.67 17.92 7.10C17.94 7.45 18.12 7.62 18.46 7.70C20.81 8.34 22.59 10.24 22.70 16.21C22.82 18.88 23.28 20.64 24.25 21.74C24.98 22.53 25.79 23.34 26.03 23.73L26.03 23.90ZM12.87 25.96L18.73 25.96C18.62 27.82 17.45 28.98 15.79 28.98C14.15 28.98 12.96 27.82 12.87 25.96Z" />
</svg>