<svg xmlns="http://www.w3.org/2000/svg" viewBox="3.49 1.18 39.27 31.28" width="39.27" height="31.28" fill="currentColor">
  <path d="M24.05 27.47L28.48 27.47L33.04 31.38C33.88 32.09 34.33 32.46 34.99 32.46C35.93 32.46 36.46 31.79 36.46 30.75L36.46 27.47L36.75 27.47C40.69 27.47 42.75 25.35 42.75 21.48L42.75 14.08C42.75 10.20 40.69 8.08 36.75 8.08L33.62 8.08L33.62 7.44C33.62 3.43 31.43 1.18 27.36 1.18L9.75 1.18C5.67 1.18 3.49 3.43 3.49 7.44L3.49 17.92C3.49 21.93 5.67 24.17 9.75 24.17L10.40 24.17L10.40 27.74C10.40 28.79 10.94 29.46 11.89 29.46C12.56 29.46 13.03 29.11 13.86 28.38L18.51 24.25C19.32 26.35 21.19 27.47 24.05 27.47ZM12.46 23.01C12.46 22.26 12.17 21.97 11.43 21.97L9.75 21.97C6.99 21.97 5.69 20.58 5.69 17.91L5.69 7.45C5.69 4.79 6.99 3.38 9.75 3.38L27.36 3.38C30.11 3.38 31.42 4.79 31.42 7.45L31.42 8.08L24.05 8.08C20.11 8.08 18.05 10.20 18.05 14.08L18.05 21.48C18.05 21.66 18.06 21.83 18.06 22.00C17.57 22.04 17.24 22.20 16.83 22.63L12.46 26.96ZM24.09 25.27C21.41 25.27 20.26 24.01 20.26 21.45L20.26 14.11C20.26 11.55 21.41 10.28 24.09 10.28L36.72 10.28C39.39 10.28 40.55 11.55 40.55 14.11L40.55 21.44C40.55 24.01 39.39 25.27 36.72 25.27L35.46 25.27C34.88 25.27 34.41 25.62 34.41 26.39L34.41 29.97L29.79 25.84C29.34 25.42 28.96 25.27 28.40 25.27Z" />
</svg>