<svg xmlns="http://www.w3.org/2000/svg" viewBox="3.49 3.32 33.58 26.07" width="33.58" height="26.07" fill="currentColor">
  <path d="M7.78 29.39L32.77 29.39C35.62 29.39 37.06 27.97 37.06 25.16L37.06 10.84C37.06 8.03 35.62 6.62 32.77 6.62L28.86 6.62C27.78 6.62 27.45 6.40 26.84 5.71L25.74 4.48C25.06 3.73 24.36 3.32 22.96 3.32L17.50 3.32C16.09 3.32 15.39 3.73 14.71 4.48L13.62 5.71C13.00 6.38 12.66 6.62 11.59 6.62L7.78 6.62C4.92 6.62 3.49 8.03 3.49 10.84L3.49 25.16C3.49 27.97 4.92 29.39 7.78 29.39ZM7.81 27.19C6.47 27.19 5.69 26.47 5.69 25.05L5.69 10.96C5.69 9.54 6.47 8.82 7.81 8.82L12.14 8.82C13.37 8.82 14.04 8.59 14.72 7.82L15.79 6.62C16.57 5.74 16.98 5.52 18.18 5.52L22.27 5.52C23.47 5.52 23.88 5.74 24.66 6.62L25.73 7.82C26.41 8.59 27.08 8.82 28.31 8.82L32.73 8.82C34.08 8.82 34.86 9.54 34.86 10.96L34.86 25.05C34.86 26.47 34.08 27.19 32.73 27.19ZM20.28 25.22C24.40 25.22 27.73 21.92 27.73 17.75C27.73 13.59 24.42 10.28 20.28 10.28C16.13 10.28 12.81 13.59 12.81 17.75C12.81 21.92 16.13 25.22 20.28 25.22ZM30.63 13.81C31.55 13.81 32.32 13.04 32.32 12.11C32.32 11.17 31.55 10.42 30.63 10.42C29.68 10.42 28.93 11.17 28.93 12.11C28.93 13.04 29.68 13.81 30.63 13.81ZM20.28 23.15C17.31 23.15 14.88 20.75 14.88 17.75C14.88 14.75 17.29 12.35 20.28 12.35C23.26 12.35 25.66 14.75 25.66 17.75C25.66 20.75 23.26 23.15 20.28 23.15Z" />
</svg>