<svg xmlns="http://www.w3.org/2000/svg" viewBox="2.79 4.32 31.55 26.88" width="31.55" height="26.88" fill="currentColor">
  <path d="M13.90 24.55L29.86 24.55C30.39 24.55 30.86 24.12 30.86 23.53C30.86 22.94 30.39 22.50 29.86 22.50L14.14 22.50C13.36 22.50 12.88 21.96 12.76 21.12L12.54 19.69L29.89 19.69C31.88 19.69 32.91 18.46 33.20 16.50L34.29 9.27C34.32 9.09 34.34 8.87 34.34 8.75C34.34 8.09 33.85 7.64 33.10 7.64L10.77 7.64L10.51 5.91C10.38 4.85 9.99 4.32 8.60 4.32L3.80 4.32C3.25 4.32 2.79 4.80 2.79 5.35C2.79 5.91 3.25 6.38 3.80 6.38L8.42 6.38L10.61 21.40C10.90 23.34 11.92 24.55 13.90 24.55ZM32.02 9.71L31.05 16.26C30.94 17.10 30.49 17.64 29.68 17.64L12.24 17.64L11.07 9.71ZM14.98 31.20C16.21 31.20 17.20 30.23 17.20 28.98C17.20 27.75 16.21 26.77 14.98 26.77C13.74 26.77 12.76 27.75 12.76 28.98C12.76 30.23 13.74 31.20 14.98 31.20ZM27.77 31.20C29.01 31.20 30.00 30.23 30.00 28.98C30.00 27.75 29.01 26.77 27.77 26.77C26.54 26.77 25.54 27.75 25.54 28.98C25.54 30.23 26.54 31.20 27.77 31.20Z" />
</svg>