<svg xmlns="http://www.w3.org/2000/svg" viewBox="3.49 3.91 34.74 25.74" width="34.74" height="25.74" fill="currentColor">
  <path d="M31.29 29.65L34.99 29.65C37.12 29.65 38.23 28.63 38.23 26.61L38.23 6.97C38.23 4.95 37.12 3.91 34.99 3.91L31.29 3.91C29.18 3.91 28.08 4.95 28.08 6.97L28.08 26.61C28.08 28.63 29.18 29.65 31.29 29.65ZM31.66 27.59C30.63 27.59 30.26 27.23 30.26 26.21L30.26 7.37C30.26 6.34 30.63 5.97 31.66 5.97L34.63 5.97C35.68 5.97 36.05 6.34 36.05 7.37L36.05 26.21C36.05 27.23 35.68 27.59 34.63 27.59ZM19.00 29.65L22.70 29.65C24.83 29.65 25.92 28.63 25.92 26.61L25.92 10.96C25.92 8.94 24.83 7.90 22.70 7.90L19.00 7.90C16.87 7.90 15.78 8.94 15.78 10.96L15.78 26.61C15.78 28.63 16.87 29.65 19.00 29.65ZM19.37 27.59C18.32 27.59 17.95 27.23 17.95 26.21L17.95 11.36C17.95 10.34 18.32 9.97 19.37 9.97L22.34 9.97C23.39 9.97 23.75 10.34 23.75 11.36L23.75 26.21C23.75 27.23 23.39 27.59 22.34 27.59ZM6.71 29.65L10.39 29.65C12.52 29.65 13.63 28.63 13.63 26.61L13.63 14.94C13.63 12.92 12.52 11.88 10.39 11.88L6.71 11.88C4.58 11.88 3.49 12.92 3.49 14.94L3.49 26.61C3.49 28.63 4.58 29.65 6.71 29.65ZM7.07 27.59C6.03 27.59 5.66 27.23 5.66 26.21L5.66 15.34C5.66 14.30 6.03 13.95 7.07 13.95L10.04 13.95C11.09 13.95 11.46 14.30 11.46 15.34L11.46 26.21C11.46 27.23 11.09 27.59 10.04 27.59Z" />
</svg>