<svg xmlns="http://www.w3.org/2000/svg" viewBox="3.49 3.99 23.75 25.59" width="23.75" height="25.59" fill="currentColor">
  <path d="M3.86 6.14L14.44 16.97C14.70 17.23 15.01 17.36 15.37 17.36C15.71 17.36 16.05 17.21 16.28 16.95L26.87 6.13C27.10 5.89 27.23 5.59 27.23 5.24C27.23 4.53 26.70 3.99 25.99 3.99C25.65 3.99 25.33 4.13 25.10 4.35L15.37 14.30L5.62 4.35C5.40 4.13 5.09 3.99 4.73 3.99C4.02 3.99 3.49 4.53 3.49 5.24C3.49 5.59 3.62 5.89 3.86 6.14ZM3.86 18.35L14.44 29.19C14.70 29.44 15.01 29.59 15.37 29.59C15.71 29.59 16.04 29.42 16.28 29.18L26.87 18.35C27.10 18.12 27.23 17.81 27.23 17.46C27.23 16.75 26.70 16.21 25.99 16.21C25.65 16.21 25.33 16.35 25.10 16.57L15.37 26.52L5.62 16.57C5.40 16.35 5.09 16.21 4.73 16.21C4.02 16.21 3.49 16.75 3.49 17.46C3.49 17.81 3.62 18.12 3.86 18.35Z" />
</svg>