<svg xmlns="http://www.w3.org/2000/svg" viewBox="3.49 2.49 30.47 29.2" width="30.47" height="29.2" fill="currentColor">
  <path d="M7.78 24.80L11.54 24.80C13.37 28.86 17.47 31.69 22.23 31.69C28.71 31.69 33.96 26.44 33.96 19.96C33.96 14.72 30.53 10.28 25.79 8.76L25.79 6.73C25.79 3.91 24.35 2.49 21.51 2.49L7.78 2.49C4.91 2.49 3.49 3.91 3.49 6.73L3.49 20.56C3.49 23.38 4.91 24.80 7.78 24.80ZM7.81 22.60C6.44 22.60 5.69 21.86 5.69 20.44L5.69 6.85C5.69 5.43 6.44 4.69 7.81 4.69L21.46 4.69C22.82 4.69 23.58 5.43 23.58 6.85L23.58 8.30C23.15 8.24 22.68 8.22 22.23 8.22C15.74 8.22 10.50 13.48 10.50 19.96C10.50 20.86 10.60 21.75 10.79 22.60ZM22.23 29.44C16.93 29.44 12.76 25.25 12.76 19.96C12.76 14.67 16.93 10.49 22.23 10.49C27.52 10.49 31.69 14.67 31.69 19.96C31.69 25.25 27.52 29.44 22.23 29.44Z" />
</svg>