<svg xmlns="http://www.w3.org/2000/svg" viewBox="3.49 3.79 26.02 26" width="26.02" height="26" fill="currentColor">
  <path d="M9.45 15.71C12.74 15.71 15.41 13.04 15.41 9.75C15.41 6.45 12.74 3.79 9.45 3.79C6.15 3.79 3.49 6.45 3.49 9.75C3.49 13.04 6.15 15.71 9.45 15.71ZM23.54 15.71C26.84 15.71 29.50 13.04 29.50 9.75C29.50 6.45 26.84 3.79 23.54 3.79C20.25 3.79 17.58 6.45 17.58 9.75C17.58 13.04 20.25 15.71 23.54 15.71ZM9.45 13.58C7.33 13.58 5.62 11.87 5.62 9.75C5.62 7.63 7.33 5.92 9.45 5.92C11.57 5.92 13.28 7.63 13.28 9.75C13.28 11.87 11.57 13.58 9.45 13.58ZM23.54 13.58C21.42 13.58 19.71 11.87 19.71 9.75C19.71 7.63 21.42 5.92 23.54 5.92C25.66 5.92 27.37 7.63 27.37 9.75C27.37 11.87 25.66 13.58 23.54 13.58ZM9.45 29.79C12.74 29.79 15.41 27.13 15.41 23.83C15.41 20.54 12.74 17.87 9.45 17.87C6.15 17.87 3.49 20.54 3.49 23.83C3.49 27.13 6.15 29.79 9.45 29.79ZM23.54 29.79C26.84 29.79 29.50 27.13 29.50 23.83C29.50 20.54 26.84 17.87 23.54 17.87C20.25 17.87 17.58 20.54 17.58 23.83C17.58 27.13 20.25 29.79 23.54 29.79ZM9.45 27.66C7.33 27.66 5.62 25.95 5.62 23.83C5.62 21.71 7.33 20.00 9.45 20.00C11.57 20.00 13.28 21.71 13.28 23.83C13.28 25.95 11.57 27.66 9.45 27.66ZM23.54 27.66C21.42 27.66 19.71 25.95 19.71 23.83C19.71 21.71 21.42 20.00 23.54 20.00C25.66 20.00 27.37 21.71 27.37 23.83C27.37 25.95 25.66 27.66 23.54 27.66Z" />
</svg>