<svg xmlns="http://www.w3.org/2000/svg" viewBox="3.49 3.5 32.59 27.55" width="32.59" height="27.55" fill="currentColor">
  <path d="M6.63 26.20L15.46 26.20L15.46 28.83L15.38 28.83C14.78 28.83 14.27 29.33 14.27 29.94C14.27 30.56 14.78 31.05 15.38 31.05L24.19 31.05C24.79 31.05 25.28 30.56 25.28 29.94C25.28 29.33 24.79 28.83 24.19 28.83L24.10 28.83L24.10 26.20L32.92 26.20C34.89 26.20 36.08 25.01 36.08 23.04L36.08 6.64C36.08 4.68 34.89 3.50 32.92 3.50L6.63 3.50C4.68 3.50 3.49 4.68 3.49 6.64L3.49 23.04C3.49 25.01 4.68 26.20 6.63 26.20ZM6.28 20.17C5.87 20.17 5.69 20.02 5.69 19.58L5.69 6.69C5.69 6.07 6.07 5.70 6.67 5.70L32.89 5.70C33.50 5.70 33.88 6.07 33.88 6.69L33.88 19.58C33.88 20.02 33.69 20.17 33.28 20.17Z" />
</svg>