<svg xmlns="http://www.w3.org/2000/svg" viewBox="3.49 -0.42 27.96 34.4" width="27.96" height="34.4" fill="currentColor">
  <path d="M3.49 29.68C3.49 32.54 4.89 33.97 7.72 33.97L20.58 33.97C23.41 33.97 24.81 32.53 24.81 29.68L24.81 27.15L27.21 27.15C30.02 27.15 31.45 25.70 31.45 22.86L31.45 11.76C31.45 10.08 31.10 9.01 30.08 7.96L23.17 0.94C22.20-0.05 21.05-0.42 19.59-0.42L14.36-0.42C11.54-0.42 10.12 1.03 10.12 3.87L10.12 6.40L7.72 6.40C4.91 6.40 3.49 7.83 3.49 10.69ZM23.52 15.37L15.98 7.70C14.94 6.63 14.08 6.40 12.55 6.40L12.32 6.40L12.32 3.91C12.32 2.56 13.04 1.78 14.46 1.78L20.51 1.78L20.51 8.79C20.51 10.38 21.27 11.13 22.85 11.13L29.24 11.13L29.24 22.82C29.24 24.19 28.51 24.95 27.08 24.95L24.81 24.95L24.81 19.00C24.81 17.25 24.61 16.49 23.52 15.37ZM22.49 8.46L22.49 2.86L28.67 9.15L23.16 9.15C22.68 9.15 22.49 8.94 22.49 8.46ZM5.69 29.64L5.69 10.72C5.69 9.38 6.41 8.60 7.83 8.60L12.32 8.60L12.32 16.53C12.32 18.25 13.19 19.11 14.89 19.11L22.61 19.11L22.61 29.64C22.61 31.01 21.88 31.77 20.47 31.77L7.82 31.77C6.41 31.77 5.69 31.01 5.69 29.64ZM15.15 17.05C14.60 17.05 14.38 16.83 14.38 16.28L14.38 9.11L22.19 17.05Z" />
</svg>