<svg xmlns="http://www.w3.org/2000/svg" viewBox="2.79 3.73 28.66 25.98" width="28.66" height="25.98" fill="currentColor">
  <path d="M6.52 29.71L27.71 29.71C30.04 29.71 31.45 28.10 31.45 26.00C31.45 25.36 31.25 24.69 30.91 24.09L20.30 5.61C19.59 4.36 18.38 3.73 17.12 3.73C15.86 3.73 14.63 4.36 13.93 5.61L3.32 24.09C2.95 24.71 2.79 25.36 2.79 26.00C2.79 28.10 4.20 29.71 6.52 29.71ZM6.54 27.56C5.58 27.56 5.00 26.82 5.00 25.99C5.00 25.73 5.06 25.40 5.21 25.12L15.80 6.64C16.09 6.14 16.61 5.92 17.12 5.92C17.62 5.92 18.13 6.14 18.42 6.64L29.01 25.13C29.16 25.42 29.23 25.73 29.23 25.99C29.23 26.82 28.63 27.56 27.69 27.56ZM17.12 20.49C17.77 20.49 18.16 20.11 18.17 19.40L18.36 12.20C18.38 11.50 17.83 10.98 17.10 10.98C16.37 10.98 15.85 11.48 15.86 12.18L16.04 19.40C16.05 20.10 16.43 20.49 17.12 20.49ZM17.12 24.94C17.91 24.94 18.59 24.31 18.59 23.52C18.59 22.71 17.92 22.09 17.12 22.09C16.31 22.09 15.64 22.72 15.64 23.52C15.64 24.29 16.32 24.94 17.12 24.94Z" />
</svg>