<svg xmlns="http://www.w3.org/2000/svg" viewBox="2.45 2.84 27.89 27.89" width="27.89" height="27.89" fill="currentColor">
  <path d="M16.39 30.73C24.09 30.73 30.34 24.49 30.34 16.79C30.34 9.09 24.09 2.84 16.39 2.84C8.70 2.84 2.45 9.09 2.45 16.79C2.45 24.49 8.70 30.73 16.39 30.73ZM16.39 28.41C9.97 28.41 4.77 23.21 4.77 16.79C4.77 10.36 9.97 5.17 16.39 5.17C22.82 5.17 28.01 10.36 28.01 16.79C28.01 23.21 22.82 28.41 16.39 28.41ZM12.33 15.57C13.19 15.57 13.96 14.79 13.96 13.70C13.96 12.59 13.21 11.81 12.33 11.81C11.47 11.81 10.72 12.59 10.72 13.70C10.72 14.79 11.47 15.57 12.33 15.57ZM20.44 15.57C21.30 15.57 22.07 14.79 22.07 13.70C22.07 12.59 21.31 11.81 20.44 11.81C19.58 11.81 18.83 12.59 18.83 13.70C18.83 14.79 19.58 15.57 20.44 15.57ZM16.38 23.64C19.24 23.64 21.15 21.74 21.15 20.84C21.15 20.51 20.84 20.36 20.55 20.49C19.55 21.04 18.36 21.66 16.38 21.66C14.40 21.66 13.21 21.03 12.22 20.49C11.92 20.36 11.61 20.51 11.61 20.84C11.61 21.74 13.52 23.64 16.38 23.64Z" />
</svg>