<svg xmlns="http://www.w3.org/2000/svg" viewBox="3.49 4.2 31.05 25.02" width="31.05" height="25.02" fill="currentColor">
  <path d="M7.78 29.22L30.65 29.22C33.10 29.22 34.54 27.79 34.54 24.98L34.54 10.94C34.54 8.12 33.09 6.70 30.24 6.70L17.12 6.70C16.19 6.70 15.63 6.48 14.94 5.89L14.11 5.21C13.21 4.44 12.51 4.20 11.16 4.20L7.26 4.20C4.87 4.20 3.49 5.56 3.49 8.31L3.49 24.98C3.49 27.81 4.92 29.22 7.78 29.22ZM7.81 27.02C6.44 27.02 5.69 26.29 5.69 24.87L5.69 8.44C5.69 7.08 6.40 6.38 7.71 6.38L10.60 6.38C11.50 6.38 12.04 6.62 12.74 7.21L13.58 7.90C14.46 8.64 15.19 8.90 16.54 8.90L30.20 8.90C31.55 8.90 32.33 9.64 32.33 11.06L32.33 24.88C32.33 26.29 31.55 27.02 30.20 27.02ZM7.38 12.73L30.63 12.73L30.63 11.89C30.63 11.02 30.19 10.60 29.27 10.60L8.74 10.60C7.82 10.60 7.38 11.02 7.38 11.89Z" />
</svg>