<svg xmlns="http://www.w3.org/2000/svg" viewBox="2.45 1.89 37.53 29.79" width="37.53" height="29.79" fill="currentColor">
  <path d="M12.20 23.38L14.19 23.38C15.05 23.38 15.72 22.85 15.91 22.04L16.30 20.29C16.34 20.28 16.39 20.26 16.43 20.25L17.98 21.16C18.68 21.59 19.54 21.51 20.13 20.90L21.52 19.51C22.13 18.89 22.22 18.05 21.78 17.35L20.84 15.86C20.85 15.80 20.88 15.76 20.89 15.71L22.60 15.30C23.41 15.09 23.94 14.41 23.94 13.56L23.94 11.70C23.94 10.86 23.42 10.17 22.60 9.97L20.89 9.56C20.88 9.50 20.85 9.46 20.84 9.41L21.78 7.92C22.22 7.21 22.13 6.37 21.52 5.76L20.13 4.36C19.54 3.76 18.68 3.68 17.98 4.10L16.43 5.02C16.38 5.00 16.34 4.99 16.28 4.98L15.91 3.23C15.74 2.42 15.05 1.89 14.19 1.89L12.20 1.89C11.33 1.89 10.66 2.42 10.47 3.23L10.09 4.98C10.04 4.99 9.99 5.00 9.94 5.02L8.41 4.10C7.71 3.68 6.85 3.76 6.26 4.36L4.87 5.76C4.25 6.37 4.18 7.22 4.61 7.92L5.55 9.41C5.54 9.46 5.51 9.50 5.50 9.56L3.77 9.97C2.97 10.17 2.45 10.86 2.45 11.70L2.45 13.56C2.45 14.41 2.97 15.09 3.77 15.30L5.50 15.71C5.51 15.76 5.54 15.80 5.55 15.86L4.61 17.35C4.17 18.05 4.25 18.89 4.87 19.51L6.26 20.90C6.85 21.51 7.70 21.59 8.39 21.16L9.95 20.25C9.99 20.26 10.05 20.28 10.09 20.29L10.47 22.04C10.66 22.85 11.33 23.38 12.20 23.38ZM12.46 21.46C12.32 21.46 12.25 21.40 12.21 21.25L11.62 18.81C10.96 18.66 10.36 18.36 9.88 18.10L7.75 19.40C7.62 19.47 7.52 19.47 7.42 19.37L6.38 18.35C6.29 18.25 6.28 18.16 6.36 18.03L7.64 15.91C7.48 15.50 7.12 14.89 6.96 14.18L4.55 13.60C4.42 13.56 4.35 13.49 4.35 13.36L4.35 11.91C4.35 11.77 4.42 11.70 4.55 11.66L6.96 11.09C7.12 10.38 7.48 9.76 7.64 9.35L6.36 7.23C6.28 7.11 6.29 7.01 6.38 6.92L7.42 5.89C7.52 5.80 7.62 5.80 7.75 5.87L9.88 7.16C10.36 6.90 10.96 6.60 11.62 6.45L12.21 4.02C12.25 3.87 12.32 3.80 12.46 3.80L13.93 3.80C14.07 3.80 14.14 3.87 14.18 4.02L14.77 6.45C15.42 6.60 16.02 6.90 16.50 7.16L18.63 5.87C18.76 5.80 18.87 5.80 18.96 5.89L20.00 6.92C20.10 7.01 20.11 7.11 20.03 7.23L18.74 9.35C18.91 9.76 19.26 10.38 19.43 11.09L21.83 11.66C21.97 11.70 22.04 11.77 22.04 11.91L22.04 13.36C22.04 13.49 21.97 13.56 21.83 13.60L19.43 14.18C19.26 14.89 18.91 15.50 18.74 15.91L20.03 18.03C20.11 18.16 20.10 18.25 20.00 18.35L18.96 19.37C18.87 19.47 18.76 19.47 18.63 19.40L16.50 18.10C16.02 18.36 15.42 18.66 14.77 18.81L14.18 21.25C14.14 21.40 14.07 21.46 13.93 21.46ZM13.19 16.76C15.46 16.76 17.32 14.92 17.32 12.63C17.32 10.35 15.46 8.50 13.19 8.50C10.91 8.50 9.05 10.35 9.05 12.63C9.05 14.92 10.91 16.76 13.19 16.76ZM13.19 14.79C11.99 14.79 11.02 13.84 11.02 12.63C11.02 11.43 11.99 10.47 13.19 10.47C14.38 10.47 15.35 11.43 15.35 12.63C15.35 13.84 14.38 14.79 13.19 14.79ZM30.15 31.68L31.72 31.68C32.50 31.68 33.15 31.23 33.28 30.52L33.54 29.13C33.61 29.12 33.65 29.11 33.69 29.09L34.85 29.82C35.48 30.21 36.26 30.13 36.80 29.56L37.91 28.45C38.46 27.89 38.57 27.11 38.14 26.48L37.41 25.36C37.42 25.31 37.43 25.28 37.46 25.22L38.81 24.94C39.51 24.79 39.98 24.16 39.98 23.38L39.98 21.85C39.98 21.08 39.51 20.44 38.81 20.29L37.46 20.02C37.43 19.96 37.42 19.92 37.41 19.87L38.14 18.74C38.57 18.12 38.46 17.35 37.91 16.79L36.80 15.67C36.26 15.11 35.48 15.01 34.85 15.41L33.69 16.13C33.65 16.12 33.61 16.11 33.54 16.09L33.28 14.72C33.15 14 32.50 13.55 31.72 13.55L30.15 13.55C29.37 13.55 28.71 14 28.57 14.72L28.31 16.09C28.26 16.11 28.22 16.12 28.16 16.13L27.00 15.41C26.37 15.01 25.61 15.11 25.06 15.67L23.95 16.79C23.41 17.35 23.30 18.12 23.71 18.74L24.45 19.87C24.43 19.92 24.42 19.96 24.40 20.02L23.05 20.29C22.34 20.44 21.88 21.08 21.88 21.85L21.88 23.38C21.88 24.16 22.34 24.79 23.05 24.94L24.40 25.22C24.42 25.28 24.43 25.31 24.45 25.36L23.71 26.48C23.30 27.11 23.41 27.89 23.95 28.45L25.06 29.56C25.61 30.13 26.37 30.21 27.00 29.82L28.16 29.09C28.22 29.11 28.26 29.12 28.31 29.13L28.57 30.52C28.71 31.23 29.37 31.68 30.15 31.68ZM30.50 29.86C30.34 29.86 30.26 29.78 30.21 29.64L29.74 27.67C29.19 27.55 28.70 27.36 28.18 27.02L26.46 28.10C26.35 28.16 26.21 28.15 26.10 28.05L25.48 27.41C25.36 27.29 25.35 27.18 25.43 27.06L26.47 25.38C26.36 25.05 25.99 24.46 25.85 23.79L23.90 23.34C23.76 23.31 23.68 23.20 23.68 23.06L23.68 22.16C23.68 22.03 23.76 21.92 23.90 21.89L25.85 21.44C25.99 20.77 26.36 20.19 26.47 19.85L25.43 18.17C25.35 18.06 25.36 17.94 25.48 17.81L26.10 17.19C26.21 17.08 26.35 17.06 26.46 17.14L28.18 18.21C28.70 17.88 29.19 17.68 29.74 17.55L30.21 15.59C30.26 15.45 30.34 15.37 30.50 15.37L31.35 15.37C31.51 15.37 31.60 15.45 31.64 15.59L32.12 17.55C32.66 17.68 33.15 17.88 33.67 18.21L35.40 17.14C35.52 17.06 35.64 17.08 35.75 17.19L36.38 17.81C36.49 17.94 36.50 18.06 36.44 18.17L35.38 19.85C35.51 20.19 35.86 20.77 36.00 21.44L37.95 21.89C38.09 21.92 38.17 22.03 38.17 22.16L38.17 23.06C38.17 23.20 38.09 23.31 37.95 23.34L36.00 23.79C35.86 24.46 35.51 25.05 35.38 25.38L36.44 27.06C36.50 27.18 36.49 27.29 36.38 27.41L35.75 28.05C35.64 28.15 35.52 28.16 35.40 28.10L33.67 27.02C33.15 27.36 32.66 27.55 32.12 27.67L31.64 29.64C31.60 29.78 31.51 29.86 31.35 29.86ZM30.91 25.83C32.68 25.83 34.13 24.38 34.13 22.61C34.13 20.85 32.68 19.41 30.91 19.41C29.15 19.41 27.71 20.85 27.71 22.61C27.71 24.38 29.15 25.83 30.91 25.83ZM30.91 24.09C30.11 24.09 29.45 23.42 29.45 22.61C29.45 21.81 30.11 21.15 30.91 21.15C31.72 21.15 32.39 21.81 32.39 22.61C32.39 23.42 31.72 24.09 30.91 24.09Z" />
</svg>