<svg xmlns="http://www.w3.org/2000/svg" viewBox="2.45 2.17 29.26 29.23" width="29.26" height="29.23" fill="currentColor">
  <path d="M15.70 31.40L18.46 31.40C19.51 31.40 20.33 30.76 20.56 29.75L21.15 27.19L21.59 27.04L23.82 28.41C24.71 28.96 25.73 28.83 26.48 28.08L28.40 26.18C29.15 25.43 29.27 24.39 28.72 23.52L27.33 21.30L27.49 20.89L30.05 20.29C31.05 20.06 31.71 19.22 31.71 18.18L31.71 15.48C31.71 14.44 31.06 13.62 30.05 13.37L27.52 12.76L27.34 12.32L28.74 10.10C29.29 9.23 29.18 8.20 28.41 7.44L26.50 5.52C25.76 4.79 24.73 4.65 23.84 5.20L21.62 6.56L21.15 6.38L20.56 3.83C20.33 2.82 19.51 2.17 18.46 2.17L15.70 2.17C14.64 2.17 13.82 2.82 13.59 3.83L12.99 6.38L12.52 6.56L10.31 5.20C9.42 4.65 8.38 4.79 7.64 5.52L5.74 7.44C4.98 8.20 4.85 9.23 5.41 10.10L6.79 12.32L6.63 12.76L4.10 13.37C3.09 13.62 2.45 14.44 2.45 15.48L2.45 18.18C2.45 19.22 3.10 20.06 4.10 20.29L6.66 20.89L6.81 21.30L5.43 23.52C4.87 24.39 5.00 25.43 5.76 26.18L7.66 28.08C8.41 28.83 9.45 28.96 10.34 28.41L12.55 27.04L12.99 27.19L13.59 29.75C13.82 30.76 14.64 31.40 15.70 31.40ZM15.91 29.27C15.68 29.27 15.56 29.18 15.52 28.96L14.70 25.57C13.86 25.36 13.08 25.03 12.50 24.66L9.52 26.50C9.35 26.62 9.16 26.61 9.01 26.43L7.40 24.81C7.25 24.66 7.23 24.50 7.34 24.31L9.17 21.36C8.86 20.78 8.50 20.00 8.29 19.17L4.89 18.36C4.68 18.32 4.58 18.20 4.58 17.96L4.58 15.68C4.58 15.44 4.66 15.33 4.89 15.29L8.27 14.46C8.49 13.58 8.90 12.77 9.15 12.26L7.33 9.31C7.21 9.11 7.22 8.94 7.37 8.78L9.00 7.19C9.16 7.03 9.31 7.01 9.52 7.12L12.47 8.91C13.06 8.59 13.89 8.24 14.71 8.01L15.52 4.62C15.56 4.40 15.68 4.31 15.91 4.31L18.24 4.31C18.47 4.31 18.59 4.40 18.62 4.62L19.46 8.04C20.30 8.26 21.04 8.60 21.66 8.93L24.62 7.12C24.84 7.01 24.98 7.03 25.16 7.19L26.77 8.78C26.93 8.94 26.93 9.11 26.81 9.31L24.99 12.26C25.25 12.77 25.65 13.58 25.87 14.46L29.26 15.29C29.48 15.33 29.57 15.44 29.57 15.68L29.57 17.96C29.57 18.20 29.46 18.32 29.26 18.36L25.85 19.17C25.63 20.00 25.29 20.78 24.96 21.36L26.80 24.31C26.91 24.50 26.91 24.66 26.74 24.81L25.14 26.43C24.98 26.61 24.80 26.62 24.62 26.50L21.64 24.66C21.05 25.03 20.29 25.36 19.46 25.57L18.62 28.96C18.59 29.18 18.47 29.27 18.24 29.27ZM17.08 22.00C19.96 22.00 22.29 19.67 22.29 16.79C22.29 13.90 19.96 11.58 17.08 11.58C14.19 11.58 11.87 13.90 11.87 16.79C11.87 19.67 14.19 22.00 17.08 22.00ZM17.08 19.88C15.37 19.88 13.99 18.50 13.99 16.79C13.99 15.08 15.37 13.70 17.08 13.70C18.79 13.70 20.17 15.08 20.17 16.79C20.17 18.50 18.79 19.88 17.08 19.88Z" />
</svg>