<svg xmlns="http://www.w3.org/2000/svg" viewBox="2.45 2.84 27.89 27.89" width="27.89" height="27.89" fill="currentColor">
  <path d="M16.39 30.73C24.09 30.73 30.34 24.49 30.34 16.79C30.34 9.09 24.09 2.84 16.39 2.84C8.70 2.84 2.45 9.09 2.45 16.79C2.45 24.49 8.70 30.73 16.39 30.73ZM8.19 7.92C9.57 6.64 11.24 5.69 13.10 5.15C12.15 6.11 11.35 7.48 10.73 9.15C9.75 8.83 8.90 8.42 8.19 7.92ZM19.69 5.15C21.55 5.69 23.21 6.64 24.60 7.92C23.88 8.42 23.04 8.83 22.05 9.15C21.44 7.48 20.63 6.11 19.69 5.15ZM12.50 9.60C13.26 7.51 14.33 6.00 15.50 5.48L15.50 9.91C14.42 9.87 13.43 9.76 12.50 9.60ZM17.29 5.48C18.46 6.00 19.52 7.51 20.29 9.60C19.36 9.76 18.36 9.87 17.29 9.91ZM4.33 15.89C4.53 13.37 5.48 11.07 6.97 9.21C7.79 9.86 8.90 10.40 10.21 10.81C9.82 12.35 9.57 14.05 9.50 15.89ZM23.28 15.89C23.21 14.05 22.97 12.35 22.57 10.81C23.88 10.40 24.99 9.86 25.81 9.21C27.30 11.07 28.26 13.37 28.45 15.89ZM11.33 15.89C11.40 14.25 11.63 12.67 11.99 11.28C13.08 11.51 14.26 11.65 15.50 11.70L15.50 15.89ZM17.29 15.89L17.29 11.70C18.53 11.65 19.71 11.51 20.81 11.28C21.15 12.67 21.38 14.25 21.45 15.89ZM4.33 17.68L9.50 17.68C9.57 19.55 9.82 21.29 10.23 22.82C8.93 23.24 7.83 23.78 7.01 24.40C5.50 22.54 4.53 20.22 4.33 17.68ZM11.33 17.68L15.50 17.68L15.50 21.94C14.27 21.98 13.08 22.13 12.00 22.35C11.63 20.93 11.39 19.35 11.33 17.68ZM17.29 21.94L17.29 17.68L21.45 17.68C21.40 19.35 21.15 20.93 20.78 22.35C19.70 22.13 18.53 21.98 17.29 21.94ZM22.57 22.82C22.97 21.29 23.21 19.55 23.28 17.68L28.45 17.68C28.26 20.22 27.29 22.54 25.79 24.40C24.96 23.78 23.86 23.24 22.57 22.82ZM17.29 23.73C18.35 23.78 19.35 23.87 20.26 24.05C19.50 26.10 18.44 27.59 17.29 28.11ZM12.52 24.05C13.44 23.87 14.44 23.78 15.50 23.73L15.50 28.11C14.34 27.59 13.29 26.09 12.52 24.05ZM22.04 24.49C23.01 24.80 23.86 25.21 24.55 25.70C23.19 26.95 21.53 27.89 19.70 28.41C20.63 27.47 21.44 26.13 22.04 24.49ZM8.23 25.70C8.93 25.21 9.78 24.80 10.75 24.49C11.35 26.13 12.15 27.47 13.08 28.41C11.25 27.89 9.60 26.95 8.23 25.70Z" />
</svg>