<svg xmlns="http://www.w3.org/2000/svg" viewBox="2.45 -0.65 36.86 33.59" width="36.86" height="33.59" fill="currentColor">
  <path d="M13.59 5.00C14.05 4.91 14.38 4.43 14.27 3.99L13.43 0.04C13.32-0.44 12.85-0.72 12.40-0.63C11.94-0.53 11.61-0.08 11.72 0.40L12.56 4.33C12.67 4.79 13.11 5.11 13.59 5.00ZM8.49 6.36C8.83 6.70 9.39 6.70 9.72 6.36C10.05 6.02 10.06 5.48 9.72 5.14L6.85 2.28C6.49 1.93 5.97 1.94 5.63 2.28C5.29 2.63 5.28 3.14 5.63 3.50ZM19.48 5.84C19.25 6.06 19.07 6.33 18.96 6.62C17.98 6.03 16.87 6.18 15.98 7.07C15.59 7.46 15.37 7.96 15.35 8.48C14.23 7.62 12.99 7.64 12.03 8.61C11.09 9.54 11.06 10.83 11.87 11.92C11.38 11.92 10.91 12.14 10.55 12.50C9.56 13.49 9.58 14.86 10.65 15.94L11.73 17.01C11.20 16.99 10.66 17.24 10.25 17.66C9.24 18.66 9.30 20.10 10.38 21.18L18.69 29.49C22.46 33.26 26.89 33.89 30.64 31.64C32.65 31.39 34.58 30.41 36.29 28.71C39.68 25.31 40.22 21.07 37.90 16.16L34.81 9.65C34.25 8.45 33.30 7.82 32.18 7.82C31.47 7.82 30.34 8.22 29.93 9.32C28.98 8.82 27.85 9.01 27.06 9.82L27.04 9.83L23.11 5.89C21.96 4.76 20.56 4.76 19.48 5.84ZM27.36 14.88L20.26 7.78C20.30 7.59 20.40 7.41 20.55 7.25C20.95 6.85 21.51 6.88 21.93 7.29L26.41 11.79C26.46 12.04 26.52 12.29 26.63 12.56L27.54 14.74C27.56 14.79 27.56 14.85 27.52 14.89C27.47 14.94 27.41 14.93 27.36 14.88ZM31.40 28.64C27.99 32.06 23.69 31.95 19.81 28.05L11.80 20.04C11.38 19.63 11.36 19.09 11.76 18.68C12.15 18.28 12.73 18.28 13.14 18.69L18.09 23.64C18.44 23.99 18.96 23.94 19.29 23.63C19.62 23.30 19.67 22.76 19.32 22.41L11.92 15.01C11.51 14.60 11.48 14.05 11.88 13.66C12.29 13.26 12.87 13.26 13.28 13.67L20.17 20.56C20.52 20.92 21.05 20.88 21.37 20.55C21.70 20.22 21.75 19.69 21.40 19.33L13.30 11.24C12.89 10.83 12.88 10.25 13.28 9.86C13.66 9.46 14.25 9.49 14.66 9.90L22.75 17.99C23.08 18.32 23.61 18.31 23.94 17.98C24.28 17.64 24.31 17.10 23.98 16.76L17.08 9.86C16.67 9.45 16.65 8.89 17.06 8.49C17.46 8.08 18.02 8.09 18.43 8.52L27.95 18.03C28.42 18.51 29.00 18.51 29.39 18.10C29.74 17.76 29.89 17.31 29.61 16.61L27.90 12.11C27.67 11.51 27.89 11.01 28.36 10.79C28.88 10.55 29.33 10.79 29.64 11.44L32.81 18.16C34.93 22.64 34.10 25.94 31.40 28.64ZM7.11 10.91C7.56 10.99 8.04 10.72 8.12 10.24C8.22 9.78 7.93 9.34 7.45 9.23L3.50 8.38C2.99 8.27 2.53 8.60 2.46 9.09C2.39 9.54 2.69 9.98 3.14 10.08ZM34.40 17.39L31.36 10.99C31.32 10.86 31.29 10.72 31.29 10.55C31.29 10.12 31.65 9.68 32.24 9.68C32.61 9.68 32.99 9.94 33.20 10.38L36.30 16.93C38.42 21.40 37.61 24.72 34.89 27.40C34.77 27.54 34.63 27.66 34.49 27.78C36.30 24.80 36.27 21.31 34.40 17.39Z" />
</svg>