<svg xmlns="http://www.w3.org/2000/svg" viewBox="2.43 3.62 30.51 26.53" width="30.51" height="26.53" fill="currentColor">
  <path d="M26.58 29.45C32.01 27.48 34.32 22.50 32.13 16.49L31.12 13.69C30.04 10.72 28.01 9.50 25.61 10.34C24.96 9.50 23.98 9.21 22.91 9.60C22.52 9.75 22.18 9.95 21.86 10.20C21.15 9.30 20.07 8.96 18.95 9.37C18.65 9.47 18.36 9.64 18.09 9.83L16.53 5.56C15.94 3.94 14.48 3.25 12.96 3.80C11.43 4.36 10.73 5.82 11.32 7.45L15.22 18.17C15.24 18.24 15.23 18.29 15.16 18.32C15.12 18.33 15.07 18.32 15.03 18.27L13.43 16.53C12.63 15.68 11.69 15.42 10.77 15.75C9.52 16.21 8.71 17.40 9.23 18.81C9.37 19.21 9.64 19.69 9.94 20.08L14.52 25.61C17.99 29.80 22.04 31.10 26.58 29.45ZM25.99 27.66C22.41 28.97 19.06 28.30 15.89 24.49L11.31 18.98C11.17 18.81 11.07 18.66 10.99 18.43C10.83 17.99 11.02 17.49 11.54 17.29C11.98 17.14 12.33 17.31 12.67 17.68L15.85 20.95C16.37 21.49 16.83 21.55 17.29 21.38C17.83 21.19 18.05 20.62 17.84 20.03L12.99 6.71C12.80 6.17 13.03 5.65 13.56 5.46C14.08 5.26 14.59 5.52 14.78 6.07L18.24 15.57C18.40 16.02 18.91 16.23 19.36 16.06C19.80 15.90 20.04 15.42 19.88 14.98L18.63 11.55C18.81 11.38 19.09 11.20 19.33 11.10C19.97 10.87 20.51 11.16 20.75 11.83L21.85 14.81C22.01 15.29 22.53 15.46 22.97 15.30C23.38 15.15 23.65 14.70 23.47 14.22L22.60 11.79C22.78 11.61 23.05 11.43 23.30 11.33C23.94 11.10 24.47 11.39 24.72 12.06L25.46 14.05C25.62 14.53 26.13 14.71 26.56 14.55C26.99 14.40 27.25 13.93 27.08 13.47L26.55 11.99C27.69 11.58 28.77 12.51 29.52 14.56L30.37 16.90C32.24 22.07 30.54 26.00 25.99 27.66ZM9.12 6.88C5.10 9.31 2.43 13.86 2.43 19.47C2.43 19.96 2.86 20.38 3.32 20.37C3.80 20.36 4.14 19.99 4.16 19.50C4.28 14.59 6.38 10.73 9.73 8.56Z" />
</svg>