<svg xmlns="http://www.w3.org/2000/svg" viewBox="6.45 1.23 22.33 29.76" width="22.33" height="29.76" fill="currentColor">
  <path d="M16.12 30.99C20.92 30.99 24.31 28.40 26.13 23.27L28.53 16.50C28.70 16.04 28.78 15.59 28.78 15.18C28.78 13.73 27.69 12.71 26.29 12.71C25.35 12.71 24.50 13.28 24.04 14.36L23.15 16.54C23.12 16.60 23.08 16.64 23.02 16.64C22.96 16.64 22.93 16.58 22.93 16.52L22.93 5.55C22.93 3.95 21.93 2.94 20.40 2.94C19.84 2.94 19.33 3.14 18.95 3.50C18.77 2.09 17.87 1.23 16.52 1.23C15.19 1.23 14.26 2.12 14.05 3.47C13.71 3.13 13.22 2.94 12.73 2.94C11.31 2.94 10.36 3.94 10.36 5.46L10.36 6.97C9.99 6.59 9.43 6.38 8.86 6.38C7.44 6.38 6.45 7.42 6.45 8.97L6.45 20.71C6.45 27.11 10.34 30.99 16.12 30.99ZM16.05 29.11C11.21 29.11 8.26 25.99 8.26 20.49L8.26 9.16C8.26 8.57 8.63 8.18 9.20 8.18C9.76 8.18 10.17 8.57 10.17 9.16L10.17 16.15C10.17 16.65 10.58 16.99 11.02 16.99C11.48 16.99 11.91 16.65 11.91 16.15L11.91 5.70C11.91 5.11 12.28 4.70 12.84 4.70C13.41 4.70 13.81 5.11 13.81 5.70L13.81 15.45C13.81 15.96 14.22 16.30 14.67 16.30C15.13 16.30 15.54 15.96 15.54 15.45L15.54 4.01C15.54 3.42 15.94 2.99 16.52 2.99C17.06 2.99 17.46 3.42 17.46 4.01L17.46 15.45C17.46 15.93 17.84 16.30 18.32 16.30C18.79 16.30 19.20 15.93 19.20 15.45L19.20 5.70C19.20 5.11 19.59 4.70 20.15 4.70C20.71 4.70 21.11 5.11 21.11 5.70L21.11 19.15C21.11 19.84 21.51 20.23 22.08 20.23C22.57 20.23 22.98 20.02 23.30 19.33L25.27 14.94C25.53 14.36 26.03 14.15 26.51 14.33C27.04 14.52 27.21 15.03 26.96 15.70L24.46 22.68C22.79 27.34 19.87 29.11 16.05 29.11Z" />
</svg>