<svg xmlns="http://www.w3.org/2000/svg" viewBox="3.49 7.01 14.16 19.55" width="14.16" height="19.55" fill="currentColor">
  <path d="M4.58 26.56L13.22 26.56C13.86 26.56 14.33 26.17 14.33 25.53C14.33 24.91 13.88 24.51 13.23 24.51L10.17 24.51L13.49 9.06L16.56 9.06C17.20 9.06 17.65 8.67 17.65 8.03C17.65 7.41 17.21 7.01 16.57 7.01L7.89 7.01C7.25 7.01 6.81 7.41 6.81 8.03C6.81 8.67 7.26 9.06 7.90 9.06L10.96 9.06L7.64 24.51L4.57 24.51C3.92 24.51 3.49 24.91 3.49 25.53C3.49 26.17 3.94 26.56 4.58 26.56Z" />
</svg>