<svg xmlns="http://www.w3.org/2000/svg" viewBox="3.49 -0.33 18.28 34.07" width="18.28" height="34.07" fill="currentColor">
  <path d="M11.68 33.36C12.25 33.84 13.03 33.91 13.58 33.37L17.80 29.15C18.33 28.60 18.31 27.78 17.79 27.25L15.67 25.14L18.76 22.07C19.29 21.55 19.26 20.71 18.74 20.17L15.89 17.29C19.65 15.49 21.77 12.43 21.77 8.79C21.77 3.75 17.68-0.33 12.63-0.33C7.55-0.33 3.49 3.72 3.49 8.79C3.49 12.46 5.59 15.71 8.91 17.17L8.91 30.08C8.91 30.53 9.05 31.05 9.45 31.40ZM12.63 31.20L11.12 29.70L11.12 15.59C7.90 14.86 5.67 12.09 5.67 8.79C5.67 4.96 8.78 1.87 12.63 1.87C16.47 1.87 19.56 4.96 19.56 8.79C19.56 12.06 17.32 14.86 13.89 15.68L13.89 18.44L16.57 21.14L13.67 23.99L13.67 26.26L15.61 28.18ZM12.63 8.38C13.85 8.38 14.85 7.38 14.85 6.15C14.85 4.94 13.85 3.95 12.63 3.95C11.39 3.95 10.42 4.94 10.42 6.15C10.42 7.38 11.40 8.38 12.63 8.38Z" />
</svg>