<svg xmlns="http://www.w3.org/2000/svg" viewBox="2.45 2.84 27.89 27.89" width="27.89" height="27.89" fill="currentColor">
  <path d="M16.39 30.73C24.09 30.73 30.34 24.49 30.34 16.79C30.34 9.09 24.09 2.84 16.39 2.84C8.70 2.84 2.45 9.09 2.45 16.79C2.45 24.49 8.70 30.73 16.39 30.73ZM16.39 28.41C9.97 28.41 4.77 23.21 4.77 16.79C4.77 10.36 9.97 5.17 16.39 5.17C22.82 5.17 28.01 10.36 28.01 16.79C28.01 23.21 22.82 28.41 16.39 28.41ZM8.96 14.10L23.86 14.10C24.46 14.10 24.90 13.71 24.90 13.13C24.90 12.55 24.46 12.17 23.86 12.17L8.96 12.17C8.34 12.17 7.92 12.55 7.92 13.13C7.92 13.71 8.34 14.10 8.96 14.10ZM10.98 18.62L21.83 18.62C22.44 18.62 22.86 18.24 22.86 17.65C22.86 17.08 22.44 16.69 21.83 16.69L10.98 16.69C10.36 16.69 9.94 17.08 9.94 17.65C9.94 18.24 10.36 18.62 10.98 18.62ZM13.08 23.16L19.71 23.16C20.32 23.16 20.75 22.76 20.75 22.19C20.75 21.62 20.32 21.23 19.71 21.23L13.08 21.23C12.48 21.23 12.06 21.62 12.06 22.19C12.06 22.76 12.48 23.16 13.08 23.16Z" />
</svg>