<svg xmlns="http://www.w3.org/2000/svg" viewBox="3.13 2.15 28.99 29.06" width="28.99" height="29.06" fill="currentColor">
  <path d="M17.46 22.31L19.28 20.47C17.47 20.33 16.30 19.78 15.41 18.89C13.02 16.50 13.03 13.11 15.39 10.75L19.85 6.29C22.24 3.91 25.61 3.90 28 6.29C30.39 8.68 30.37 12.06 28 14.42L25.32 17.10C25.70 17.98 25.79 18.99 25.65 19.88L29.67 15.87C32.94 12.59 32.96 7.96 29.65 4.63C26.33 1.31 21.68 1.34 18.40 4.62L13.74 9.30C10.46 12.58 10.43 17.23 13.75 20.54C14.62 21.40 15.71 22.01 17.46 22.31ZM17.80 11.05L15.98 12.89C17.79 13.04 18.96 13.58 19.85 14.46C22.24 16.86 22.23 20.25 19.87 22.61L15.39 27.07C13.02 29.45 9.65 29.46 7.26 27.08C4.87 24.68 4.88 21.31 7.26 18.94L9.94 16.26C9.56 15.39 9.46 14.37 9.61 13.48L5.59 17.49C2.32 20.77 2.30 25.42 5.61 28.72C8.93 32.05 13.58 32.02 16.84 28.75L21.52 24.06C24.80 20.78 24.83 16.13 21.51 12.82C20.64 11.96 19.55 11.35 17.80 11.05Z" />
</svg>