<svg xmlns="http://www.w3.org/2000/svg" viewBox="3.13 2.34 26.06 29.3" width="26.06" height="29.3" fill="currentColor">
  <path d="M25.42 17.62L15.37 27.67C12.76 30.30 9.24 30.04 7 27.77C4.74 25.53 4.48 22.04 7.10 19.41L20.81 5.71C22.38 4.14 24.69 3.92 26.20 5.41C27.69 6.93 27.47 9.23 25.91 10.80L12.51 24.20C11.84 24.90 11.02 24.69 10.55 24.23C10.09 23.75 9.90 22.96 10.57 22.26L19.93 12.92C20.34 12.50 20.37 11.89 19.97 11.50C19.58 11.12 18.98 11.14 18.57 11.55L9.17 20.95C7.78 22.34 7.83 24.47 9.06 25.70C10.40 27.04 12.43 27.02 13.84 25.61L27.29 12.15C29.85 9.60 29.74 6.23 27.51 4.01C25.33 1.83 21.92 1.67 19.36 4.22L5.58 18.02C2.20 21.40 2.46 26.22 5.51 29.27C8.56 32.31 13.38 32.57 16.76 29.20L26.88 19.09C27.28 18.69 27.28 17.96 26.87 17.60C26.47 17.17 25.83 17.23 25.42 17.62Z" />
</svg>