<svg xmlns="http://www.w3.org/2000/svg" viewBox="2.09 3.27 28.64 28.64" width="28.64" height="28.64" fill="currentColor">
  <path d="M19.21 31.91C20.19 31.91 20.89 31.06 21.40 29.75L30.35 6.36C30.60 5.73 30.73 5.17 30.73 4.70C30.73 3.81 30.19 3.27 29.30 3.27C28.83 3.27 28.27 3.40 27.64 3.65L4.13 12.66C2.98 13.10 2.09 13.79 2.09 14.79C2.09 16.05 3.05 16.47 4.36 16.87L14.23 19.77L17.10 29.52C17.51 30.90 17.94 31.91 19.21 31.91ZM14.85 17.69L5.41 14.81C5.20 14.74 5.13 14.68 5.13 14.59C5.13 14.49 5.18 14.42 5.39 14.34L23.87 7.34C24.96 6.93 26.02 6.38 27.03 5.92C26.13 6.66 25.01 7.53 24.25 8.29ZM19.43 28.90C19.32 28.90 19.26 28.81 19.20 28.59L16.31 19.15L25.72 9.75C26.46 9.01 27.37 7.86 28.10 6.93C27.63 7.97 27.07 9.02 26.66 10.13L19.66 28.62C19.58 28.82 19.52 28.90 19.43 28.90Z" />
</svg>