<svg xmlns="http://www.w3.org/2000/svg" viewBox="3.49 -0.34 34.63 33.62" width="34.63" height="33.62" fill="currentColor">
  <path d="M15.76 2.65C16.58 2.65 17.27 1.98 17.27 1.15C17.27 0.33 16.58-0.34 15.76-0.34C14.92-0.34 14.26 0.33 14.26 1.15C14.26 1.98 14.92 2.65 15.76 2.65ZM24.21 5.02C25.65 5.02 26.78 3.87 26.78 2.45C26.78 1.00 25.65-0.12 24.21-0.12C22.78-0.12 21.64 1.00 21.64 2.45C21.64 3.87 22.78 5.02 24.21 5.02ZM35.19 3.29C35.85 3.29 36.38 2.76 36.38 2.09C36.38 1.42 35.85 0.88 35.19 0.88C34.52 0.88 33.99 1.42 33.99 2.09C33.99 2.76 34.52 3.29 35.19 3.29ZM31.42 4.32L28.86 6.88C28.51 7.25 28.51 7.85 28.86 8.22C29.24 8.59 29.85 8.59 30.21 8.22L32.77 5.67C33.13 5.30 33.13 4.69 32.77 4.32C32.40 3.96 31.79 3.96 31.42 4.32ZM25.18 25.36C26.95 24.62 27.10 22.89 26.43 20.95C28.26 20.90 30.08 21.05 31.87 21.40C32.39 21.51 32.83 21 32.84 20.48C32.85 19.95 32.42 19.62 31.92 19.52C29.80 19.11 27.71 18.98 25.61 19.09C24.90 17.79 23.95 16.49 23.00 15.44L27.69 10.75C28.03 10.39 28.04 9.78 27.69 9.41C27.33 9.04 26.70 9.06 26.35 9.41L21.66 14.10C20.58 13.11 19.29 12.14 18.01 11.43C18.10 9.35 17.96 7.29 17.57 5.21C17.47 4.70 17.14 4.28 16.61 4.28C16.11 4.29 15.59 4.72 15.70 5.26C16.04 7.01 16.19 8.80 16.16 10.60C14.31 9.98 12.66 10.20 11.83 12.02L3.72 29.98C2.82 31.99 4.69 33.92 6.71 33.07ZM21.62 9.32C22.29 9.32 22.82 8.78 22.82 8.11C22.82 7.45 22.29 6.90 21.62 6.90C20.96 6.90 20.40 7.45 20.40 8.11C20.40 8.78 20.96 9.32 21.62 9.32ZM30.73 16.26C31.95 16.26 32.92 15.31 32.92 14.10C32.92 12.89 31.95 11.92 30.73 11.92C29.53 11.92 28.59 12.89 28.59 14.10C28.59 15.31 29.53 16.26 30.73 16.26ZM13.75 12.43C14.15 12.02 14.97 12.06 16.05 12.50C15.97 13.34 15.85 14.21 15.70 15.05C15.57 15.59 16.11 16.00 16.60 16.01C17.12 16.01 17.46 15.60 17.55 15.09C17.66 14.55 17.75 14 17.81 13.47C18.61 13.97 19.44 14.63 20.30 15.44L19.37 16.37C19.02 16.73 19.02 17.35 19.37 17.72C19.74 18.07 20.36 18.07 20.73 17.72L21.66 16.78C22.48 17.64 23.13 18.48 23.67 19.26C23.12 19.35 22.57 19.43 22.03 19.52C21.53 19.63 21.11 19.97 21.12 20.48C21.12 20.99 21.53 21.52 22.08 21.41C22.93 21.25 23.79 21.12 24.64 21.05C25.12 22.18 25.17 23.04 24.76 23.43C23.84 24.36 20.73 23.02 17.45 19.73C14.16 16.46 12.84 13.33 13.75 12.43ZM36.61 15.70C37.45 15.70 38.12 15.03 38.12 14.18C38.12 13.36 37.45 12.69 36.61 12.69C35.77 12.69 35.11 13.36 35.11 14.18C35.11 15.03 35.77 15.70 36.61 15.70ZM5.44 30.72L12.26 15.59C12.95 17.32 14.33 19.29 16.11 21.08C17.86 22.82 19.77 24.17 21.48 24.87L5.99 31.31C5.52 31.50 5.22 31.21 5.44 30.72ZM36.09 22.70C36.93 22.70 37.60 22.04 37.60 21.19C37.60 20.36 36.93 19.69 36.09 19.69C35.26 19.69 34.59 20.36 34.59 21.19C34.59 22.04 35.26 22.70 36.09 22.70Z" />
</svg>