<svg xmlns="http://www.w3.org/2000/svg" viewBox="3.49 5.56 48.52 22.45" width="48.52" height="22.45" fill="currentColor">
  <path d="M13.62 16.79C16.49 16.79 18.87 14.23 18.87 11.10C18.87 8.01 16.52 5.56 13.62 5.56C10.73 5.56 8.38 8.05 8.38 11.12C8.38 14.25 10.75 16.79 13.62 16.79ZM41.90 16.86C44.78 16.86 47.14 14.30 47.14 11.17C47.14 8.08 44.80 5.63 41.90 5.63C39.02 5.63 36.65 8.12 36.65 11.18C36.65 14.31 39.02 16.86 41.90 16.86ZM13.62 14.72C11.95 14.72 10.57 13.17 10.57 11.12C10.57 9.13 11.92 7.63 13.62 7.63C15.31 7.63 16.68 9.11 16.68 11.10C16.68 13.14 15.30 14.72 13.62 14.72ZM41.90 14.79C40.22 14.79 38.84 13.23 38.84 11.18C38.84 9.20 40.21 7.70 41.90 7.70C43.59 7.70 44.95 9.17 44.95 11.17C44.95 13.21 43.59 14.79 41.90 14.79ZM23.21 16.91C23.86 16.91 24.39 16.38 24.39 15.74C24.39 15.09 23.86 14.56 23.21 14.56C22.57 14.56 22.04 15.09 22.04 15.74C22.04 16.38 22.57 16.91 23.21 16.91ZM27.75 16.91C28.40 16.91 28.93 16.38 28.93 15.74C28.93 15.09 28.40 14.56 27.75 14.56C27.11 14.56 26.58 15.09 26.58 15.74C26.58 16.38 27.11 16.91 27.75 16.91ZM32.27 16.91C32.91 16.91 33.44 16.38 33.44 15.74C33.44 15.09 32.91 14.56 32.27 14.56C31.62 14.56 31.09 15.09 31.09 15.74C31.09 16.38 31.62 16.91 32.27 16.91ZM6.49 27.95L20.73 27.95C22.71 27.95 23.73 27.30 23.73 25.91C23.73 22.76 20.08 18.20 13.60 18.20C7.14 18.20 3.49 22.76 3.49 25.91C3.49 27.30 4.50 27.95 6.49 27.95ZM34.78 28.01L49 28.01C51.00 28.01 52.01 27.37 52.01 25.98C52.01 22.83 48.37 18.27 41.89 18.27C35.41 18.27 31.77 22.83 31.77 25.98C31.77 27.37 32.79 28.01 34.78 28.01ZM5.96 25.88C5.76 25.88 5.67 25.80 5.67 25.63C5.67 23.83 8.26 20.26 13.60 20.26C18.95 20.26 21.53 23.83 21.53 25.63C21.53 25.80 21.45 25.88 21.26 25.88ZM34.25 25.95C34.04 25.95 33.96 25.87 33.96 25.70C33.96 23.90 36.54 20.33 41.89 20.33C47.24 20.33 49.82 23.90 49.82 25.70C49.82 25.87 49.74 25.95 49.53 25.95Z" />
</svg>