<svg xmlns="http://www.w3.org/2000/svg" viewBox="3.49 4.5 33.47 24.58" width="33.47" height="24.58" fill="currentColor">
  <path d="M15.00 16.42C17.92 16.42 20.47 13.79 20.47 10.38C20.47 7 17.92 4.50 15.00 4.50C12.07 4.50 9.53 7.05 9.53 10.40C9.53 13.79 12.06 16.42 15.00 16.42ZM29.27 17.23C29.74 17.23 30.11 17.01 30.38 16.60L36.63 6.75C36.79 6.49 36.96 6.18 36.96 5.88C36.96 5.28 36.41 4.88 35.85 4.88C35.49 4.88 35.15 5.09 34.90 5.50L29.22 14.59L26.52 11.12C26.21 10.68 25.89 10.55 25.53 10.55C24.92 10.55 24.46 11.03 24.46 11.65C24.46 11.94 24.58 12.24 24.77 12.50L28.11 16.60C28.46 17.04 28.82 17.23 29.27 17.23ZM5.82 29.08L24.16 29.08C25.62 29.08 26.50 28.40 26.50 27.26C26.50 23.73 22.08 18.87 14.98 18.87C7.90 18.87 3.49 23.73 3.49 27.26C3.49 28.40 4.36 29.08 5.82 29.08Z" />
</svg>