<svg xmlns="http://www.w3.org/2000/svg" viewBox="2.45 2.57 39.28 27.44" width="39.28" height="27.44" fill="currentColor">
  <path d="M33.65 29.71C34.06 30.12 34.73 30.12 35.12 29.71C35.53 29.30 35.55 28.63 35.12 28.22L9.79 2.88C9.38 2.47 8.70 2.46 8.29 2.88C7.89 3.28 7.89 3.96 8.29 4.38ZM28.53 19.36C29.93 17.99 30.76 16.02 30.76 13.67C30.76 8.98 27.45 5.73 22.82 5.73L14.89 5.73L17.09 7.93L22.67 7.93C26.02 7.93 28.42 10.31 28.42 13.67C28.42 15.31 27.84 16.71 26.87 17.71ZM10.39 21.63L11.50 21.63C11.42 20.92 11.35 20.14 11.44 19.43L10.54 19.43C7.18 19.43 4.79 17.06 4.79 13.67C4.79 10.62 6.78 8.37 9.67 8.01L7.81 6.15C4.58 7.10 2.45 9.93 2.45 13.67C2.45 18.38 5.76 21.63 10.39 21.63ZM21.25 12.09L23.45 14.29L26.30 14.29C26.50 13.75 26.43 12.71 25.99 12.09ZM36.63 27.48C39.69 26.44 41.73 23.73 41.73 20.03C41.73 15.34 38.42 12.09 33.78 12.09L32.66 12.09C32.74 12.78 32.81 13.58 32.73 14.29L33.62 14.29C36.98 14.29 39.39 16.65 39.39 20.03C39.39 22.98 37.54 25.18 34.84 25.66ZM21.36 27.99L29.67 27.99L27.47 25.79L21.51 25.79C18.16 25.79 15.75 23.41 15.75 20.03C15.75 18.29 16.41 16.82 17.50 15.83L15.82 14.18C14.30 15.56 13.41 17.61 13.41 20.03C13.41 24.73 16.71 27.99 21.36 27.99ZM18.17 21.63L23.31 21.63L21.11 19.43L17.87 19.43C17.68 19.96 17.75 21 18.17 21.63Z" />
</svg>