<svg xmlns="http://www.w3.org/2000/svg" viewBox="3.49 5.3 20.41 22.97" width="20.41" height="22.97" fill="currentColor">
  <path d="M3.49 26.28C3.49 27.63 4.27 28.27 5.20 28.27C5.61 28.27 6.03 28.14 6.45 27.92L22.38 18.61C23.52 17.95 23.90 17.50 23.90 16.79C23.90 16.06 23.52 15.63 22.38 14.97L6.45 5.66C6.03 5.43 5.61 5.30 5.20 5.30C4.27 5.30 3.49 5.95 3.49 7.30ZM5.69 25.31L5.69 8.27C5.69 8.03 5.91 7.92 6.11 8.04L20.73 16.57C20.82 16.61 20.88 16.71 20.88 16.79C20.88 16.87 20.82 16.95 20.73 17.01L6.11 25.54C5.91 25.66 5.69 25.55 5.69 25.31Z" />
</svg>