<svg xmlns="http://www.w3.org/2000/svg" viewBox="3.49 4.21 25.17 25.17" width="25.17" height="25.17" fill="currentColor">
  <path d="M7.78 29.38L24.36 29.38C27.23 29.38 28.66 27.97 28.66 25.16L28.66 8.45C28.66 5.63 27.23 4.21 24.36 4.21L7.78 4.21C4.92 4.21 3.49 5.63 3.49 8.45L3.49 25.16C3.49 27.97 4.92 29.38 7.78 29.38ZM7.81 27.18C6.44 27.18 5.69 26.46 5.69 25.03L5.69 8.57C5.69 7.15 6.44 6.41 7.81 6.41L24.34 6.41C25.69 6.41 26.46 7.15 26.46 8.57L26.46 25.03C26.46 26.46 25.69 27.18 24.34 27.18ZM13.54 22.13L21.31 17.53C21.89 17.20 21.88 16.41 21.31 16.06L13.54 11.46C12.95 11.12 12.17 11.38 12.17 12.04L12.17 21.55C12.17 22.20 12.89 22.52 13.54 22.13Z" />
</svg>