<svg xmlns="http://www.w3.org/2000/svg" viewBox="3.49 5.51 22.56 22.56" width="22.56" height="22.56" fill="currentColor">
  <path d="M4.70 18.01L13.55 18.01L13.55 26.85C13.55 27.51 14.10 28.07 14.77 28.07C15.44 28.07 16.00 27.51 16.00 26.85L16.00 18.01L24.83 18.01C25.48 18.01 26.04 17.46 26.04 16.79C26.04 16.12 25.48 15.56 24.83 15.56L16.00 15.56L16.00 6.73C16.00 6.07 15.44 5.51 14.77 5.51C14.10 5.51 13.55 6.07 13.55 6.73L13.55 15.56L4.70 15.56C4.05 15.56 3.49 16.12 3.49 16.79C3.49 17.46 4.05 18.01 4.70 18.01Z" />
</svg>