<svg xmlns="http://www.w3.org/2000/svg" viewBox="3.49 2.13 31.75 29.31" width="31.75" height="29.31" fill="currentColor">
  <path d="M9.20 31.45L20.77 31.45C24.45 31.45 26.48 29.41 26.48 25.73L26.48 20.44L24.28 20.44L24.28 25.73C24.28 27.99 23.01 29.24 20.77 29.24L9.20 29.24C6.96 29.24 5.69 27.99 5.69 25.73L5.69 7.85C5.69 5.61 6.96 4.33 9.20 4.33L20.77 4.33C23.01 4.33 24.28 5.61 24.28 7.85L24.28 13.14L26.48 13.14L26.48 7.86C26.48 4.18 24.45 2.13 20.77 2.13L9.20 2.13C5.54 2.13 3.49 4.18 3.49 7.86L3.49 25.73C3.49 29.41 5.54 31.45 9.20 31.45ZM15.23 16.79C15.23 17.38 15.71 17.87 16.28 17.87L30.19 17.87L32.25 17.77L31.43 18.55L29.18 20.67C28.96 20.86 28.85 21.15 28.85 21.41C28.85 21.97 29.26 22.41 29.80 22.41C30.11 22.41 30.32 22.29 30.53 22.08L34.88 17.58C35.15 17.31 35.23 17.06 35.23 16.79C35.23 16.50 35.15 16.27 34.88 16.00L30.53 11.48C30.32 11.28 30.11 11.17 29.80 11.17C29.26 11.17 28.85 11.58 28.85 12.15C28.85 12.41 28.96 12.71 29.18 12.91L31.43 15.01L32.25 15.79L30.19 15.70L16.28 15.70C15.71 15.70 15.23 16.20 15.23 16.79Z" />
</svg>