<svg xmlns="http://www.w3.org/2000/svg" viewBox="3.49 4.65 29.18 24.32" width="29.18" height="24.32" fill="currentColor">
  <path d="M4.63 17.29C5.29 17.29 5.80 16.79 5.80 16.13L5.80 14.83C5.80 12.50 7.41 10.95 9.88 10.95L20.55 10.95L20.55 14.16C20.55 14.71 20.86 15.03 21.42 15.03C21.68 15.03 21.93 14.93 22.13 14.77L27.30 10.49C27.74 10.13 27.77 9.57 27.30 9.19L22.13 4.89C21.93 4.73 21.68 4.65 21.42 4.65C20.86 4.65 20.55 4.95 20.55 5.51L20.55 8.68L10.10 8.68C6.04 8.68 3.49 10.98 3.49 14.67L3.49 16.13C3.49 16.79 3.99 17.29 4.63 17.29ZM15.60 28.11L15.60 24.94L26.04 24.94C30.12 24.94 32.66 22.63 32.66 18.95L32.66 17.49C32.66 16.83 32.17 16.32 31.51 16.32C30.86 16.32 30.37 16.83 30.37 17.49L30.37 18.79C30.37 21.12 28.74 22.65 26.26 22.65L15.60 22.65L15.60 19.46C15.60 18.89 15.29 18.59 14.72 18.59C14.46 18.59 14.22 18.68 14.01 18.84L8.85 23.12C8.42 23.49 8.39 24.05 8.85 24.42L14.01 28.71C14.22 28.88 14.46 28.97 14.72 28.97C15.29 28.97 15.60 28.66 15.60 28.11Z" />
</svg>