<svg xmlns="http://www.w3.org/2000/svg" viewBox="3.49 -0.63 22.33 35.57" width="22.33" height="35.57" fill="currentColor">
  <path d="M8.75 26.82L22.33 26.82L22.33 30.43C21.56 30.83 21.03 31.64 21.03 32.55C21.03 33.88 22.11 34.95 23.42 34.95C24.75 34.95 25.81 33.88 25.81 32.55C25.81 31.64 25.29 30.83 24.53 30.43L24.53 11.24C24.53 8.74 23.24 7.49 20.73 7.49L7 7.49L7 3.87C7.75 3.47 8.27 2.68 8.27 1.76C8.27 0.45 7.21-0.63 5.88-0.63C4.57-0.63 3.49 0.45 3.49 1.76C3.49 2.69 4.02 3.50 4.80 3.90L4.80 22.94C4.80 25.53 6.13 26.82 8.75 26.82ZM8.71 24.76C7.57 24.76 7 24.13 7 23.04L7 9.56L20.62 9.56C21.75 9.56 22.33 10.19 22.33 11.28L22.33 24.76Z" />
</svg>