<svg xmlns="http://www.w3.org/2000/svg" viewBox="3.49 4.2 41.08 30.11" width="41.08" height="30.11" fill="currentColor">
  <path d="M4.58 29.30L13.49 29.30C13.41 29.72 13.37 30.13 13.37 30.53C13.37 32.73 14.62 34.30 17.19 34.30C20.11 34.30 22.52 32.39 24.16 29.30L43.46 29.30C44.06 29.30 44.57 28.79 44.57 28.19C44.57 27.59 44.06 27.10 43.46 27.10L25.13 27.10C25.95 24.81 26.44 22.11 26.54 19.17C27.40 18.98 28.30 18.88 29.23 18.88C29.71 18.88 29.98 19.09 29.98 19.44C29.98 20.63 29.34 21.56 29.34 22.75C29.34 23.79 30.09 24.42 31.10 24.42C33.88 24.42 37.21 19.67 38.34 19.67C39.35 19.67 38.09 23.94 41.52 23.94C42.10 23.94 42.82 23.79 43.38 23.42C43.71 23.20 43.94 22.87 43.94 22.45C43.94 21.93 43.60 21.51 43.07 21.51C42.59 21.51 42.19 21.90 41.73 21.90C40.25 21.90 41.66 17.36 38.94 17.36C36.54 17.36 32.84 21.98 31.88 21.98C31.77 21.98 31.68 21.92 31.68 21.75C31.68 21.26 32.28 20.14 32.28 19.04C32.28 17.68 31.14 16.80 29.38 16.80C28.40 16.80 27.45 16.90 26.54 17.08C26.24 9.86 22.82 4.20 17.60 4.20C14.08 4.20 11.36 7.19 11.36 11.01C11.36 15.46 14.27 19.28 17.88 21.81C16.21 23.45 14.93 25.32 14.18 27.10L4.58 27.10C3.98 27.10 3.49 27.59 3.49 28.19C3.49 28.79 3.98 29.30 4.58 29.30ZM13.45 11.01C13.45 8.34 15.26 6.28 17.60 6.28C21.70 6.28 24.35 11.38 24.47 17.64C22.59 18.29 20.86 19.29 19.37 20.48C16.52 18.51 13.45 15.26 13.45 11.01ZM4.20 23.97C4.55 24.32 5.09 24.31 5.44 23.97L7.16 22.26L8.87 23.97C9.23 24.32 9.76 24.32 10.12 23.97C10.49 23.61 10.49 23.06 10.12 22.71L8.41 21.01L10.12 19.30C10.49 18.95 10.49 18.42 10.12 18.06C9.76 17.69 9.23 17.71 8.87 18.06L7.16 19.76L5.44 18.06C5.09 17.69 4.55 17.69 4.20 18.06C3.83 18.42 3.83 18.96 4.20 19.30L5.91 21.01L4.20 22.71C3.83 23.08 3.83 23.61 4.20 23.97ZM20.85 23.53C21.04 23.61 21.21 23.65 21.37 23.65C21.92 23.65 22.33 23.21 22.33 22.74C22.33 22.41 22.15 22.08 21.75 21.89C21.57 21.79 21.37 21.70 21.18 21.59C22.16 20.89 23.24 20.28 24.42 19.81C24.27 22.54 23.72 25.06 22.90 27.10L16.37 27.10C17.06 25.69 18.17 24.20 19.59 22.87C20.02 23.11 20.44 23.32 20.85 23.53ZM15.50 30.13C15.50 29.87 15.53 29.59 15.59 29.30L21.77 29.30C20.59 31.13 19.10 32.22 17.43 32.22C16.12 32.22 15.50 31.36 15.50 30.13Z" />
</svg>