<svg xmlns="http://www.w3.org/2000/svg" viewBox="2.45 1.39 30.83 30.83" width="30.83" height="30.83" fill="currentColor">
  <path d="M17.86 1.39C17.31 1.39 16.88 1.83 16.88 2.38L16.88 7.23C16.88 7.78 17.31 8.22 17.86 8.22C18.42 8.22 18.84 7.78 18.84 7.23L18.84 2.38C18.84 1.83 18.42 1.39 17.86 1.39ZM10.16 3.45C9.67 3.73 9.53 4.32 9.80 4.80L12.22 9.01C12.51 9.49 13.08 9.65 13.56 9.37C14.05 9.09 14.19 8.50 13.93 8.04L11.50 3.81C11.21 3.35 10.64 3.19 10.16 3.45ZM25.58 3.46C25.09 3.19 24.51 3.35 24.23 3.81L21.81 8.04C21.53 8.50 21.67 9.09 22.16 9.38C22.64 9.64 23.21 9.49 23.50 9.01L25.94 4.80C26.20 4.32 26.06 3.73 25.58 3.46ZM4.53 9.09C4.24 9.58 4.40 10.16 4.88 10.45L9.09 12.88C9.57 13.14 10.14 13.00 10.43 12.52C10.69 12.03 10.54 11.46 10.06 11.17L5.85 8.74C5.37 8.48 4.79 8.61 4.53 9.09ZM31.23 9.11C30.94 8.61 30.35 8.48 29.87 8.74L25.66 11.17C25.18 11.46 25.02 12.03 25.32 12.52C25.58 12.99 26.17 13.14 26.63 12.88L30.86 10.45C31.32 10.16 31.49 9.58 31.23 9.11ZM33.28 16.80C33.28 16.26 32.85 15.83 32.29 15.83L27.44 15.83C26.89 15.83 26.46 16.26 26.46 16.80C26.46 17.36 26.89 17.79 27.44 17.79L32.29 17.79C32.85 17.79 33.28 17.36 33.28 16.80ZM2.45 16.80C2.45 17.36 2.88 17.79 3.43 17.79L8.29 17.79C8.85 17.79 9.27 17.36 9.27 16.80C9.27 16.26 8.85 15.83 8.29 15.83L3.43 15.83C2.88 15.83 2.45 16.26 2.45 16.80ZM31.21 24.51C31.50 24.04 31.32 23.46 30.86 23.17L26.63 20.74C26.17 20.48 25.58 20.62 25.31 21.10C25.03 21.59 25.18 22.16 25.66 22.45L29.87 24.88C30.35 25.14 30.94 25.01 31.21 24.51ZM4.53 24.51C4.79 25.01 5.37 25.14 5.85 24.88L10.06 22.45C10.54 22.16 10.71 21.59 10.43 21.11C10.14 20.62 9.57 20.48 9.09 20.74L4.88 23.17C4.40 23.46 4.24 24.04 4.53 24.51ZM25.57 30.16C26.06 29.89 26.20 29.30 25.94 28.82L23.50 24.61C23.23 24.13 22.64 23.97 22.16 24.24C21.67 24.53 21.53 25.10 21.81 25.58L24.23 29.79C24.51 30.27 25.09 30.43 25.57 30.16ZM10.16 30.16C10.64 30.43 11.21 30.27 11.50 29.79L13.93 25.58C14.19 25.10 14.05 24.53 13.58 24.25C13.08 23.98 12.51 24.13 12.22 24.61L9.80 28.82C9.53 29.30 9.67 29.89 10.16 30.16ZM17.86 32.22C18.42 32.22 18.84 31.79 18.84 31.24L18.84 26.39C18.84 25.84 18.42 25.40 17.86 25.40C17.31 25.40 16.88 25.84 16.88 26.39L16.88 31.24C16.88 31.79 17.31 32.22 17.86 32.22Z" />
</svg>