<svg xmlns="http://www.w3.org/2000/svg" viewBox="2.79 -0.05 25.29 31.19" width="25.29" height="31.19" fill="currentColor">
  <path d="M14.67 6.60C14.85 6.60 14.94 6.49 14.97 6.33C15.38 4.12 15.34 4.01 17.72 3.58C17.88 3.54 17.99 3.45 17.99 3.27C17.99 3.10 17.88 2.99 17.72 2.97C15.34 2.54 15.38 2.43 14.97 0.22C14.94 0.05 14.85-0.05 14.67-0.05C14.49-0.05 14.40 0.05 14.37 0.22C13.96 2.43 14 2.54 11.62 2.97C11.44 2.99 11.35 3.10 11.35 3.27C11.35 3.45 11.44 3.54 11.62 3.58C14 4.01 13.96 4.12 14.37 6.33C14.40 6.49 14.49 6.60 14.67 6.60ZM8.05 16.01C8.31 16.01 8.49 15.83 8.52 15.59C9.01 11.94 9.13 11.94 12.91 11.21C13.14 11.17 13.32 11.01 13.32 10.75C13.32 10.50 13.14 10.32 12.91 10.29C9.13 9.76 9.00 9.64 8.52 5.93C8.49 5.67 8.31 5.50 8.05 5.50C7.81 5.50 7.63 5.67 7.59 5.95C7.15 9.60 6.95 9.58 3.20 10.29C2.97 10.34 2.79 10.50 2.79 10.75C2.79 11.02 2.97 11.17 3.25 11.21C6.97 11.81 7.15 11.91 7.59 15.56C7.63 15.83 7.81 16.01 8.05 16.01ZM17.32 31.13C17.68 31.13 17.94 30.87 18.01 30.50C18.98 23.02 20.03 21.88 27.44 21.05C27.82 21.01 28.08 20.74 28.08 20.37C28.08 20.02 27.82 19.74 27.44 19.70C20.03 18.88 18.98 17.73 18.01 10.24C17.94 9.87 17.68 9.63 17.32 9.63C16.97 9.63 16.71 9.87 16.65 10.24C15.68 17.73 14.62 18.88 7.22 19.70C6.82 19.74 6.56 20.02 6.56 20.37C6.56 20.74 6.82 21.01 7.22 21.05C14.60 22.03 15.63 23.02 16.65 30.50C16.71 30.87 16.97 31.13 17.32 31.13Z" />
</svg>