<svg xmlns="http://www.w3.org/2000/svg" viewBox="3.49 2.49 28.93 28.64" width="28.93" height="28.64" fill="currentColor">
  <path d="M7.78 24.80L10.12 24.80L10.12 26.89C10.12 29.71 11.54 31.13 14.41 31.13L28.14 31.13C30.98 31.13 32.42 29.71 32.42 26.89L32.42 13.06C32.42 10.24 30.98 8.82 28.14 8.82L25.79 8.82L25.79 6.73C25.79 3.91 24.35 2.49 21.51 2.49L7.78 2.49C4.91 2.49 3.49 3.91 3.49 6.73L3.49 20.56C3.49 23.38 4.91 24.80 7.78 24.80ZM7.81 22.60C6.44 22.60 5.69 21.86 5.69 20.44L5.69 6.85C5.69 5.43 6.44 4.69 7.81 4.69L21.46 4.69C22.82 4.69 23.58 5.43 23.58 6.85L23.58 8.82L14.41 8.82C11.54 8.82 10.12 10.23 10.12 13.06L10.12 22.60ZM14.44 28.93C13.08 28.93 12.32 28.19 12.32 26.77L12.32 13.18C12.32 11.76 13.08 11.02 14.44 11.02L28.10 11.02C29.45 11.02 30.21 11.76 30.21 13.18L30.21 26.77C30.21 28.19 29.45 28.93 28.10 28.93Z" />
</svg>