<svg xmlns="http://www.w3.org/2000/svg" viewBox="3.49 6.69 16.6 20.19" width="16.6" height="20.19" fill="currentColor">
  <path d="M4.63 26.88C5.36 26.88 5.71 26.61 5.97 25.84L7.71 21.01L15.83 21.01L17.57 25.84C17.83 26.61 18.18 26.88 18.89 26.88C19.62 26.88 20.08 26.44 20.08 25.76C20.08 25.53 20.04 25.31 19.93 25.02L13.52 7.94C13.21 7.11 12.65 6.69 11.77 6.69C10.92 6.69 10.35 7.10 10.05 7.93L3.64 25.03C3.53 25.32 3.49 25.54 3.49 25.77C3.49 26.46 3.92 26.88 4.63 26.88ZM11.73 9.73L11.80 9.73L15.11 18.96L8.44 18.96Z" />
</svg>