<svg width="143" height="50" viewBox="0 0 143 50" fill="none" xmlns="http://www.w3.org/2000/svg">
<path d="M17.1676 35.0083C16.0239 35.0083 14.8194 34.7691 13.554 34.2905C12.2968 33.8119 11.0193 33.1306 9.72144 32.2464C8.43174 31.3623 7.17042 30.3038 5.9375 29.0708C4.69647 27.8298 3.63388 26.5604 2.74974 25.2626C1.86561 23.9648 1.18426 22.6832 0.705687 21.4178C0.235229 20.1524 0 18.9479 0 17.8042C0 17.1715 0.0648907 16.5875 0.194672 16.0521C0.324454 15.5168 0.523181 15.022 0.790856 14.5678C1.06664 14.1135 1.41948 13.6877 1.84939 13.2902C1.88994 13.2497 1.9305 13.2132 1.97106 13.1807C2.01161 13.1402 2.04811 13.1037 2.08056 13.0712C2.86736 12.3412 3.62982 11.9843 4.36796 12.0005C4.74919 12.0005 5.12231 12.11 5.48732 12.329C5.86044 12.548 6.20517 12.8928 6.52152 13.3632L8.90625 16.8187C9.17392 17.208 9.29559 17.6176 9.27126 18.0475C9.24693 18.4774 9.11714 18.8789 8.88192 19.2521L7.76255 21.0163C7.56788 21.3245 7.55166 21.6287 7.71388 21.9288C7.90044 22.2533 8.19651 22.6751 8.60207 23.1942C9.01575 23.7052 9.49432 24.2365 10.0378 24.7881C10.4028 25.145 10.7678 25.4856 11.1328 25.8101C11.4978 26.1264 11.8344 26.4063 12.1427 26.6496C12.459 26.8848 12.7064 27.0592 12.8849 27.1728C13.0876 27.2945 13.2783 27.3593 13.4567 27.3675C13.6433 27.3675 13.8379 27.3188 14.0407 27.2215L15.9509 26.2968C16.4863 26.0372 16.9649 25.9236 17.3867 25.9561C17.8084 25.9804 18.2343 26.1386 18.6642 26.4306L21.6451 28.4747C22.1156 28.791 22.4603 29.1357 22.6793 29.5089C22.8983 29.8739 23.0078 30.251 23.0078 30.6404C23.0078 31.0054 22.9186 31.3785 22.7401 31.7597C22.5698 32.141 22.3021 32.5263 21.9371 32.9156C21.8966 32.9562 21.8601 32.9927 21.8276 33.0251C21.7952 33.0657 21.7627 33.1062 21.7303 33.1468C21.1138 33.8038 20.4406 34.2783 19.7106 34.5703C18.9805 34.8623 18.1329 35.0083 17.1676 35.0083ZM17.1676 33.5848C17.8571 33.5686 18.4979 33.4429 19.09 33.2076C19.6822 32.9724 20.2094 32.6074 20.6717 32.1126C20.6961 32.0801 20.7164 32.0518 20.7326 32.0274C20.7569 32.0031 20.7853 31.9747 20.8178 31.9423C21.2314 31.4961 21.4383 31.0622 21.4383 30.6404C21.4383 30.4376 21.3937 30.2551 21.3044 30.0929C21.2152 29.9306 21.0733 29.7846 20.8786 29.6549L18.0315 27.7325C17.8044 27.5865 17.5813 27.5013 17.3623 27.477C17.1433 27.4526 16.9 27.5013 16.6323 27.623L14.5517 28.6207C14.0975 28.8397 13.696 28.9329 13.3472 28.9005C12.9984 28.8681 12.6618 28.7383 12.3373 28.5112C12.0697 28.3327 11.7493 28.1015 11.3762 27.8176C11.0111 27.5256 10.6259 27.2012 10.2203 26.8443C9.81472 26.4874 9.42943 26.1264 9.06442 25.7614C8.51285 25.2017 7.99778 24.6258 7.51921 24.0337C7.04875 23.4335 6.66752 22.9224 6.37551 22.5007C6.15651 22.1762 6.03484 21.8558 6.0105 21.5395C5.98617 21.2231 6.08756 20.8865 6.31468 20.5296L7.54355 18.5829C7.795 18.1611 7.81122 17.788 7.59221 17.4635L5.35348 14.1298C5.10203 13.7566 4.77758 13.5701 4.38012 13.5701C4.17734 13.5701 3.96239 13.6228 3.73527 13.7282C3.51627 13.8256 3.2932 13.9797 3.06609 14.1906C3.04175 14.2149 3.01336 14.2393 2.98092 14.2636C2.95658 14.2879 2.92819 14.3123 2.89575 14.3366C2.40096 14.7989 2.03189 15.3221 1.78855 15.9061C1.55332 16.4902 1.43165 17.1188 1.42354 17.792C1.40732 18.8303 1.64255 19.9415 2.12923 21.1258C2.61591 22.31 3.28104 23.5024 4.12462 24.7029C4.97631 25.8953 5.9375 27.0268 7.0082 28.0975C8.07078 29.1601 9.19015 30.105 10.3663 30.9324C11.5424 31.7597 12.7105 32.4087 13.8704 32.8791C15.0384 33.3577 16.1375 33.5929 17.1676 33.5848Z" fill="#C4C4C4" style="fill:#C4C4C4;fill:color(display-p3 0.7686 0.7686 0.7686);fill-opacity:1;"/>
<path d="M35.4203 19.6098V30.8491H33.7457V21.3146H33.6703L31 23.0722V21.4428L33.791 19.6098H35.4203Z" fill="#717580" style="fill:#717580;fill:color(display-p3 0.4431 0.4588 0.5020);fill-opacity:1;"/>
<path d="M44.3061 31C43.5216 31 42.8277 30.8642 42.2242 30.5927C41.6258 30.3211 41.1556 29.949 40.8136 29.4763C40.4767 28.9986 40.3082 28.4554 40.3082 27.847C40.3082 27.3793 40.4063 26.9443 40.6024 26.542C40.8036 26.1397 41.0751 25.8053 41.4171 25.5388C41.759 25.2722 42.1437 25.1013 42.5712 25.0258V24.9579C42.013 24.8222 41.5629 24.523 41.221 24.0603C40.884 23.5926 40.7156 23.0596 40.7156 22.4612C40.7156 21.8828 40.869 21.3674 41.1757 20.9148C41.4875 20.4622 41.9124 20.1077 42.4505 19.8512C42.9936 19.5897 43.6121 19.459 44.3061 19.459C44.99 19.459 45.601 19.5897 46.1391 19.8512C46.6822 20.1077 47.1071 20.4622 47.4139 20.9148C47.7257 21.3674 47.8816 21.8828 47.8816 22.4612C47.8816 23.0596 47.7106 23.5926 47.3686 24.0603C47.0317 24.523 46.5892 24.8222 46.041 24.9579V25.0258C46.4635 25.1013 46.8456 25.2722 47.1876 25.5388C47.5296 25.8053 47.8011 26.1397 48.0023 26.542C48.2034 26.9443 48.304 27.3793 48.304 27.847C48.304 28.4554 48.133 28.9986 47.791 29.4763C47.4491 29.949 46.9764 30.3211 46.3729 30.5927C45.7745 30.8642 45.0856 31 44.3061 31ZM44.3061 29.6121C44.7688 29.6121 45.1711 29.5366 45.513 29.3858C45.855 29.2299 46.119 29.0111 46.305 28.7295C46.4911 28.4479 46.5841 28.121 46.5841 27.7489C46.5841 27.3567 46.4836 27.0122 46.2824 26.7155C46.0863 26.4138 45.8173 26.1774 45.4753 26.0064C45.1333 25.8304 44.7436 25.7424 44.3061 25.7424C43.8636 25.7424 43.4688 25.8279 43.1218 25.9989C42.7799 26.1699 42.5108 26.4062 42.3147 26.7079C42.1186 27.0097 42.0205 27.3567 42.0205 27.7489C42.0205 28.121 42.1136 28.4479 42.2996 28.7295C42.4857 29.0111 42.7497 29.2299 43.0917 29.3858C43.4336 29.5366 43.8384 29.6121 44.3061 29.6121ZM44.3061 24.3922C44.6782 24.3922 45.0076 24.3168 45.2943 24.1659C45.5859 24.015 45.8147 23.8064 45.9807 23.5398C46.1517 23.2733 46.2372 22.9615 46.2372 22.6045C46.2372 22.2525 46.1542 21.9457 45.9882 21.6842C45.8273 21.4227 45.601 21.2191 45.3094 21.0732C45.0227 20.9274 44.6883 20.8545 44.3061 20.8545C43.9189 20.8545 43.5795 20.9274 43.2878 21.0732C42.9961 21.2191 42.7698 21.4227 42.6089 21.6842C42.448 21.9457 42.3675 22.2525 42.3675 22.6045C42.3675 22.9615 42.4505 23.2733 42.6164 23.5398C42.7824 23.8064 43.0087 24.015 43.2953 24.1659C43.587 24.3168 43.9239 24.3922 44.3061 24.3922Z" fill="#717580" style="fill:#717580;fill:color(display-p3 0.4431 0.4588 0.5020);fill-opacity:1;"/>
<path d="M53.5088 31C52.6438 31 51.9021 30.7737 51.2835 30.3211C50.67 29.8685 50.1998 29.2148 49.873 28.3599C49.5511 27.5 49.3902 26.459 49.3902 25.237C49.3902 24.0201 49.5536 22.9816 49.8805 22.1217C50.2074 21.2568 50.6776 20.598 51.2911 20.1454C51.9096 19.6878 52.6488 19.459 53.5088 19.459C54.3737 19.459 55.1129 19.6878 55.7264 20.1454C56.345 20.598 56.8152 21.2568 57.137 22.1217C57.4639 22.9816 57.6273 24.0201 57.6273 25.237C57.6273 26.459 57.4664 27.5 57.1445 28.3599C56.8227 29.2148 56.355 29.8685 55.7415 30.3211C55.128 30.7737 54.3838 31 53.5088 31ZM53.5088 29.5517C54.0368 29.5517 54.4818 29.3833 54.8439 29.0463C55.206 28.7094 55.4825 28.2191 55.6736 27.5754C55.8647 26.9267 55.9603 26.1472 55.9603 25.237C55.9603 24.3218 55.8647 23.5423 55.6736 22.8987C55.4825 22.2499 55.206 21.7571 54.8439 21.4202C54.4818 21.0782 54.0368 20.9073 53.5088 20.9073C52.7293 20.9073 52.1258 21.2869 51.6984 22.0463C51.276 22.8006 51.0648 23.8642 51.0648 25.237C51.0648 26.1472 51.1603 26.9267 51.3514 27.5754C51.5425 28.2191 51.8191 28.7094 52.1812 29.0463C52.5483 29.3833 52.9908 29.5517 53.5088 29.5517Z" fill="#717580" style="fill:#717580;fill:color(display-p3 0.4431 0.4588 0.5020);fill-opacity:1;"/>
<path d="M62.8472 31C61.9822 31 61.2405 30.7737 60.6219 30.3211C60.0084 29.8685 59.5382 29.2148 59.2114 28.3599C58.8895 27.5 58.7286 26.459 58.7286 25.237C58.7286 24.0201 58.892 22.9816 59.2189 22.1217C59.5458 21.2568 60.016 20.598 60.6295 20.1454C61.248 19.6878 61.9872 19.459 62.8472 19.459C63.7121 19.459 64.4513 19.6878 65.0649 20.1454C65.6834 20.598 66.1536 21.2568 66.4754 22.1217C66.8023 22.9816 66.9657 24.0201 66.9657 25.237C66.9657 26.459 66.8048 27.5 66.483 28.3599C66.1611 29.2148 65.6934 29.8685 65.0799 30.3211C64.4664 30.7737 63.7222 31 62.8472 31ZM62.8472 29.5517C63.3752 29.5517 63.8202 29.3833 64.1823 29.0463C64.5444 28.7094 64.821 28.2191 65.0121 27.5754C65.2031 26.9267 65.2987 26.1472 65.2987 25.237C65.2987 24.3218 65.2031 23.5423 65.0121 22.8987C64.821 22.2499 64.5444 21.7571 64.1823 21.4202C63.8202 21.0782 63.3752 20.9073 62.8472 20.9073C62.0677 20.9073 61.4643 21.2869 61.0368 22.0463C60.6144 22.8006 60.4032 23.8642 60.4032 25.237C60.4032 26.1472 60.4987 26.9267 60.6898 27.5754C60.8809 28.2191 61.1575 28.7094 61.5196 29.0463C61.8867 29.3833 62.3292 29.5517 62.8472 29.5517Z" fill="#717580" style="fill:#717580;fill:color(display-p3 0.4431 0.4588 0.5020);fill-opacity:1;"/>
<path d="M75.4291 31C74.7402 31 74.1217 30.8693 73.5735 30.6078C73.0304 30.3412 72.5954 29.9766 72.2686 29.514C71.9417 29.0463 71.7682 28.5158 71.7481 27.9224H73.3925C73.4327 28.4001 73.6464 28.7949 74.0337 29.1067C74.4209 29.4185 74.886 29.5743 75.4291 29.5743C75.8616 29.5743 76.2438 29.4738 76.5757 29.2726C76.9076 29.0715 77.1691 28.7974 77.3602 28.4504C77.5513 28.0984 77.6468 27.6961 77.6468 27.2435C77.6468 26.7909 77.5488 26.3861 77.3526 26.0291C77.1565 25.667 76.885 25.3829 76.538 25.1767C76.196 24.9705 75.8013 24.8674 75.3537 24.8674C75.0118 24.8674 74.6698 24.9278 74.3278 25.0485C73.9859 25.1641 73.7093 25.315 73.4981 25.501L71.9367 25.2748L72.5703 19.6098H78.7481V21.0657H73.9884L73.6339 24.2112H73.6942C73.9105 23.9949 74.1996 23.8189 74.5617 23.6831C74.9288 23.5423 75.3235 23.4719 75.746 23.4719C76.4299 23.4719 77.0383 23.6354 77.5714 23.9622C78.1095 24.2841 78.5319 24.7266 78.8386 25.2898C79.1454 25.848 79.2988 26.4892 79.2988 27.2133C79.2988 27.9425 79.1328 28.5937 78.8009 29.167C78.469 29.7353 78.0114 30.1828 77.4281 30.5097C76.8498 30.8366 76.1835 31 75.4291 31Z" fill="#717580" style="fill:#717580;fill:color(display-p3 0.4431 0.4588 0.5020);fill-opacity:1;"/>
<path d="M84.496 31C83.9982 31 83.5053 30.912 83.0175 30.736C82.5298 30.56 82.0897 30.2683 81.6975 29.861C81.3053 29.4486 80.9884 28.8955 80.7471 28.2015C80.5107 27.5075 80.3925 26.6451 80.3925 25.6142C80.3925 24.6336 80.4906 23.7636 80.6867 23.0043C80.8879 22.2399 81.172 21.5962 81.5391 21.0732C81.9112 20.5452 82.3588 20.1454 82.8818 19.8739C83.4048 19.5973 83.9931 19.459 84.6469 19.459C85.3157 19.459 85.9091 19.5922 86.427 19.8588C86.945 20.1203 87.3649 20.4823 87.6868 20.945C88.0136 21.4076 88.2173 21.9357 88.2977 22.529H86.6383C86.5226 22.0614 86.2963 21.6817 85.9594 21.39C85.6224 21.0933 85.1849 20.945 84.6469 20.945C83.8221 20.945 83.1785 21.3045 82.7158 22.0237C82.2582 22.7377 82.0294 23.7334 82.0294 25.0107H82.1124C82.3085 24.6939 82.5474 24.4224 82.829 24.1961C83.1106 23.9648 83.4249 23.7888 83.7719 23.6681C84.1239 23.5474 84.4985 23.487 84.8958 23.487C85.5445 23.487 86.1329 23.6454 86.6609 23.9622C87.1939 24.2791 87.6164 24.7166 87.9281 25.2748C88.2449 25.8279 88.4034 26.4641 88.4034 27.1832C88.4034 27.8973 88.2399 28.5434 87.913 29.1218C87.5912 29.7001 87.1361 30.1577 86.5477 30.4946C85.9644 30.8315 85.2805 31 84.496 31ZM84.4885 29.5743C84.9209 29.5743 85.3056 29.4687 85.6426 29.2575C85.9845 29.0463 86.2561 28.7622 86.4572 28.4052C86.6584 28.0431 86.7589 27.6408 86.7589 27.1983C86.7589 26.7658 86.6609 26.3735 86.4648 26.0215C86.2737 25.6695 86.0097 25.3904 85.6727 25.1842C85.3408 24.973 84.9586 24.8674 84.5262 24.8674C84.0987 24.8674 83.7115 24.9755 83.3645 25.1918C83.0175 25.408 82.741 25.6947 82.5348 26.0517C82.3336 26.4087 82.2331 26.796 82.2331 27.2133C82.2331 27.6307 82.3311 28.0205 82.5272 28.3825C82.7234 28.7446 82.9899 29.0338 83.3268 29.25C83.6688 29.4662 84.056 29.5743 84.4885 29.5743Z" fill="#717580" style="fill:#717580;fill:color(display-p3 0.4431 0.4588 0.5020);fill-opacity:1;"/>
<path d="M93.759 19.6098V30.8491H92.0844V21.3146H92.009L89.3387 23.0722V21.4428L92.1297 19.6098H93.759Z" fill="#717580" style="fill:#717580;fill:color(display-p3 0.4431 0.4588 0.5020);fill-opacity:1;"/>
<path d="M102.773 31C102.014 31 101.34 30.8718 100.751 30.6153C100.163 30.3538 99.698 29.9917 99.356 29.5291C99.014 29.0664 98.833 28.5309 98.8129 27.9224H100.518C100.543 28.2543 100.656 28.5409 100.857 28.7823C101.058 29.0237 101.322 29.2123 101.649 29.3481C101.981 29.4788 102.351 29.5442 102.758 29.5442C103.2 29.5442 103.593 29.4662 103.935 29.3103C104.277 29.1544 104.543 28.9407 104.734 28.6692C104.93 28.3926 105.028 28.0733 105.028 27.7112C105.028 27.334 104.933 27.0021 104.742 26.7155C104.551 26.4238 104.272 26.1975 103.905 26.0366C103.537 25.8757 103.095 25.7952 102.577 25.7952H101.619V24.4073H102.577C102.989 24.4073 103.354 24.3319 103.671 24.181C103.987 24.0301 104.234 23.8214 104.41 23.5549C104.591 23.2884 104.681 22.9741 104.681 22.612C104.681 22.265 104.604 21.9633 104.448 21.7068C104.292 21.4453 104.073 21.2442 103.791 21.1034C103.51 20.9576 103.178 20.8846 102.796 20.8846C102.429 20.8846 102.087 20.95 101.77 21.0808C101.453 21.2115 101.194 21.4001 100.993 21.6465C100.797 21.8879 100.694 22.1821 100.684 22.529H99.0467C99.0618 21.9206 99.2378 21.3875 99.5748 20.9299C99.9167 20.4673 100.369 20.1077 100.933 19.8512C101.501 19.5897 102.129 19.459 102.818 19.459C103.537 19.459 104.158 19.5998 104.681 19.8814C105.209 20.158 105.617 20.5301 105.903 20.9978C106.19 21.4604 106.333 21.9658 106.333 22.514C106.333 23.1526 106.157 23.6907 105.805 24.1282C105.453 24.5607 104.983 24.8548 104.395 25.0107V25.0937C105.139 25.2094 105.715 25.5061 106.122 25.9838C106.535 26.4615 106.741 27.0549 106.741 27.764C106.741 28.3825 106.567 28.9357 106.22 29.4235C105.878 29.9113 105.408 30.296 104.81 30.5776C104.216 30.8592 103.537 31 102.773 31Z" fill="#717580" style="fill:#717580;fill:color(display-p3 0.4431 0.4588 0.5020);fill-opacity:1;"/>
<path d="M112.081 31C111.322 31 110.648 30.8718 110.06 30.6153C109.471 30.3538 109.006 29.9917 108.664 29.5291C108.322 29.0664 108.141 28.5309 108.121 27.9224H109.826C109.851 28.2543 109.964 28.5409 110.165 28.7823C110.366 29.0237 110.63 29.2123 110.957 29.3481C111.289 29.4788 111.659 29.5442 112.066 29.5442C112.509 29.5442 112.901 29.4662 113.243 29.3103C113.585 29.1544 113.851 28.9407 114.043 28.6692C114.239 28.3926 114.337 28.0733 114.337 27.7112C114.337 27.334 114.241 27.0021 114.05 26.7155C113.859 26.4238 113.58 26.1975 113.213 26.0366C112.846 25.8757 112.403 25.7952 111.885 25.7952H110.927V24.4073H111.885C112.298 24.4073 112.662 24.3319 112.979 24.181C113.296 24.0301 113.542 23.8214 113.718 23.5549C113.899 23.2884 113.99 22.9741 113.99 22.612C113.99 22.265 113.912 21.9633 113.756 21.7068C113.6 21.4453 113.381 21.2442 113.1 21.1034C112.818 20.9576 112.486 20.8846 112.104 20.8846C111.737 20.8846 111.395 20.95 111.078 21.0808C110.761 21.2115 110.502 21.4001 110.301 21.6465C110.105 21.8879 110.002 22.1821 109.992 22.529H108.355C108.37 21.9206 108.546 21.3875 108.883 20.9299C109.225 20.4673 109.678 20.1077 110.241 19.8512C110.809 19.5897 111.438 19.459 112.127 19.459C112.846 19.459 113.467 19.5998 113.99 19.8814C114.518 20.158 114.925 20.5301 115.212 20.9978C115.498 21.4604 115.642 21.9658 115.642 22.514C115.642 23.1526 115.466 23.6907 115.114 24.1282C114.762 24.5607 114.291 24.8548 113.703 25.0107V25.0937C114.447 25.2094 115.023 25.5061 115.43 25.9838C115.843 26.4615 116.049 27.0549 116.049 27.764C116.049 28.3825 115.875 28.9357 115.529 29.4235C115.187 29.9113 114.716 30.296 114.118 30.5776C113.525 30.8592 112.846 31 112.081 31Z" fill="#717580" style="fill:#717580;fill:color(display-p3 0.4431 0.4588 0.5020);fill-opacity:1;"/>
<path d="M121.186 31C120.497 31 119.878 30.8693 119.33 30.6078C118.787 30.3412 118.352 29.9766 118.025 29.514C117.698 29.0463 117.525 28.5158 117.505 27.9224H119.149C119.189 28.4001 119.403 28.7949 119.79 29.1067C120.178 29.4185 120.643 29.5743 121.186 29.5743C121.618 29.5743 122.001 29.4738 122.332 29.2726C122.664 29.0715 122.926 28.7974 123.117 28.4504C123.308 28.0984 123.404 27.6961 123.404 27.2435C123.404 26.7909 123.305 26.3861 123.109 26.0291C122.913 25.667 122.642 25.3829 122.295 25.1767C121.953 24.9705 121.558 24.8674 121.11 24.8674C120.768 24.8674 120.427 24.9278 120.085 25.0485C119.743 25.1641 119.466 25.315 119.255 25.501L117.693 25.2748L118.327 19.6098H124.505V21.0657H119.745L119.391 24.2112H119.451C119.667 23.9949 119.956 23.8189 120.318 23.6831C120.686 23.5423 121.08 23.4719 121.503 23.4719C122.187 23.4719 122.795 23.6354 123.328 23.9622C123.866 24.2841 124.289 24.7266 124.595 25.2898C124.902 25.848 125.056 26.4892 125.056 27.2133C125.056 27.9425 124.89 28.5937 124.558 29.167C124.226 29.7353 123.768 30.1828 123.185 30.5097C122.606 30.8366 121.94 31 121.186 31Z" fill="#717580" style="fill:#717580;fill:color(display-p3 0.4431 0.4588 0.5020);fill-opacity:1;"/>
<path d="M126.738 30.8491L131.641 21.1486V21.0657H125.968V19.6098H133.406V21.126L128.51 30.8491H126.738Z" fill="#717580" style="fill:#717580;fill:color(display-p3 0.4431 0.4588 0.5020);fill-opacity:1;"/>
<path d="M135.412 0.0107422C139.639 0.225231 143 3.71994 143 8V42L142.989 42.4121C142.782 46.5024 139.502 49.7817 135.412 49.9893L135 50H19C14.5817 50 11 46.4183 11 42V40H12V42C12 45.866 15.134 49 19 49H135C138.866 49 142 45.866 142 42V8C142 4.25486 139.059 1.19633 135.36 1.00879L135 1H19C15.134 1 12 4.13401 12 8V9H11V8C11 3.58172 14.5817 1.28851e-07 19 0H135L135.412 0.0107422Z" fill="#C4C4C4" style="fill:#C4C4C4;fill:color(display-p3 0.7686 0.7686 0.7686);fill-opacity:1;"/>
</svg>
