<svg width="29" height="131" viewBox="0 0 29 131" fill="none" xmlns="http://www.w3.org/2000/svg">
<path d="M26.001 0C27.4736 0.000105511 28.667 1.1943 28.667 2.66699C28.667 4.13968 27.4736 5.33388 26.001 5.33398C24.8181 5.33398 23.8158 4.56325 23.4668 3.49707C19.246 4.61574 16.1348 8.46046 16.1348 13.0332V53.4189C16.1348 58.5815 13.0046 63.0121 8.53906 64.9189H22.7314C22.9656 63.6854 24.048 62.7521 25.3496 62.752C26.8224 62.752 28.0166 63.9462 28.0166 65.4189C28.0166 66.8917 26.8224 68.0859 25.3496 68.0859C24.048 68.0858 22.9656 67.1525 22.7314 65.9189H8.50391C12.9695 67.8258 16.0996 72.2564 16.0996 77.4189V117.771C16.0996 122.362 19.2262 126.222 23.4658 127.342C23.8146 126.275 24.8168 125.504 26 125.504C27.4728 125.504 28.667 126.698 28.667 128.171C28.667 129.644 27.4728 130.838 26 130.838C24.585 130.838 23.4295 129.735 23.3408 128.343C18.6064 127.156 15.0996 122.873 15.0996 117.771V77.4189C15.0996 71.0677 9.95088 65.9189 3.59961 65.9189H0V64.9189H3.63477C9.986 64.9189 15.1348 59.7702 15.1348 53.4189V13.0332C15.1348 7.94945 18.6262 3.68234 23.3418 2.49609C23.43 1.10303 24.5857 0 26.001 0Z" fill="#212121"/>
</svg>
