<svg width="700" height="700" viewBox="0 0 700 700" fill="none" xmlns="http://www.w3.org/2000/svg">
<rect x="0.5" y="0.5" width="699" height="699" rx="19.5" fill="white"/>
<rect x="0.5" y="0.5" width="699" height="699" rx="19.5" stroke="#F8F8F8"/>
<path d="M555.507 241.588H475.066C477.415 228.764 485.048 222.351 500.901 214.19L515.58 206.612C542.002 193.205 556.094 178.049 556.094 152.983C556.094 137.243 550.222 125.002 537.892 116.258C526.149 107.514 511.47 102.85 494.442 102.85C480.938 102.85 469.194 106.348 458.038 113.343C446.882 120.338 438.662 128.499 433.965 139.575L457.451 162.892C466.259 144.822 479.763 136.078 496.791 136.078C511.47 136.078 520.277 143.656 520.277 153.566C520.277 162.31 516.167 169.305 499.14 178.049L489.745 182.712C469.194 193.205 454.516 204.864 446.295 218.271C438.075 231.678 433.965 248.583 433.965 268.986V274.815H555.507V241.588Z" fill="#F8F8F8"/>
<path d="M544.937 312.126H412.239L345.303 426.381H478.588L544.937 540.636L611.286 426.381L544.937 312.126Z" fill="#F8F8F8"/>
<path d="M357.043 502.728C272.492 502.728 203.794 434.525 203.794 350.583C203.794 266.641 272.492 197.855 357.043 197.855L409.887 88.8465C392.86 85.3489 375.245 83.6001 357.043 83.6001C209.079 83.6001 88.7109 203.101 88.7109 350C88.7109 496.899 209.079 616.4 357.043 616.4C416.346 616.4 470.952 597.163 514.989 565.102L456.86 466.004C429.851 488.738 395.208 502.728 357.043 502.728Z" fill="#F8F8F8"/>
<path opacity="0.8" d="M59.7148 59L59.7149 640" stroke="#CACBCF"/>
<path opacity="0.8" d="M134.715 58L134.715 640" stroke="#CACBCF"/>
<path opacity="0.8" d="M188.5 58L188.5 640" stroke="#CACBCF"/>
<path opacity="0.8" d="M242.715 58L242.715 640" stroke="#CACBCF"/>
<path opacity="0.8" d="M295.715 58L295.715 640" stroke="#CACBCF"/>
<path opacity="0.8" d="M402.715 58L402.715 640" stroke="#CACBCF"/>
<path opacity="0.8" d="M456.715 58L456.715 640" stroke="#CACBCF"/>
<path opacity="0.8" d="M509.715 58L509.715 640" stroke="#CACBCF"/>
<path opacity="0.8" d="M563.715 58L563.715 640" stroke="#CACBCF"/>
<path opacity="0.8" d="M640.715 57L640.715 640" stroke="#CACBCF"/>
<path opacity="0.8" d="M59 56.6482L639 56.6482" stroke="#CACBCF"/>
<path opacity="0.8" d="M59.168 116.485L640.168 116.485" stroke="#CACBCF"/>
<path opacity="0.8" d="M59.168 174.485L640.168 174.485" stroke="#CACBCF"/>
<path opacity="0.8" d="M59.168 232.485L640.168 232.485" stroke="#CACBCF"/>
<path opacity="0.8" d="M59 291.5H639" stroke="#CACBCF"/>
<path opacity="0.8" d="M59 407.5H640" stroke="#CACBCF"/>
<path opacity="0.8" d="M59.168 465.485L640.168 465.485" stroke="#CACBCF"/>
<path opacity="0.8" d="M59.168 523.485L640.168 523.485" stroke="#CACBCF"/>
<path opacity="0.8" d="M59.168 581.485L640.168 581.485" stroke="#CACBCF"/>
<path opacity="0.8" d="M59 639.5L639 639.5" stroke="#CACBCF"/>
<path opacity="0.75" d="M350 57L350 640" stroke="#717580"/>
<path opacity="0.75" d="M59 349H640" stroke="#717580"/>
<path d="M35.2611 661.129V671.113H33.8766L28.8015 663.791H28.7088V671.113H27.2024V661.129H28.5967L33.6767 668.461H33.7693V661.129H35.2611ZM36.7925 671.113V663.625H38.2502V671.113H36.7925ZM37.5287 662.47C37.2751 662.47 37.0574 662.385 36.8754 662.216C36.6966 662.044 36.6072 661.839 36.6072 661.602C36.6072 661.361 36.6966 661.156 36.8754 660.987C37.0574 660.815 37.2751 660.729 37.5287 660.729C37.7822 660.729 37.9983 660.815 38.1771 660.987C38.3591 661.156 38.4501 661.361 38.4501 661.602C38.4501 661.839 38.3591 662.044 38.1771 662.216C37.9983 662.385 37.7822 662.47 37.5287 662.47ZM42.8164 671.264C42.0916 671.264 41.4676 671.1 40.9443 670.772C40.4243 670.441 40.0245 669.984 39.745 669.402C39.4655 668.82 39.3257 668.154 39.3257 667.403C39.3257 666.643 39.4687 665.972 39.7547 665.39C40.0407 664.805 40.4438 664.348 40.9638 664.02C41.4838 663.692 42.0965 663.527 42.8018 663.527C43.3705 663.527 43.8776 663.633 44.3228 663.844C44.7681 664.052 45.1272 664.345 45.4002 664.722C45.6765 665.099 45.8406 665.539 45.8926 666.043H44.474C44.3959 665.692 44.2172 665.39 43.9377 665.136C43.6614 664.883 43.2909 664.756 42.8261 664.756C42.4199 664.756 42.064 664.863 41.7585 665.078C41.4562 665.289 41.2206 665.591 41.0515 665.985C40.8825 666.375 40.798 666.836 40.798 667.369C40.798 667.915 40.8809 668.386 41.0467 668.783C41.2124 669.179 41.4464 669.487 41.7487 669.704C42.0542 669.922 42.4134 670.031 42.8261 670.031C43.1024 670.031 43.3527 669.981 43.5769 669.88C43.8044 669.776 43.9946 669.628 44.1473 669.436C44.3033 669.244 44.4122 669.014 44.474 668.744H45.8926C45.8406 669.228 45.683 669.66 45.4197 670.041C45.1565 670.421 44.8038 670.72 44.3618 670.938C43.9231 671.156 43.4079 671.264 42.8164 671.264ZM48.36 666.667V671.113H46.9024V661.129H48.3405V664.844H48.4332C48.6087 664.441 48.8768 664.121 49.2376 663.883C49.5984 663.646 50.0696 663.527 50.6514 663.527C51.1649 663.527 51.6134 663.633 51.997 663.844C52.3837 664.056 52.6827 664.371 52.894 664.79C53.1085 665.206 53.2158 665.726 53.2158 666.35V671.113H51.7581V666.526C51.7581 665.976 51.6167 665.551 51.3339 665.248C51.0512 664.943 50.6579 664.79 50.1541 664.79C49.8096 664.79 49.5008 664.863 49.2278 665.009C48.9581 665.156 48.7452 665.37 48.5892 665.653C48.4364 665.933 48.36 666.271 48.36 666.667ZM57.8392 671.264C57.1015 671.264 56.466 671.107 55.933 670.792C55.4032 670.473 54.9937 670.026 54.7045 669.451C54.4185 668.872 54.2754 668.195 54.2754 667.418C54.2754 666.651 54.4185 665.975 54.7045 665.39C54.9937 664.805 55.3967 664.348 55.9135 664.02C56.4335 663.692 57.0413 663.527 57.7369 663.527C58.1594 663.527 58.5689 663.597 58.9654 663.737C59.3619 663.877 59.7178 664.096 60.0331 664.395C60.3484 664.694 60.597 665.083 60.779 665.56C60.961 666.035 61.052 666.612 61.052 667.291V667.808H55.0994V666.716H59.6236C59.6236 666.332 59.5456 665.993 59.3896 665.697C59.2336 665.398 59.0142 665.162 58.7314 664.99C58.4519 664.818 58.1236 664.732 57.7466 664.732C57.3371 664.732 56.9796 664.832 56.6741 665.034C56.3718 665.232 56.1378 665.492 55.972 665.814C55.8095 666.132 55.7283 666.479 55.7283 666.852V667.705C55.7283 668.206 55.816 668.632 55.9915 668.983C56.1703 669.334 56.4189 669.602 56.7374 669.787C57.056 669.969 57.4281 670.06 57.8539 670.06C58.1301 670.06 58.382 670.021 58.6095 669.943C58.837 669.862 59.0337 669.742 59.1994 669.582C59.3652 669.423 59.4919 669.227 59.5797 668.993L60.9594 669.241C60.8489 669.647 60.6506 670.003 60.3646 670.309C60.0818 670.611 59.7259 670.847 59.2969 671.016C58.8712 671.182 58.3853 671.264 57.8392 671.264Z" fill="#4D5360"/>
<path d="M570.323 671.113V661.129H571.83V665.468H576.807V661.129H578.319V671.113H576.807V666.76H571.83V671.113H570.323ZM579.846 671.113V663.625H581.304V671.113H579.846ZM580.582 662.47C580.329 662.47 580.111 662.385 579.929 662.216C579.75 662.044 579.661 661.839 579.661 661.602C579.661 661.361 579.75 661.156 579.929 660.987C580.111 660.815 580.329 660.729 580.582 660.729C580.836 660.729 581.052 660.815 581.231 660.987C581.413 661.156 581.504 661.361 581.504 661.602C581.504 661.839 581.413 662.044 581.231 662.216C581.052 662.385 580.836 662.47 580.582 662.47ZM585.856 674.077C585.261 674.077 584.749 673.999 584.32 673.843C583.894 673.687 583.546 673.481 583.277 673.224C583.007 672.967 582.805 672.686 582.672 672.381L583.925 671.864C584.013 672.007 584.13 672.158 584.276 672.317C584.425 672.48 584.627 672.618 584.88 672.732C585.137 672.846 585.467 672.902 585.87 672.902C586.423 672.902 586.879 672.768 587.24 672.498C587.601 672.231 587.781 671.806 587.781 671.221V669.748H587.689C587.601 669.907 587.474 670.085 587.308 670.28C587.146 670.475 586.922 670.644 586.636 670.787C586.35 670.93 585.977 671.001 585.519 671.001C584.928 671.001 584.395 670.863 583.92 670.587C583.449 670.307 583.075 669.896 582.799 669.353C582.526 668.807 582.389 668.136 582.389 667.34C582.389 666.544 582.524 665.861 582.794 665.292C583.067 664.723 583.441 664.288 583.915 663.986C584.39 663.68 584.928 663.527 585.529 663.527C585.994 663.527 586.369 663.605 586.655 663.761C586.941 663.914 587.164 664.093 587.323 664.298C587.485 664.502 587.611 664.683 587.698 664.839H587.806V663.625H589.234V671.279C589.234 671.923 589.085 672.451 588.786 672.863C588.487 673.276 588.082 673.582 587.572 673.78C587.065 673.978 586.493 674.077 585.856 674.077ZM585.841 669.792C586.26 669.792 586.614 669.695 586.904 669.5C587.196 669.301 587.417 669.019 587.567 668.651C587.719 668.281 587.796 667.837 587.796 667.32C587.796 666.817 587.721 666.373 587.572 665.989C587.422 665.606 587.203 665.307 586.913 665.092C586.624 664.875 586.267 664.766 585.841 664.766C585.402 664.766 585.036 664.879 584.744 665.107C584.451 665.331 584.23 665.637 584.081 666.024C583.935 666.41 583.862 666.843 583.862 667.32C583.862 667.811 583.936 668.242 584.086 668.612C584.235 668.983 584.456 669.272 584.749 669.48C585.045 669.688 585.409 669.792 585.841 669.792ZM592.098 666.667V671.113H590.64V661.129H592.078V664.844H592.171C592.346 664.441 592.614 664.121 592.975 663.883C593.336 663.646 593.807 663.527 594.389 663.527C594.902 663.527 595.351 663.633 595.734 663.844C596.121 664.056 596.42 664.371 596.632 664.79C596.846 665.206 596.953 665.726 596.953 666.35V671.113H595.496V666.526C595.496 665.976 595.354 665.551 595.071 665.248C594.789 664.943 594.395 664.79 593.892 664.79C593.547 664.79 593.238 664.863 592.965 665.009C592.696 665.156 592.483 665.37 592.327 665.653C592.174 665.933 592.098 666.271 592.098 666.667ZM601.55 671.113V661.129H605.109C605.886 661.129 606.53 661.27 607.04 661.553C607.55 661.836 607.932 662.222 608.186 662.713C608.439 663.201 608.566 663.75 608.566 664.361C608.566 664.975 608.438 665.528 608.181 666.019C607.927 666.506 607.544 666.893 607.03 667.179C606.52 667.462 605.878 667.603 605.105 667.603H602.657V666.326H604.968C605.459 666.326 605.857 666.241 606.162 666.072C606.468 665.9 606.692 665.666 606.835 665.37C606.978 665.075 607.05 664.738 607.05 664.361C607.05 663.984 606.978 663.649 606.835 663.357C606.692 663.064 606.466 662.835 606.158 662.669C605.852 662.504 605.449 662.421 604.949 662.421H603.057V671.113H601.55ZM612.799 671.264C612.062 671.264 611.426 671.107 610.893 670.792C610.363 670.473 609.954 670.026 609.665 669.451C609.379 668.872 609.236 668.195 609.236 667.418C609.236 666.651 609.379 665.975 609.665 665.39C609.954 664.805 610.357 664.348 610.874 664.02C611.394 663.692 612.001 663.527 612.697 663.527C613.12 663.527 613.529 663.597 613.926 663.737C614.322 663.877 614.678 664.096 614.993 664.395C615.309 664.694 615.557 665.083 615.739 665.56C615.921 666.035 616.012 666.612 616.012 667.291V667.808H610.06V666.716H614.584C614.584 666.332 614.506 665.993 614.35 665.697C614.194 665.398 613.974 665.162 613.692 664.99C613.412 664.818 613.084 664.732 612.707 664.732C612.297 664.732 611.94 664.832 611.634 665.034C611.332 665.232 611.098 665.492 610.932 665.814C610.77 666.132 610.688 666.479 610.688 666.852V667.705C610.688 668.206 610.776 668.632 610.952 668.983C611.13 669.334 611.379 669.602 611.698 669.787C612.016 669.969 612.388 670.06 612.814 670.06C613.09 670.06 613.342 670.021 613.57 669.943C613.797 669.862 613.994 669.742 614.16 669.582C614.325 669.423 614.452 669.227 614.54 668.993L615.92 669.241C615.809 669.647 615.611 670.003 615.325 670.309C615.042 670.611 614.686 670.847 614.257 671.016C613.831 671.182 613.345 671.264 612.799 671.264ZM617.08 671.113V663.625H618.489V664.814H618.567C618.704 664.411 618.944 664.095 619.289 663.864C619.637 663.63 620.03 663.513 620.469 663.513C620.56 663.513 620.667 663.516 620.79 663.523C620.917 663.529 621.016 663.537 621.088 663.547V664.941C621.029 664.925 620.925 664.907 620.776 664.888C620.626 664.865 620.477 664.853 620.327 664.853C619.983 664.853 619.676 664.927 619.406 665.073C619.139 665.216 618.928 665.416 618.772 665.673C618.616 665.926 618.538 666.215 618.538 666.54V671.113H617.08ZM625.806 663.625V664.795H621.575V663.625H625.806ZM622.735 671.113V662.757C622.735 662.289 622.837 661.901 623.042 661.592C623.247 661.28 623.518 661.048 623.856 660.895C624.194 660.739 624.562 660.661 624.958 660.661C625.251 660.661 625.501 660.685 625.709 660.734C625.917 660.779 626.071 660.822 626.172 660.861L625.831 662.04C625.762 662.021 625.675 661.998 625.567 661.972C625.46 661.943 625.33 661.928 625.177 661.928C624.823 661.928 624.57 662.016 624.417 662.192C624.267 662.367 624.193 662.621 624.193 662.952V671.113H622.735ZM629.621 671.264C628.918 671.264 628.306 671.104 627.783 670.782C627.259 670.46 626.853 670.01 626.564 669.431C626.274 668.853 626.13 668.177 626.13 667.403C626.13 666.626 626.274 665.947 626.564 665.365C626.853 664.784 627.259 664.332 627.783 664.01C628.306 663.688 628.918 663.527 629.621 663.527C630.323 663.527 630.935 663.688 631.458 664.01C631.982 664.332 632.388 664.784 632.677 665.365C632.967 665.947 633.111 666.626 633.111 667.403C633.111 668.177 632.967 668.853 632.677 669.431C632.388 670.01 631.982 670.46 631.458 670.782C630.935 671.104 630.323 671.264 629.621 671.264ZM629.625 670.041C630.08 670.041 630.457 669.92 630.756 669.68C631.055 669.439 631.276 669.119 631.419 668.72C631.566 668.32 631.639 667.879 631.639 667.398C631.639 666.921 631.566 666.482 631.419 666.082C631.276 665.679 631.055 665.356 630.756 665.112C630.457 664.868 630.08 664.746 629.625 664.746C629.167 664.746 628.787 664.868 628.485 665.112C628.186 665.356 627.963 665.679 627.817 666.082C627.674 666.482 627.602 666.921 627.602 667.398C627.602 667.879 627.674 668.32 627.817 668.72C627.963 669.119 628.186 669.439 628.485 669.68C628.787 669.92 629.167 670.041 629.625 670.041ZM634.189 671.113V663.625H635.598V664.814H635.676C635.813 664.411 636.053 664.095 636.398 663.864C636.745 663.63 637.139 663.513 637.577 663.513C637.668 663.513 637.776 663.516 637.899 663.523C638.026 663.529 638.125 663.537 638.197 663.547V664.941C638.138 664.925 638.034 664.907 637.885 664.888C637.735 664.865 637.586 664.853 637.436 664.853C637.092 664.853 636.784 664.927 636.515 665.073C636.248 665.216 636.037 665.416 635.881 665.673C635.725 665.926 635.647 666.215 635.647 666.54V671.113H634.189ZM638.909 671.113V663.625H640.308V664.844H640.401C640.557 664.431 640.812 664.109 641.166 663.878C641.52 663.644 641.945 663.527 642.439 663.527C642.939 663.527 643.358 663.644 643.696 663.878C644.038 664.112 644.29 664.434 644.452 664.844H644.53C644.709 664.444 644.993 664.125 645.383 663.888C645.773 663.648 646.238 663.527 646.778 663.527C647.457 663.527 648.011 663.74 648.44 664.166C648.872 664.592 649.088 665.234 649.088 666.092V671.113H647.631V666.228C647.631 665.721 647.493 665.354 647.216 665.127C646.94 664.899 646.61 664.785 646.227 664.785C645.752 664.785 645.383 664.931 645.12 665.224C644.857 665.513 644.725 665.885 644.725 666.34V671.113H643.272V666.136C643.272 665.729 643.145 665.403 642.892 665.156C642.638 664.909 642.309 664.785 641.902 664.785C641.626 664.785 641.371 664.858 641.137 665.005C640.906 665.148 640.719 665.348 640.576 665.604C640.436 665.861 640.367 666.158 640.367 666.496V671.113H638.909ZM653.72 671.264C652.983 671.264 652.347 671.107 651.814 670.792C651.284 670.473 650.875 670.026 650.586 669.451C650.3 668.872 650.157 668.195 650.157 667.418C650.157 666.651 650.3 665.975 650.586 665.39C650.875 664.805 651.278 664.348 651.795 664.02C652.315 663.692 652.922 663.527 653.618 663.527C654.041 663.527 654.45 663.597 654.847 663.737C655.243 663.877 655.599 664.096 655.914 664.395C656.229 664.694 656.478 665.083 656.66 665.56C656.842 666.035 656.933 666.612 656.933 667.291V667.808H650.98V666.716H655.505C655.505 666.332 655.427 665.993 655.271 665.697C655.115 665.398 654.895 665.162 654.613 664.99C654.333 664.818 654.005 664.732 653.628 664.732C653.218 664.732 652.861 664.832 652.555 665.034C652.253 665.232 652.019 665.492 651.853 665.814C651.691 666.132 651.609 666.479 651.609 666.852V667.705C651.609 668.206 651.697 668.632 651.873 668.983C652.051 669.334 652.3 669.602 652.619 669.787C652.937 669.969 653.309 670.06 653.735 670.06C654.011 670.06 654.263 670.021 654.491 669.943C654.718 669.862 654.915 669.742 655.081 669.582C655.246 669.423 655.373 669.227 655.461 668.993L656.841 669.241C656.73 669.647 656.532 670.003 656.246 670.309C655.963 670.611 655.607 670.847 655.178 671.016C654.752 671.182 654.266 671.264 653.72 671.264ZM658.001 671.113V663.625H659.41V664.814H659.488C659.625 664.411 659.865 664.095 660.21 663.864C660.558 663.63 660.951 663.513 661.39 663.513C661.481 663.513 661.588 663.516 661.711 663.523C661.838 663.529 661.937 663.537 662.009 663.547V664.941C661.95 664.925 661.846 664.907 661.697 664.888C661.547 664.865 661.398 664.853 661.248 664.853C660.904 664.853 660.597 664.927 660.327 665.073C660.06 665.216 659.849 665.416 659.693 665.673C659.537 665.926 659.459 666.215 659.459 666.54V671.113H658.001ZM668.332 665.453L667.011 665.687C666.956 665.518 666.868 665.357 666.748 665.205C666.631 665.052 666.472 664.927 666.27 664.829C666.069 664.732 665.817 664.683 665.515 664.683C665.102 664.683 664.757 664.775 664.481 664.961C664.205 665.143 664.067 665.378 664.067 665.668C664.067 665.918 664.159 666.119 664.345 666.272C664.53 666.425 664.829 666.55 665.242 666.648L666.431 666.921C667.12 667.08 667.634 667.325 667.972 667.657C668.31 667.988 668.479 668.419 668.479 668.949C668.479 669.397 668.349 669.797 668.089 670.148C667.832 670.496 667.473 670.769 667.011 670.967C666.553 671.165 666.022 671.264 665.417 671.264C664.579 671.264 663.894 671.086 663.365 670.728C662.835 670.367 662.51 669.855 662.39 669.192L663.799 668.978C663.886 669.345 664.067 669.623 664.34 669.812C664.613 669.997 664.969 670.089 665.407 670.089C665.885 670.089 666.267 669.99 666.553 669.792C666.839 669.591 666.982 669.345 666.982 669.056C666.982 668.822 666.894 668.625 666.719 668.466C666.547 668.307 666.282 668.187 665.924 668.105L664.657 667.827C663.958 667.668 663.441 667.415 663.106 667.067C662.775 666.719 662.609 666.279 662.609 665.746C662.609 665.304 662.732 664.917 662.979 664.585C663.227 664.254 663.568 663.995 664.003 663.81C664.439 663.622 664.938 663.527 665.5 663.527C666.309 663.527 666.946 663.703 667.411 664.054C667.876 664.402 668.183 664.868 668.332 665.453Z" fill="#4D5360"/>
<path d="M675.552 285.627V287.441L665.133 291.707V291.854L675.552 296.12V297.934H663V296.512H672.537V296.39L663 292.467V291.094L672.537 287.172V287.049H663V285.627H675.552ZM662.779 302.865C662.779 302.269 662.892 301.728 663.116 301.241C663.345 300.755 663.674 300.369 664.103 300.083C664.536 299.797 665.059 299.654 665.672 299.654C666.212 299.654 666.649 299.76 666.984 299.973C667.323 300.185 667.589 300.469 667.781 300.825C667.973 301.18 668.116 301.572 668.21 302.001C668.308 302.434 668.385 302.87 668.442 303.307C668.516 303.879 668.571 304.343 668.608 304.698C668.649 305.058 668.716 305.319 668.81 305.482C668.904 305.65 669.068 305.734 669.301 305.734H669.35C669.954 305.734 670.424 305.568 670.759 305.237C671.094 304.91 671.262 304.414 671.262 303.748C671.262 303.057 671.111 302.516 670.808 302.124C670.506 301.732 670.183 301.456 669.84 301.296L670.33 299.924C670.902 300.169 671.348 300.496 671.666 300.904C671.989 301.317 672.214 301.766 672.34 302.253C672.471 302.743 672.537 303.225 672.537 303.699C672.537 304.001 672.5 304.349 672.426 304.741C672.357 305.137 672.212 305.519 671.991 305.887C671.77 306.259 671.437 306.567 670.992 306.812C670.547 307.058 669.95 307.18 669.202 307.18H663V305.734H664.275V305.66C664.071 305.562 663.852 305.399 663.619 305.17C663.386 304.941 663.188 304.637 663.025 304.257C662.861 303.877 662.779 303.413 662.779 302.865ZM664.079 303.086C664.079 303.658 664.191 304.14 664.416 304.533C664.641 304.929 664.931 305.227 665.286 305.427C665.642 305.632 666.015 305.734 666.408 305.734H667.732C667.658 305.672 667.591 305.538 667.529 305.329C667.472 305.125 667.421 304.888 667.376 304.618C667.335 304.353 667.298 304.093 667.266 303.84C667.237 303.591 667.213 303.388 667.192 303.233C667.143 302.857 667.063 302.506 666.953 302.179C666.847 301.856 666.686 301.595 666.469 301.394C666.256 301.198 665.966 301.1 665.599 301.1C665.096 301.1 664.716 301.286 664.459 301.658C664.205 302.034 664.079 302.51 664.079 303.086ZM663 309.13H672.414V310.527H670.992V310.625C671.458 310.797 671.836 311.107 672.126 311.557C672.416 312.006 672.561 312.513 672.561 313.077C672.561 313.183 672.559 313.316 672.555 313.475C672.551 313.635 672.545 313.755 672.537 313.837H671.066C671.078 313.788 671.096 313.675 671.121 313.5C671.149 313.328 671.164 313.146 671.164 312.954C671.164 312.497 671.068 312.088 670.876 311.729C670.688 311.373 670.426 311.091 670.091 310.883C669.76 310.678 669.382 310.576 668.957 310.576H663V309.13ZM666.432 316.209L668.222 316.185V316.479L672.414 320.598V322.387L667.977 317.999V317.876L666.432 316.209ZM663 314.861H675.552V316.307H663V314.861ZM663 320.843L667.658 317.166L668.663 318.195L663 322.682V320.843ZM662.804 327.118C662.804 326.211 663.004 325.429 663.405 324.771C663.809 324.117 664.373 323.612 665.096 323.257C665.823 322.905 666.669 322.73 667.633 322.73C668.598 322.73 669.448 322.905 670.183 323.257C670.923 323.612 671.499 324.107 671.911 324.74C672.328 325.377 672.537 326.121 672.537 326.971C672.537 327.461 672.455 327.945 672.291 328.423C672.128 328.902 671.862 329.337 671.495 329.729C671.131 330.121 670.649 330.434 670.048 330.667C669.448 330.9 668.708 331.016 667.83 331.016H667.217V323.759H668.467V329.545C668.998 329.545 669.472 329.439 669.889 329.226C670.306 329.018 670.635 328.72 670.876 328.332C671.117 327.947 671.237 327.494 671.237 326.971C671.237 326.395 671.094 325.896 670.808 325.475C670.526 325.059 670.159 324.738 669.705 324.513C669.251 324.289 668.765 324.176 668.246 324.176H667.413C666.702 324.176 666.099 324.299 665.605 324.544C665.114 324.793 664.741 325.138 664.483 325.58C664.23 326.021 664.103 326.534 664.103 327.118C664.103 327.498 664.156 327.841 664.263 328.148C664.373 328.458 664.536 328.726 664.753 328.951C664.974 329.175 665.247 329.349 665.574 329.472L665.182 330.869C664.708 330.722 664.291 330.475 663.932 330.127C663.576 329.78 663.298 329.351 663.098 328.84C662.902 328.33 662.804 327.755 662.804 327.118ZM672.414 336.62H671.188V331.741H672.414V336.62ZM674.669 333.163V334.61H665.697C665.288 334.61 664.982 334.669 664.777 334.788C664.577 334.91 664.442 335.065 664.373 335.253C664.308 335.445 664.275 335.648 664.275 335.86C664.275 336.019 664.283 336.15 664.299 336.252C664.32 336.354 664.336 336.436 664.348 336.497L663.049 336.792C663.012 336.694 662.975 336.557 662.939 336.381C662.898 336.205 662.877 335.983 662.877 335.713C662.877 335.304 662.965 334.904 663.141 334.512C663.317 334.124 663.584 333.801 663.944 333.543C664.303 333.29 664.757 333.163 665.304 333.163H674.669ZM663 342.465H675.552V346.707C675.552 347.691 675.374 348.496 675.019 349.121C674.667 349.751 674.191 350.216 673.591 350.519C672.99 350.821 672.32 350.972 671.58 350.972C670.841 350.972 670.169 350.821 669.564 350.519C668.959 350.22 668.477 349.759 668.118 349.134C667.762 348.508 667.584 347.708 667.584 346.731V343.691H668.933V346.682C668.933 347.356 669.049 347.898 669.282 348.306C669.515 348.715 669.83 349.011 670.226 349.195C670.626 349.383 671.078 349.477 671.58 349.477C672.083 349.477 672.533 349.383 672.929 349.195C673.325 349.011 673.636 348.713 673.86 348.3C674.089 347.887 674.204 347.34 674.204 346.658V343.985H663V342.465ZM663 352.534H672.414V353.932H670.992V354.03C671.458 354.201 671.836 354.512 672.126 354.961C672.416 355.411 672.561 355.917 672.561 356.481C672.561 356.588 672.559 356.72 672.555 356.88C672.551 357.039 672.545 357.16 672.537 357.241H671.066C671.078 357.192 671.096 357.08 671.121 356.904C671.149 356.733 671.164 356.551 671.164 356.359C671.164 355.901 671.068 355.492 670.876 355.133C670.688 354.777 670.426 354.496 670.091 354.287C669.76 354.083 669.382 353.981 668.957 353.981H663V352.534ZM662.804 361.926C662.804 361.019 663.004 360.236 663.405 359.579C663.809 358.925 664.373 358.42 665.096 358.065C665.823 357.713 666.669 357.538 667.633 357.538C668.598 357.538 669.448 357.713 670.183 358.065C670.923 358.42 671.499 358.915 671.911 359.548C672.328 360.185 672.537 360.929 672.537 361.779C672.537 362.269 672.455 362.753 672.291 363.231C672.128 363.709 671.862 364.145 671.495 364.537C671.131 364.929 670.649 365.242 670.048 365.475C669.448 365.708 668.708 365.824 667.83 365.824H667.217V358.567H668.467V364.353C668.998 364.353 669.472 364.247 669.889 364.034C670.306 363.826 670.635 363.528 670.876 363.139C671.117 362.755 671.237 362.302 671.237 361.779C671.237 361.203 671.094 360.704 670.808 360.283C670.526 359.867 670.159 359.546 669.705 359.321C669.251 359.096 668.765 358.984 668.246 358.984H667.413C666.702 358.984 666.099 359.107 665.605 359.352C665.114 359.601 664.741 359.946 664.483 360.388C664.23 360.829 664.103 361.342 664.103 361.926C664.103 362.306 664.156 362.649 664.263 362.956C664.373 363.266 664.536 363.534 664.753 363.759C664.974 363.983 665.247 364.157 665.574 364.279L665.182 365.677C664.708 365.53 664.291 365.283 663.932 364.935C663.576 364.588 663.298 364.159 663.098 363.648C662.902 363.137 662.804 362.563 662.804 361.926ZM670.306 374.002L669.938 372.703C670.154 372.621 670.365 372.501 670.569 372.341C670.778 372.186 670.949 371.973 671.084 371.704C671.219 371.434 671.286 371.089 671.286 370.668C671.286 370.092 671.153 369.612 670.888 369.228C670.626 368.848 670.293 368.658 669.889 368.658C669.529 368.658 669.245 368.788 669.037 369.05C668.829 369.311 668.655 369.72 668.516 370.276L668.173 371.673C667.969 372.515 667.656 373.142 667.235 373.555C666.818 373.967 666.281 374.174 665.623 374.174C665.084 374.174 664.602 374.018 664.177 373.708C663.752 373.402 663.417 372.972 663.172 372.421C662.926 371.869 662.804 371.228 662.804 370.496C662.804 369.536 663.012 368.741 663.429 368.112C663.846 367.483 664.455 367.085 665.255 366.917L665.599 368.29C665.092 368.421 664.712 368.668 664.459 369.032C664.205 369.399 664.079 369.879 664.079 370.472C664.079 371.146 664.222 371.681 664.508 372.078C664.798 372.478 665.145 372.678 665.55 372.678C665.877 372.678 666.15 372.564 666.371 372.335C666.596 372.106 666.763 371.755 666.873 371.281L667.241 369.712C667.446 368.85 667.762 368.216 668.191 367.812C668.624 367.412 669.166 367.211 669.815 367.211C670.347 367.211 670.816 367.36 671.225 367.659C671.634 367.961 671.954 368.372 672.187 368.891C672.42 369.414 672.537 370.006 672.537 370.668C672.537 371.6 672.332 372.331 671.924 372.862C671.515 373.397 670.976 373.777 670.306 374.002ZM662.804 379.608C662.804 378.701 663.004 377.918 663.405 377.26C663.809 376.607 664.373 376.102 665.096 375.746C665.823 375.395 666.669 375.219 667.633 375.219C668.598 375.219 669.448 375.395 670.183 375.746C670.923 376.102 671.499 376.596 671.911 377.23C672.328 377.867 672.537 378.611 672.537 379.461C672.537 379.951 672.455 380.435 672.291 380.913C672.128 381.391 671.862 381.826 671.495 382.219C671.131 382.611 670.649 382.923 670.048 383.156C669.448 383.389 668.708 383.506 667.83 383.506H667.217V376.249H668.467V382.035C668.998 382.035 669.472 381.929 669.889 381.716C670.306 381.508 670.635 381.209 670.876 380.821C671.117 380.437 671.237 379.984 671.237 379.461C671.237 378.884 671.094 378.386 670.808 377.965C670.526 377.548 670.159 377.228 669.705 377.003C669.251 376.778 668.765 376.666 668.246 376.666H667.413C666.702 376.666 666.099 376.788 665.605 377.034C665.114 377.283 664.741 377.628 664.483 378.069C664.23 378.511 664.103 379.023 664.103 379.608C664.103 379.988 664.156 380.331 664.263 380.637C664.373 380.948 664.536 381.216 664.753 381.44C664.974 381.665 665.247 381.839 665.574 381.961L665.182 383.359C664.708 383.212 664.291 382.964 663.932 382.617C663.576 382.27 663.298 381.841 663.098 381.33C662.902 380.819 662.804 380.245 662.804 379.608ZM668.663 386.462H663V385.016H672.414V386.413H670.943V386.536C671.421 386.756 671.805 387.091 672.095 387.541C672.389 387.99 672.537 388.57 672.537 389.281C672.537 389.919 672.406 390.476 672.144 390.955C671.887 391.433 671.495 391.804 670.968 392.07C670.445 392.336 669.783 392.468 668.982 392.468H663V391.022H668.884C669.623 391.022 670.199 390.83 670.612 390.446C671.029 390.062 671.237 389.535 671.237 388.865C671.237 388.403 671.137 387.99 670.937 387.627C670.737 387.267 670.445 386.983 670.061 386.775C669.676 386.566 669.211 386.462 668.663 386.462ZM662.804 398.246C662.804 397.363 663.012 396.603 663.429 395.966C663.846 395.328 664.42 394.838 665.151 394.495C665.883 394.151 666.718 393.98 667.658 393.98C668.614 393.98 669.458 394.156 670.189 394.507C670.925 394.862 671.499 395.357 671.911 395.99C672.328 396.628 672.537 397.371 672.537 398.221C672.537 398.883 672.414 399.48 672.169 400.011C671.924 400.542 671.58 400.977 671.139 401.316C670.698 401.655 670.183 401.866 669.595 401.947V400.501C670.024 400.391 670.404 400.146 670.735 399.766C671.07 399.39 671.237 398.883 671.237 398.246C671.237 397.682 671.09 397.187 670.796 396.762C670.506 396.341 670.095 396.013 669.564 395.776C669.037 395.543 668.418 395.426 667.707 395.426C666.98 395.426 666.346 395.541 665.807 395.769C665.268 396.002 664.849 396.329 664.551 396.75C664.252 397.175 664.103 397.674 664.103 398.246C664.103 398.621 664.169 398.963 664.299 399.269C664.43 399.576 664.618 399.835 664.863 400.047C665.108 400.26 665.403 400.411 665.746 400.501V401.947C665.19 401.866 664.69 401.663 664.244 401.341C663.803 401.022 663.451 400.599 663.19 400.072C662.933 399.549 662.804 398.94 662.804 398.246ZM662.804 407.319C662.804 406.411 663.004 405.629 663.405 404.971C663.809 404.317 664.373 403.813 665.096 403.457C665.823 403.106 666.669 402.93 667.633 402.93C668.598 402.93 669.448 403.106 670.183 403.457C670.923 403.813 671.499 404.307 671.911 404.941C672.328 405.578 672.537 406.322 672.537 407.171C672.537 407.662 672.455 408.146 672.291 408.624C672.128 409.102 671.862 409.537 671.495 409.929C671.131 410.322 670.649 410.634 670.048 410.867C669.448 411.1 668.708 411.217 667.83 411.217H667.217V403.96H668.467V409.746C668.998 409.746 669.472 409.639 669.889 409.427C670.306 409.219 670.635 408.92 670.876 408.532C671.117 408.148 671.237 407.694 671.237 407.171C671.237 406.595 671.094 406.097 670.808 405.676C670.526 405.259 670.159 404.938 669.705 404.714C669.251 404.489 668.765 404.377 668.246 404.377H667.413C666.702 404.377 666.099 404.499 665.605 404.744C665.114 404.994 664.741 405.339 664.483 405.78C664.23 406.221 664.103 406.734 664.103 407.319C664.103 407.699 664.156 408.042 664.263 408.348C664.373 408.659 664.536 408.926 664.753 409.151C664.974 409.376 665.247 409.549 665.574 409.672L665.182 411.069C664.708 410.922 664.291 410.675 663.932 410.328C663.576 409.981 663.298 409.552 663.098 409.041C662.902 408.53 662.804 407.956 662.804 407.319Z" fill="#666666"/>
<path d="M35.5061 35.1264L33.985 35.1256C33.9267 34.8005 33.818 34.5145 33.6588 34.2673C33.4997 34.0202 33.3048 33.8105 33.0742 33.6381C32.8435 33.4657 32.5852 33.3356 32.2992 33.2476C32.0165 33.1597 31.7159 33.1157 31.3974 33.1155C30.8221 33.1152 30.3069 33.2595 29.8517 33.5485C29.3998 33.8375 29.042 34.2615 28.7784 34.8203C28.5181 35.3792 28.3877 36.0617 28.3872 36.8677C28.3868 37.6802 28.5164 38.3661 28.7761 38.9253C29.039 39.4845 29.3979 39.9072 29.8528 40.1934C30.3076 40.4797 30.8194 40.623 31.3882 40.6233C31.7035 40.6235 32.0025 40.5814 32.2853 40.4971C32.5714 40.4095 32.8299 40.2813 33.0607 40.1124C33.2916 39.9435 33.4867 39.7373 33.6461 39.4936C33.8087 39.2467 33.921 38.964 33.983 38.6455L35.504 38.6512C35.4225 39.142 35.2646 39.5936 35.0304 40.0063C34.7994 40.4157 34.5018 40.7698 34.1376 41.0686C33.7767 41.3641 33.3638 41.593 32.8989 41.7553C32.434 41.9175 31.927 41.9985 31.3777 41.9982C30.5131 41.9977 29.743 41.7925 29.0672 41.3826C28.3914 40.9694 27.8587 40.3792 27.4691 39.6119C27.0828 38.8447 26.8899 37.9297 26.8905 36.8669C26.8911 35.8008 27.0867 34.886 27.4771 34.1224C27.8676 33.3556 28.4009 32.7677 29.0772 32.3585C29.7535 31.9461 30.5223 31.7402 31.3835 31.7407C31.9133 31.741 32.4073 31.8176 32.8655 31.9707C33.3269 32.1204 33.7412 32.3417 34.1083 32.6344C34.4754 32.9239 34.7791 33.2783 35.0193 33.6977C35.2596 34.1139 35.4219 34.5901 35.5061 35.1264ZM39.7929 42.0176C39.0908 42.0172 38.4783 41.856 37.9552 41.5339C37.4321 41.2118 37.0261 40.7614 36.7371 40.1828C36.4482 39.6041 36.304 38.928 36.3044 38.1544C36.3048 37.3776 36.4499 36.6984 36.7395 36.1168C37.0291 35.5352 37.4356 35.0837 37.959 34.7622C38.4825 34.4407 39.0952 34.2802 39.7973 34.2806C40.4993 34.281 41.1119 34.4422 41.635 34.7643C42.158 35.0864 42.5641 35.5384 42.853 36.1203C43.1419 36.7023 43.2862 37.3816 43.2857 38.1584C43.2853 38.9319 43.1403 39.6079 42.8507 40.1862C42.5611 40.7646 42.1545 41.2145 41.6311 41.536C41.1076 41.8575 40.4949 42.018 39.7929 42.0176ZM39.7984 40.7939C40.2534 40.7942 40.6305 40.6741 40.9297 40.4338C41.2288 40.1934 41.45 39.8734 41.5933 39.4737C41.7398 39.0741 41.8131 38.6337 41.8134 38.1527C41.8137 37.6749 41.7408 37.2361 41.5948 36.8363C41.452 36.4332 41.2312 36.1096 40.9323 35.8657C40.6334 35.6218 40.2565 35.4997 39.8015 35.4994C39.3432 35.4992 38.9628 35.6208 38.6604 35.8644C38.3613 36.108 38.1385 36.4313 37.992 36.8342C37.8487 37.2339 37.777 37.6726 37.7767 38.1504C37.7764 38.6314 37.8477 39.0718 37.9905 39.4717C38.1365 39.8715 38.359 40.1918 38.6578 40.4325C38.96 40.6732 39.3402 40.7936 39.7984 40.7939ZM45.8218 37.4237L45.8193 41.8699L44.3616 41.8691L44.3658 34.3807L45.765 34.3815L45.7643 35.6003L45.857 35.6004C46.0294 35.204 46.2994 34.8856 46.6668 34.6453C47.0375 34.405 47.5039 34.285 48.0662 34.2853C48.5765 34.2856 49.0233 34.3931 49.4067 34.6079C49.7901 34.8193 50.0873 35.1348 50.2983 35.5542C50.5093 35.9736 50.6147 36.492 50.6143 37.1095L50.6116 41.8726L49.1539 41.8718L49.1565 37.2842C49.1568 36.7414 49.0157 36.3172 48.7331 36.0115C48.4505 35.7026 48.0622 35.548 47.5682 35.5477C47.2302 35.5475 46.9295 35.6205 46.6662 35.7666C46.4061 35.9127 46.1996 36.1271 46.0466 36.4098C45.897 36.6892 45.822 37.0272 45.8218 37.4237ZM55.5172 34.3871L55.5166 35.5571L51.4263 35.5548L51.4269 34.3848L55.5172 34.3871ZM52.5249 32.5913L53.9826 32.5921L53.9785 39.6758C53.9784 39.9586 54.0205 40.1715 54.1049 40.3146C54.1893 40.4544 54.2982 40.5503 54.4314 40.6024C54.5679 40.6512 54.7157 40.6757 54.875 40.6758C54.992 40.6758 55.0944 40.6678 55.1821 40.6516C55.2699 40.6354 55.3382 40.6224 55.3869 40.6127L55.6495 41.817C55.565 41.8495 55.4447 41.8819 55.2887 41.9143C55.1326 41.95 54.9376 41.9694 54.7036 41.9725C54.3201 41.9788 53.9626 41.9103 53.6312 41.7671C53.2997 41.6239 53.0317 41.4027 52.8271 41.1036C52.6226 40.8045 52.5204 40.429 52.5207 39.9773L52.5249 32.5913ZM59.7232 42.029C58.9854 42.0286 58.3501 41.8706 57.8172 41.555C57.2876 41.2362 56.8784 40.789 56.5894 40.2136C56.3037 39.6349 56.1611 38.9572 56.1616 38.1804C56.162 37.4133 56.3054 36.7374 56.5917 36.1525C56.8813 35.5677 57.2846 35.1113 57.8016 34.7833C58.3218 34.4553 58.9297 34.2915 59.6252 34.2919C60.0477 34.2922 60.4572 34.3623 60.8536 34.5023C61.2501 34.6423 61.6058 34.8618 61.9209 35.161C62.236 35.4602 62.4844 35.8488 62.6662 36.3266C62.8479 36.8013 62.9386 37.3782 62.9382 38.0575L62.9379 38.5743L56.9853 38.5709L56.9859 37.4788L61.5101 37.4814C61.5103 37.0979 61.4325 36.7582 61.2767 36.4624C61.1208 36.1632 60.9016 35.9275 60.6189 35.7551C60.3395 35.5827 60.0113 35.4963 59.6343 35.4961C59.2247 35.4959 58.8672 35.5964 58.5615 35.7978C58.2592 35.9959 58.025 36.2557 57.8591 36.5774C57.6964 36.8958 57.6149 37.2419 57.6147 37.6157L57.6142 38.4689C57.6139 38.9694 57.7014 39.3952 57.8768 39.7463C58.0553 40.0974 58.3038 40.3657 58.6222 40.5512C58.9406 40.7333 59.3127 40.8246 59.7385 40.8248C60.0147 40.825 60.2666 40.7861 60.4942 40.7082C60.7218 40.6271 60.9185 40.507 61.0843 40.3478C61.2502 40.1886 61.377 39.9921 61.4649 39.7581L62.8445 40.0075C62.7337 40.4137 62.5353 40.7695 62.2491 41.0749C61.9661 41.377 61.6101 41.6124 61.181 41.7812C60.7551 41.9467 60.2692 42.0293 59.7232 42.029ZM65.4645 37.4349L65.4619 41.8811L64.0042 41.8803L64.0085 34.3919L65.4077 34.3927L65.407 35.6115L65.4996 35.6116C65.6721 35.2152 65.9421 34.8968 66.3095 34.6565C66.6801 34.4162 67.1466 34.2962 67.7089 34.2966C68.2191 34.2968 68.666 34.4044 69.0494 34.6191C69.4328 34.8306 69.73 35.146 69.941 35.5654C70.152 35.9848 70.2573 36.5032 70.257 37.1208L70.2543 41.8839L68.7966 41.883L68.7992 37.2954C68.7995 36.7527 68.6584 36.3284 68.3758 36.0228C68.0932 35.7138 67.7049 35.5592 67.2109 35.559C66.8728 35.5588 66.5722 35.6317 66.3088 35.7778C66.0487 35.9239 65.8422 36.1383 65.6893 36.421C65.5396 36.7004 65.4647 37.0384 65.4645 37.4349ZM74.4633 42.0325C73.8587 42.0322 73.3193 41.8775 72.845 41.5684C72.3739 41.2562 72.0036 40.8123 71.7342 40.2369C71.468 39.6582 71.3351 38.9642 71.3356 38.1549C71.336 37.3456 71.4713 36.6534 71.7414 36.0783C72.0148 35.5032 72.3888 35.063 72.8635 34.7578C73.3382 34.4525 73.8762 34.3001 74.4774 34.3004C74.9422 34.3007 75.3159 34.3789 75.5986 34.5351C75.8845 34.688 76.1054 34.8669 76.2613 35.0717C76.4205 35.2766 76.5439 35.457 76.6315 35.6131L76.7193 35.6131L76.7214 31.9031L78.1791 31.9039L78.1734 41.8884L76.7498 41.8876L76.7505 40.7224L76.6286 40.7223C76.5408 40.8815 76.4139 41.0635 76.248 41.2681C76.0854 41.4728 75.861 41.6514 75.5749 41.804C75.2888 41.9566 74.9183 42.0328 74.4633 42.0325ZM74.7857 40.7895C75.205 40.7898 75.5593 40.6795 75.8487 40.4586C76.1414 40.2345 76.3626 39.9243 76.5123 39.5278C76.6653 39.1314 76.7419 38.6699 76.7422 38.1434C76.7425 37.6234 76.668 37.1683 76.5187 36.7782C76.3694 36.3881 76.1502 36.0841 75.8611 35.8662C75.572 35.6482 75.2145 35.5391 74.7887 35.5389C74.35 35.5387 73.9843 35.6522 73.6916 35.8795C73.399 36.1069 73.1778 36.4171 73.0281 36.8103C72.8816 37.2035 72.8082 37.6471 72.8079 38.1411C72.8076 38.6417 72.8821 39.0919 73.0314 39.4917C73.1807 39.8916 73.4015 40.2086 73.6939 40.4428C73.9895 40.6737 74.3535 40.7893 74.7857 40.7895ZM82.9321 42.0422C82.1943 42.0418 81.559 41.8838 81.0261 41.5682C80.4965 41.2494 80.0873 40.8023 79.7983 40.2269C79.5126 39.6482 79.37 38.9704 79.3705 38.1936C79.3709 37.4266 79.5143 36.7507 79.8006 36.1658C80.0902 35.5809 80.4935 35.1245 81.0105 34.7965C81.5307 34.4686 82.1386 34.3048 82.8341 34.3052C83.2566 34.3054 83.6661 34.3755 84.0625 34.5155C84.459 34.6555 84.8147 34.8751 85.1298 35.1743C85.4449 35.4735 85.6933 35.862 85.8751 36.3399C86.0568 36.8145 86.1475 37.3915 86.1471 38.0708L86.1468 38.5875L80.1942 38.5841L80.1948 37.4921L84.719 37.4947C84.7192 37.1112 84.6414 36.7715 84.4856 36.4756C84.3297 36.1765 84.1105 35.9407 83.8278 35.7683C83.5484 35.5959 83.2202 35.5096 82.8432 35.5094C82.4336 35.5091 82.0761 35.6097 81.7704 35.811C81.4681 36.0091 81.2339 36.269 81.068 36.5907C80.9053 36.9091 80.8238 37.2552 80.8236 37.6289L80.8231 38.4821C80.8228 38.9826 80.9103 39.4085 81.0857 39.7596C81.2642 40.1107 81.5127 40.379 81.8311 40.5644C82.1495 40.7466 82.5216 40.8378 82.9474 40.8381C83.2236 40.8382 83.4755 40.7994 83.7031 40.7215C83.9307 40.6404 84.1274 40.5202 84.2932 40.3611C84.4591 40.2019 84.5859 40.0053 84.6738 39.7714L86.0534 40.0208C85.9426 40.427 85.7442 40.7828 85.458 41.0881C85.175 41.3902 84.819 41.6257 84.3899 41.7944C83.964 41.9599 83.4781 42.0425 82.9321 42.0422ZM87.2131 41.8935L87.2174 34.4052L88.6263 34.406L88.6257 35.5956L88.7037 35.5956C88.8404 35.1927 89.0811 34.8759 89.4257 34.6453C89.7736 34.4115 90.167 34.2948 90.6057 34.295C90.6968 34.2951 90.804 34.2984 90.9275 34.3049C91.0543 34.3115 91.1534 34.3197 91.2249 34.3295L91.2241 35.7238C91.1656 35.7075 91.0616 35.6896 90.9121 35.67C90.7626 35.6472 90.6131 35.6357 90.4636 35.6356C90.1191 35.6354 89.8119 35.7084 89.5421 35.8545C89.2755 35.9973 89.0641 36.1971 88.9079 36.4538C88.7518 36.7072 88.6736 36.9964 88.6734 37.3214L88.6708 41.8944L87.2131 41.8935ZM97.5475 36.2393L96.2262 36.4726C96.171 36.3035 96.0834 36.1426 95.9632 35.9898C95.8463 35.8369 95.6871 35.7117 95.4856 35.6141C95.2842 35.5165 95.0323 35.4676 94.7301 35.4674C94.3173 35.4672 93.9727 35.5596 93.6964 35.7447C93.42 35.9266 93.2817 36.1621 93.2816 36.4514C93.2814 36.7016 93.3739 36.9032 93.5591 37.0561C93.7443 37.2089 94.0432 37.3342 94.4559 37.432L95.6453 37.7057C96.3343 37.8653 96.8476 38.111 97.1855 38.4427C97.5233 38.7744 97.6921 39.2052 97.6918 39.7349C97.6915 40.1835 97.5613 40.5831 97.3011 40.934C97.0441 41.2816 96.6848 41.5544 96.2232 41.7524C95.7648 41.9504 95.2333 42.0493 94.6288 42.0489C93.7903 42.0484 93.1062 41.8693 92.5766 41.5115C92.0471 41.1504 91.7223 40.6383 91.6025 39.9752L93.0115 39.7615C93.0991 40.1288 93.2793 40.4068 93.5522 40.5955C93.8251 40.7809 94.1809 40.8737 94.6197 40.874C95.0975 40.8743 95.4794 40.7753 95.7656 40.5772C96.0517 40.3759 96.1948 40.1306 96.195 39.8413C96.1951 39.6073 96.1075 39.4106 95.9321 39.2513C95.7599 39.0919 95.4951 38.9715 95.1376 38.8901L93.8702 38.6114C93.1715 38.4518 92.6549 38.198 92.3203 37.85C91.989 37.5021 91.8235 37.0616 91.8238 36.5286C91.8241 36.0865 91.9478 35.6998 92.195 35.3685C92.4422 35.0371 92.7836 34.7789 93.2192 34.5939C93.6549 34.4056 94.1538 34.3117 94.7161 34.312C95.5254 34.3124 96.1623 34.4883 96.6269 34.8396C97.0915 35.1876 97.3983 35.6542 97.5475 36.2393Z" fill="#4D5360"/>
<path d="M621.273 41.8614L621.278 31.877L622.785 31.8778L622.78 40.5655L627.304 40.5681L627.303 41.8649L621.273 41.8614ZM631.583 42.0185C630.845 42.018 630.21 41.86 629.677 41.5445C629.147 41.2257 628.738 40.7785 628.449 40.2031C628.164 39.6244 628.021 38.9467 628.021 38.1699C628.022 37.4028 628.165 36.7269 628.452 36.142C628.741 35.5572 629.144 35.1008 629.661 34.7728C630.182 34.4448 630.79 34.281 631.485 34.2814C631.908 34.2817 632.317 34.3518 632.713 34.4918C633.11 34.6317 633.466 34.8513 633.781 35.1505C634.096 35.4497 634.344 35.8383 634.526 36.3161C634.708 36.7908 634.798 37.3677 634.798 38.047L634.798 38.5638L628.845 38.5604L628.846 37.4683L633.37 37.4709C633.37 37.0874 633.292 36.7477 633.137 36.4518C632.981 36.1527 632.761 35.917 632.479 35.7446C632.199 35.5721 631.871 35.4858 631.494 35.4856C631.085 35.4854 630.727 35.5859 630.421 35.7873C630.119 35.9853 629.885 36.2452 629.719 36.5669C629.556 36.8853 629.475 37.2314 629.475 37.6052L629.474 38.4583C629.474 38.9589 629.561 39.3847 629.737 39.7358C629.915 40.0869 630.164 40.3552 630.482 40.5406C630.8 40.7228 631.173 40.8141 631.598 40.8143C631.875 40.8145 632.127 40.7756 632.354 40.6977C632.582 40.6166 632.778 40.4965 632.944 40.3373C633.11 40.1781 633.237 39.9816 633.325 39.7476L634.704 39.997C634.594 40.4032 634.395 40.759 634.109 41.0644C633.826 41.3665 633.47 41.6019 633.041 41.7707C632.615 41.9362 632.129 42.0188 631.583 42.0185ZM638.043 42.0368C637.569 42.0365 637.14 41.9485 636.756 41.7728C636.373 41.5938 636.069 41.3352 635.845 40.9971C635.624 40.659 635.514 40.2445 635.514 39.7537C635.515 39.3312 635.596 38.9835 635.759 38.7106C635.921 38.4377 636.141 38.2216 636.417 38.0625C636.694 37.9034 637.002 37.7834 637.344 37.7023C637.685 37.6212 638.033 37.5597 638.387 37.5176C638.836 37.4659 639.2 37.4239 639.479 37.3915C639.759 37.3559 639.962 37.2992 640.089 37.2212C640.215 37.1433 640.279 37.0166 640.279 36.8411L640.279 36.8069C640.279 36.3812 640.159 36.0512 639.919 35.8171C639.682 35.5829 639.328 35.4657 638.856 35.4654C638.365 35.4652 637.979 35.5738 637.696 35.7914C637.416 36.0058 637.223 36.2445 637.115 36.5077L635.745 36.1949C635.908 35.74 636.146 35.3729 636.458 35.0936C636.773 34.811 637.136 34.6064 637.545 34.4799C637.955 34.3501 638.386 34.2854 638.837 34.2856C639.136 34.2858 639.453 34.3217 639.788 34.3934C640.126 34.4619 640.441 34.5888 640.734 34.7742C641.029 34.9597 641.271 35.2247 641.46 35.5693C641.648 35.9107 641.742 36.3544 641.742 36.9004L641.739 41.8731L640.315 41.8723L640.316 40.8485L640.257 40.8485C640.163 41.0369 640.021 41.2221 639.833 41.404C639.644 41.5859 639.402 41.7369 639.106 41.857C638.81 41.9771 638.456 42.037 638.043 42.0368ZM638.361 40.8669C638.764 40.8671 639.108 40.7877 639.394 40.6286C639.684 40.4695 639.903 40.2616 640.053 40.005C640.206 39.745 640.282 39.4672 640.283 39.1714L640.283 38.2061C640.231 38.2581 640.13 38.3068 639.981 38.3522C639.835 38.3944 639.667 38.4317 639.479 38.4641C639.29 38.4932 639.106 38.5207 638.928 38.5466C638.749 38.5693 638.599 38.5887 638.479 38.6049C638.196 38.6405 637.938 38.7004 637.704 38.7848C637.473 38.8692 637.288 38.991 637.148 39.1501C637.011 39.3061 636.943 39.514 636.943 39.774C636.943 40.1348 637.076 40.4079 637.342 40.5933C637.608 40.7755 637.948 40.8667 638.361 40.8669ZM645.934 42.0218C645.33 42.0214 644.79 41.8668 644.316 41.5577C643.845 41.2454 643.475 40.8016 643.205 40.2261C642.939 39.6475 642.806 38.9535 642.807 38.1442C642.807 37.3349 642.942 36.6427 643.212 36.0676C643.486 35.4925 643.86 35.0523 644.335 34.747C644.809 34.4418 645.347 34.2893 645.948 34.2897C646.413 34.29 646.787 34.3682 647.07 34.5243C647.356 34.6773 647.576 34.8561 647.732 35.061C647.892 35.2658 648.015 35.4463 648.103 35.6024L648.19 35.6024L648.192 31.8924L649.65 31.8932L649.644 41.8777L648.221 41.8768L648.222 40.7117L648.1 40.7116C648.012 40.8708 647.885 41.0527 647.719 41.2574C647.556 41.4621 647.332 41.6407 647.046 41.7933C646.76 41.9459 646.389 42.022 645.934 42.0218ZM646.257 40.7788C646.676 40.779 647.03 40.6687 647.32 40.4479C647.612 40.2238 647.834 39.9135 647.983 39.5171C648.136 39.1207 648.213 38.6592 648.213 38.1327C648.214 37.6126 648.139 37.1576 647.99 36.7675C647.841 36.3774 647.621 36.0734 647.332 35.8554C647.043 35.6375 646.686 35.5284 646.26 35.5282C645.821 35.5279 645.455 35.6415 645.163 35.8688C644.87 36.0962 644.649 36.4064 644.499 36.7996C644.353 37.1928 644.279 37.6364 644.279 38.1304C644.279 38.6309 644.353 39.0811 644.502 39.481C644.652 39.8808 644.873 40.1978 645.165 40.432C645.461 40.663 645.825 40.7785 646.257 40.7788ZM654.403 42.0315C653.665 42.0311 653.03 41.8731 652.497 41.5575C651.968 41.2387 651.558 40.7916 651.269 40.2161C650.984 39.6374 650.841 38.9597 650.842 38.1829C650.842 37.4159 650.985 36.7399 651.272 36.1551C651.561 35.5702 651.965 35.1138 652.482 34.7858C653.002 34.4579 653.61 34.2941 654.305 34.2945C654.728 34.2947 655.137 34.3648 655.534 34.5048C655.93 34.6448 656.286 34.8644 656.601 35.1636C656.916 35.4628 657.164 35.8513 657.346 36.3292C657.528 36.8038 657.619 37.3807 657.618 38.06L657.618 38.5768L651.665 38.5734L651.666 37.4814L656.19 37.4839C656.19 37.1004 656.112 36.7607 655.957 36.4649C655.801 36.1658 655.582 35.93 655.299 35.7576C655.019 35.5852 654.691 35.4989 654.314 35.4986C653.905 35.4984 653.547 35.599 653.241 35.8003C652.939 35.9984 652.705 36.2583 652.539 36.5799C652.376 36.8984 652.295 37.2445 652.295 37.6182L652.294 38.4714C652.294 38.9719 652.381 39.3977 652.557 39.7488C652.735 40.1 652.984 40.3682 653.302 40.5537C653.621 40.7359 653.993 40.8271 654.418 40.8273C654.695 40.8275 654.947 40.7886 655.174 40.7108C655.402 40.6296 655.598 40.5095 655.764 40.3503C655.93 40.1912 656.057 39.9946 656.145 39.7606L657.524 40.0101C657.414 40.4163 657.215 40.7721 656.929 41.0774C656.646 41.3795 656.29 41.6149 655.861 41.7837C655.435 41.9492 654.949 42.0318 654.403 42.0315ZM658.684 41.8828L658.688 34.3945L660.097 34.3953L660.097 35.5848L660.175 35.5849C660.311 35.1819 660.552 34.8652 660.897 34.6346C661.245 34.4008 661.638 34.284 662.077 34.2843C662.168 34.2843 662.275 34.2876 662.399 34.2942C662.525 34.3008 662.624 34.309 662.696 34.3188L662.695 35.7131C662.637 35.6968 662.533 35.6789 662.383 35.6593C662.234 35.6364 662.084 35.625 661.935 35.6249C661.59 35.6247 661.283 35.6976 661.013 35.8437C660.747 35.9866 660.535 36.1864 660.379 36.443C660.223 36.6965 660.145 36.9857 660.144 37.3107L660.142 41.8836L658.684 41.8828ZM669.019 36.2286L667.697 36.4618C667.642 36.2928 667.554 36.1319 667.434 35.979C667.317 35.8262 667.158 35.701 666.957 35.6034C666.755 35.5058 666.503 35.4569 666.201 35.4567C665.788 35.4565 665.444 35.5489 665.167 35.734C664.891 35.9158 664.753 36.1514 664.753 36.4407C664.752 36.6909 664.845 36.8925 665.03 37.0453C665.215 37.1982 665.514 37.3235 665.927 37.4212L667.116 37.6949C667.805 37.8546 668.319 38.1003 668.657 38.432C668.994 38.7637 669.163 39.1944 669.163 39.7242C669.163 40.1727 669.032 40.5724 668.772 40.9233C668.515 41.2709 668.156 41.5437 667.694 41.7417C667.236 41.9397 666.704 42.0385 666.1 42.0382C665.261 42.0377 664.577 41.8586 664.048 41.5007C663.518 41.1397 663.193 40.6276 663.074 39.9645L664.483 39.7508C664.57 40.1181 664.75 40.3961 665.023 40.5848C665.296 40.7702 665.652 40.863 666.091 40.8633C666.569 40.8635 666.95 40.7646 667.237 40.5665C667.523 40.3652 667.666 40.1199 667.666 39.8306C667.666 39.5966 667.579 39.3999 667.403 39.2405C667.231 39.0812 666.966 38.9608 666.609 38.8793L665.341 38.6007C664.643 38.4411 664.126 38.1873 663.791 37.8393C663.46 37.4913 663.295 37.0509 663.295 36.5178C663.295 36.0758 663.419 35.6891 663.666 35.3577C663.913 35.0264 664.255 34.7682 664.69 34.5832C665.126 34.3949 665.625 34.3009 666.187 34.3013C666.996 34.3017 667.633 34.4776 668.098 34.8289C668.563 35.1769 668.869 35.6435 669.019 36.2286Z" fill="#4D5360"/>
<path d="M314.32 663.593C314.247 662.972 313.949 662.489 313.426 662.146C312.904 661.802 312.262 661.63 311.502 661.63C310.946 661.63 310.46 661.719 310.043 661.899C309.631 662.078 309.308 662.325 309.075 662.64C308.846 662.954 308.731 663.312 308.731 663.712C308.731 664.047 308.81 664.335 308.969 664.577C309.133 664.814 309.341 665.012 309.594 665.171C309.847 665.327 310.113 665.456 310.391 665.558C310.668 665.656 310.924 665.736 311.157 665.797L312.431 666.141C312.758 666.227 313.122 666.346 313.522 666.497C313.926 666.649 314.312 666.855 314.68 667.117C315.052 667.375 315.358 667.706 315.599 668.111C315.84 668.515 315.96 669.012 315.959 669.6C315.959 670.278 315.781 670.891 315.425 671.438C315.074 671.986 314.558 672.421 313.88 672.743C313.206 673.065 312.386 673.226 311.422 673.226C310.523 673.225 309.745 673.08 309.087 672.789C308.434 672.499 307.919 672.094 307.543 671.575C307.172 671.056 306.962 670.453 306.913 669.767L308.482 669.767C308.523 670.241 308.682 670.634 308.959 670.944C309.241 671.251 309.597 671.48 310.026 671.632C310.459 671.779 310.924 671.853 311.423 671.853C312.003 671.853 312.524 671.76 312.986 671.572C313.448 671.38 313.813 671.115 314.083 670.776C314.353 670.433 314.488 670.032 314.489 669.575C314.489 669.158 314.373 668.819 314.14 668.557C313.907 668.296 313.601 668.083 313.221 667.919C312.841 667.756 312.43 667.612 311.989 667.49L310.445 667.047C309.464 666.765 308.688 666.362 308.117 665.839C307.545 665.315 307.259 664.631 307.26 663.785C307.26 663.082 307.45 662.469 307.831 661.947C308.215 661.42 308.73 661.011 309.376 660.722C310.026 660.428 310.751 660.281 311.552 660.282C312.361 660.282 313.08 660.428 313.709 660.718C314.338 661.004 314.836 661.397 315.204 661.896C315.575 662.394 315.771 662.96 315.791 663.594L314.32 663.593ZM320.34 673.231C319.744 673.231 319.202 673.118 318.716 672.893C318.23 672.664 317.844 672.335 317.558 671.906C317.273 671.472 317.13 670.949 317.13 670.336C317.131 669.797 317.237 669.36 317.45 669.025C317.662 668.686 317.947 668.42 318.302 668.229C318.658 668.037 319.05 667.894 319.479 667.8C319.912 667.702 320.348 667.625 320.785 667.568C321.357 667.495 321.821 667.44 322.176 667.403C322.536 667.363 322.797 667.295 322.961 667.202C323.128 667.108 323.212 666.944 323.212 666.711L323.212 666.662C323.213 666.058 323.047 665.588 322.717 665.252C322.39 664.917 321.894 664.749 321.228 664.749C320.537 664.749 319.996 664.9 319.603 665.202C319.211 665.504 318.935 665.826 318.775 666.17L317.403 665.678C317.648 665.107 317.975 664.661 318.384 664.343C318.797 664.02 319.247 663.796 319.733 663.669C320.223 663.539 320.705 663.474 321.179 663.474C321.482 663.474 321.829 663.511 322.221 663.585C322.618 663.655 322.999 663.8 323.367 664.021C323.739 664.242 324.047 664.575 324.292 665.02C324.537 665.466 324.659 666.063 324.659 666.81L324.655 673.013L323.209 673.012L323.209 671.737L323.136 671.737C323.038 671.941 322.874 672.16 322.645 672.393C322.416 672.625 322.112 672.823 321.732 672.987C321.352 673.15 320.888 673.231 320.34 673.231ZM320.562 671.932C321.134 671.932 321.616 671.82 322.008 671.595C322.405 671.371 322.703 671.081 322.904 670.726C323.108 670.37 323.21 669.997 323.211 669.604L323.211 668.28C323.15 668.354 323.015 668.421 322.807 668.482C322.602 668.54 322.365 668.59 322.096 668.635C321.83 668.676 321.571 668.713 321.317 668.745C321.068 668.774 320.866 668.798 320.711 668.818C320.335 668.867 319.983 668.947 319.656 669.057C319.333 669.163 319.072 669.324 318.871 669.54C318.675 669.753 318.577 670.043 318.577 670.411C318.576 670.913 318.762 671.293 319.134 671.551C319.51 671.804 319.986 671.931 320.562 671.932ZM330.704 663.602L330.704 664.828L325.825 664.825L325.826 663.599L330.704 663.602ZM327.249 661.345L328.695 661.346L328.69 670.318C328.69 670.727 328.749 671.033 328.867 671.238C328.99 671.438 329.145 671.573 329.333 671.643C329.525 671.708 329.727 671.741 329.94 671.741C330.099 671.741 330.23 671.733 330.332 671.717C330.434 671.696 330.516 671.68 330.577 671.668L330.871 672.967C330.772 673.004 330.636 673.041 330.46 673.077C330.284 673.118 330.061 673.138 329.792 673.138C329.383 673.138 328.983 673.05 328.591 672.874C328.203 672.698 327.88 672.43 327.623 672.071C327.37 671.711 327.243 671.257 327.244 670.71L327.249 661.345ZM332.184 673.017L332.19 663.603L333.636 663.604L333.631 673.018L332.184 673.017ZM332.926 662.034C332.644 662.034 332.401 661.938 332.197 661.746C331.997 661.554 331.897 661.323 331.897 661.053C331.897 660.784 331.997 660.553 332.198 660.361C332.402 660.169 332.645 660.073 332.927 660.073C333.209 660.073 333.45 660.17 333.65 660.362C333.854 660.554 333.956 660.785 333.956 661.054C333.956 661.324 333.854 661.555 333.649 661.747C333.449 661.939 333.208 662.035 332.926 662.034ZM342.262 665.717L340.962 666.084C340.881 665.868 340.76 665.657 340.601 665.453C340.446 665.244 340.234 665.072 339.964 664.937C339.695 664.802 339.349 664.735 338.928 664.735C338.352 664.734 337.872 664.867 337.488 665.132C337.108 665.393 336.918 665.726 336.917 666.131C336.917 666.49 337.048 666.774 337.309 666.983C337.571 667.192 337.979 667.365 338.535 667.505L339.932 667.849C340.773 668.053 341.4 668.366 341.813 668.787C342.225 669.204 342.431 669.742 342.431 670.4C342.431 670.939 342.275 671.421 341.964 671.846C341.658 672.271 341.228 672.605 340.677 672.85C340.125 673.095 339.483 673.217 338.752 673.217C337.792 673.216 336.997 673.008 336.368 672.59C335.739 672.173 335.341 671.564 335.174 670.763L336.547 670.421C336.678 670.928 336.925 671.308 337.288 671.561C337.656 671.815 338.136 671.942 338.728 671.942C339.402 671.942 339.938 671.8 340.334 671.514C340.735 671.224 340.935 670.877 340.935 670.472C340.936 670.146 340.821 669.872 340.593 669.651C340.364 669.426 340.013 669.258 339.539 669.148L337.97 668.779C337.108 668.574 336.475 668.257 336.071 667.828C335.67 667.395 335.471 666.853 335.471 666.204C335.471 665.672 335.621 665.203 335.919 664.794C336.222 664.386 336.633 664.065 337.152 663.833C337.675 663.6 338.267 663.484 338.929 663.484C339.861 663.485 340.592 663.69 341.123 664.098C341.658 664.507 342.038 665.047 342.262 665.717ZM348.114 663.612L348.113 664.838L343.039 664.835L343.039 663.609L348.114 663.612ZM344.554 673.024L344.56 662.311C344.56 661.771 344.687 661.322 344.941 660.963C345.194 660.603 345.523 660.334 345.928 660.154C346.333 659.975 346.76 659.885 347.209 659.885C347.564 659.885 347.855 659.914 348.079 659.972C348.304 660.029 348.471 660.082 348.582 660.131L348.164 661.381C348.091 661.357 347.989 661.326 347.858 661.289C347.731 661.252 347.564 661.234 347.355 661.234C346.877 661.233 346.532 661.354 346.319 661.595C346.111 661.836 346.006 662.189 346.006 662.655L346 673.025L344.554 673.024ZM351.946 673.249C351.349 673.249 350.808 673.136 350.322 672.911C349.836 672.682 349.45 672.353 349.164 671.924C348.878 671.49 348.736 670.967 348.736 670.354C348.736 669.815 348.843 669.378 349.055 669.043C349.268 668.704 349.552 668.438 349.908 668.247C350.263 668.055 350.656 667.912 351.085 667.818C351.518 667.72 351.953 667.643 352.39 667.586C352.962 667.513 353.426 667.458 353.782 667.421C354.141 667.381 354.403 667.314 354.566 667.22C354.734 667.126 354.818 666.962 354.818 666.729L354.818 666.68C354.818 666.076 354.653 665.606 354.322 665.271C353.996 664.935 353.499 664.767 352.833 664.767C352.143 664.767 351.601 664.918 351.209 665.22C350.816 665.522 350.54 665.844 350.381 666.188L349.008 665.696C349.254 665.125 349.581 664.679 349.99 664.361C350.403 664.038 350.852 663.814 351.338 663.688C351.829 663.557 352.311 663.492 352.785 663.492C353.087 663.492 353.435 663.529 353.827 663.603C354.223 663.673 354.605 663.818 354.973 664.039C355.344 664.26 355.653 664.593 355.898 665.039C356.142 665.484 356.265 666.081 356.264 666.828L356.261 673.031L354.814 673.03L354.815 671.755L354.741 671.755C354.643 671.959 354.48 672.178 354.251 672.411C354.022 672.643 353.717 672.841 353.337 673.005C352.957 673.168 352.493 673.249 351.946 673.249ZM352.167 671.95C352.739 671.95 353.221 671.838 353.614 671.614C354.01 671.389 354.309 671.099 354.509 670.744C354.714 670.388 354.816 670.015 354.816 669.622L354.817 668.298C354.756 668.372 354.621 668.439 354.412 668.5C354.208 668.558 353.971 668.609 353.701 668.653C353.436 668.694 353.176 668.731 352.923 668.763C352.674 668.792 352.471 668.816 352.316 668.836C351.94 668.885 351.589 668.965 351.262 669.075C350.939 669.181 350.677 669.342 350.477 669.559C350.281 669.771 350.183 670.061 350.182 670.429C350.182 670.931 350.368 671.311 350.739 671.569C351.115 671.823 351.591 671.949 352.167 671.95ZM362.035 673.23C361.152 673.23 360.392 673.021 359.755 672.604C359.118 672.187 358.628 671.612 358.285 670.881C357.942 670.149 357.771 669.313 357.772 668.374C357.772 667.418 357.948 666.574 358.3 665.843C358.656 665.108 359.151 664.534 359.784 664.121C360.422 663.705 361.166 663.497 362.016 663.498C362.678 663.498 363.274 663.621 363.805 663.866C364.336 664.112 364.771 664.455 365.11 664.897C365.449 665.338 365.659 665.853 365.74 666.442L364.294 666.441C364.184 666.012 363.939 665.631 363.559 665.3C363.183 664.965 362.677 664.797 362.04 664.797C361.476 664.797 360.981 664.943 360.556 665.237C360.135 665.527 359.806 665.938 359.569 666.469C359.335 666.996 359.219 667.615 359.218 668.326C359.218 669.053 359.332 669.686 359.56 670.226C359.793 670.765 360.12 671.184 360.54 671.483C360.965 671.781 361.463 671.931 362.035 671.931C362.411 671.931 362.753 671.866 363.059 671.735C363.366 671.605 363.625 671.417 363.838 671.172C364.05 670.927 364.202 670.633 364.292 670.29L365.738 670.29C365.656 670.846 365.454 671.347 365.131 671.792C364.812 672.233 364.389 672.584 363.861 672.845C363.338 673.102 362.729 673.231 362.035 673.23ZM371.26 663.625L371.26 664.851L366.381 664.848L366.382 663.623L371.26 663.625ZM367.805 661.368L369.251 661.369L369.246 670.342C369.246 670.75 369.305 671.057 369.423 671.261C369.546 671.461 369.701 671.596 369.889 671.666C370.081 671.731 370.283 671.764 370.496 671.764C370.655 671.764 370.786 671.756 370.888 671.74C370.99 671.719 371.072 671.703 371.133 671.691L371.427 672.99C371.328 673.027 371.192 673.064 371.016 673.101C370.84 673.141 370.617 673.162 370.348 673.161C369.939 673.161 369.539 673.073 369.147 672.897C368.759 672.721 368.436 672.453 368.179 672.094C367.926 671.734 367.799 671.28 367.8 670.733L367.805 661.368ZM372.74 673.04L372.746 663.626L374.192 663.627L374.187 673.041L372.74 673.04ZM373.482 662.058C373.2 662.057 372.957 661.961 372.753 661.769C372.553 661.577 372.453 661.346 372.453 661.076C372.453 660.807 372.553 660.576 372.754 660.384C372.958 660.192 373.201 660.096 373.483 660.096C373.765 660.097 374.006 660.193 374.206 660.385C374.41 660.577 374.512 660.808 374.512 661.078C374.512 661.347 374.41 661.578 374.205 661.77C374.005 661.962 373.764 662.058 373.482 662.058ZM379.97 673.24C379.12 673.24 378.374 673.037 377.733 672.632C377.096 672.228 376.598 671.661 376.239 670.934C375.884 670.206 375.706 669.356 375.707 668.384C375.708 667.403 375.886 666.547 376.242 665.816C376.602 665.085 377.1 664.517 377.738 664.113C378.38 663.709 379.126 663.507 379.975 663.508C380.825 663.508 381.569 663.711 382.206 664.116C382.847 664.521 383.345 665.089 383.701 665.821C384.06 666.552 384.239 667.408 384.238 668.389C384.238 669.361 384.058 670.211 383.698 670.938C383.342 671.665 382.843 672.231 382.201 672.635C381.564 673.039 380.82 673.241 379.97 673.24ZM379.971 671.941C380.616 671.942 381.148 671.776 381.564 671.446C381.981 671.115 382.29 670.68 382.491 670.141C382.691 669.601 382.792 669.017 382.792 668.388C382.792 667.759 382.693 667.172 382.493 666.629C382.293 666.085 381.985 665.646 381.568 665.311C381.151 664.975 380.62 664.807 379.975 664.807C379.329 664.807 378.798 664.974 378.381 665.309C377.964 665.644 377.655 666.083 377.455 666.626C377.254 667.169 377.154 667.756 377.153 668.385C377.153 669.014 377.253 669.598 377.453 670.138C377.653 670.677 377.961 671.113 378.377 671.444C378.794 671.775 379.325 671.941 379.971 671.941ZM387.203 667.385L387.2 673.048L385.753 673.048L385.759 663.634L387.156 663.634L387.155 665.105L387.278 665.105C387.499 664.628 387.834 664.244 388.284 663.954C388.733 663.66 389.314 663.513 390.025 663.514C390.662 663.514 391.22 663.645 391.697 663.907C392.175 664.164 392.547 664.557 392.812 665.084C393.078 665.607 393.21 666.269 393.21 667.07L393.206 673.052L391.76 673.051L391.763 667.167C391.763 666.428 391.572 665.852 391.188 665.439C390.804 665.022 390.277 664.813 389.607 664.813C389.145 664.812 388.733 664.912 388.369 665.112C388.009 665.312 387.725 665.604 387.516 665.988C387.308 666.372 387.203 666.838 387.203 667.385Z" fill="#666666"/>
</svg>
