<svg width="700" height="700" viewBox="0 0 700 700" fill="none" xmlns="http://www.w3.org/2000/svg">
<rect x="0.5" y="0.5" width="699" height="699" rx="19.5" stroke="#F8F8F8"/>
<g filter="url(#filter0_dddd_4504_18837)">
<rect x="535" y="88" width="106" height="53" rx="10.5163" fill="white"/>
<path fill-rule="evenodd" clip-rule="evenodd" d="M560.513 114.115L560.51 114.114C560.477 114.099 560.444 114.086 560.409 114.074L556.96 112.71C556.865 112.669 556.761 112.646 556.651 112.646C556.23 112.646 555.889 112.985 555.889 113.403C555.889 113.576 555.948 113.735 556.046 113.862L556.052 113.869C556.069 113.892 556.088 113.913 556.107 113.933L558.581 116.759C558.889 117.105 559.339 117.323 559.84 117.323C560.77 117.323 561.523 116.574 561.523 115.649C561.523 114.963 561.107 114.373 560.513 114.115ZM559.357 108.464C560.138 108.221 560.979 108.623 561.236 109.362C561.493 110.1 561.068 110.896 560.288 111.139C559.507 111.383 558.666 110.981 558.409 110.242C558.152 109.504 558.577 108.708 559.357 108.464ZM564.783 109.347C564.67 109.187 564.505 109.085 564.325 109.04L564.325 109.037L563.652 108.86C563.642 108.829 563.636 108.797 563.625 108.765C562.926 106.697 560.638 105.573 558.515 106.253C557.415 106.606 556.578 107.376 556.121 108.322L554.905 110.256L552.017 109.116L552.016 109.118C551.834 109.044 551.626 109.028 551.424 109.092C550.978 109.236 550.736 109.704 550.883 110.138C550.904 110.201 550.935 110.259 550.969 110.314L550.964 110.319L553.977 114.31C553.979 114.313 553.981 114.317 553.983 114.321C553.986 114.325 553.99 114.328 553.993 114.331L556.148 117.354C557.089 119.037 559.127 120.05 561.094 119.419C563.217 118.739 564.372 116.51 563.673 114.442C563.455 113.798 563.083 113.246 562.611 112.811C563.207 112.242 563.611 111.507 563.762 110.71L564.413 110.522L564.413 110.514C564.47 110.493 564.527 110.466 564.58 110.43C564.943 110.186 565.034 109.701 564.783 109.347Z" fill="#1976D2"/>
<path fill-rule="evenodd" clip-rule="evenodd" d="M574.698 107.322C577.135 107.322 578.545 108.729 578.545 110.622C578.545 111.89 577.744 112.932 576.735 113.262C577.849 113.522 578.928 114.547 578.928 116.145C578.928 118.139 577.427 119.606 575.133 119.635L575.064 119.636H570.086V107.322H574.698ZM574.489 114.512H572.766V117.395H574.489C575.551 117.395 576.195 116.839 576.195 115.954C576.195 115.111 575.581 114.524 574.522 114.512L574.489 114.512ZM572.766 109.597H574.228L574.261 109.597C575.318 109.608 575.847 110.126 575.847 110.917C575.847 111.751 575.22 112.254 574.263 112.254H572.766V109.597Z" fill="#212121"/>
<path d="M581.161 109.926C582.03 109.926 582.725 109.231 582.725 108.38C582.725 107.529 582.03 106.834 581.161 106.834C580.328 106.834 579.633 107.529 579.633 108.38C579.633 109.231 580.328 109.926 581.161 109.926Z" fill="#212121"/>
<path d="M582.508 119.636V111.011H579.85V119.636H582.508Z" fill="#212121"/>
<path d="M586.499 119.636V115.86C586.499 114.138 587.453 113.512 588.51 113.512C588.77 113.512 589.048 113.529 589.342 113.599V110.989C589.169 110.937 588.909 110.902 588.649 110.902C587.955 110.902 586.863 111.181 586.412 112.155V110.989H583.864V119.636H586.499Z" fill="#212121"/>
<path fill-rule="evenodd" clip-rule="evenodd" d="M598.603 118.098L598.603 107.051H596.004V111.664L595.997 111.654L595.984 111.634L595.969 111.613L595.954 111.592C595.948 111.585 595.943 111.578 595.937 111.57L595.919 111.548C595.913 111.541 595.906 111.534 595.9 111.526L595.88 111.503C595.859 111.481 595.836 111.457 595.812 111.434L595.787 111.411C595.457 111.109 594.816 110.78 593.682 110.78C591.238 110.78 589.505 112.705 589.505 115.272C589.505 117.925 591.342 119.798 593.768 119.798C594.808 119.798 595.674 119.365 596.073 118.775L596.073 118.819L596.074 118.84L596.075 118.906L596.078 118.972L596.08 119.015L596.083 119.058L596.087 119.122L596.09 119.163L596.097 119.244L596.101 119.282L596.109 119.355L596.117 119.422L596.124 119.482L596.136 119.566L596.142 119.607H598.672L598.658 119.443L598.649 119.327L598.639 119.19L598.631 119.057L598.625 118.935L598.62 118.832L598.615 118.722L598.611 118.608L598.61 118.548L598.607 118.457L598.606 118.362L598.605 118.298L598.604 118.199L598.603 118.098ZM592.157 115.289C592.157 113.85 593.075 113.156 594.097 113.156C595.12 113.156 596.038 113.85 596.038 115.289C596.038 116.711 595.12 117.44 594.097 117.44C593.075 117.44 592.157 116.711 592.157 115.289Z" fill="#212121"/>
<path fill-rule="evenodd" clip-rule="evenodd" d="M607.792 117.158C607.375 118.654 606.004 119.907 603.818 119.907C601.44 119.907 599.323 118.202 599.323 115.297C599.323 112.514 601.388 110.74 603.627 110.74C606.3 110.74 607.948 112.392 607.948 115.175C607.948 115.541 607.913 115.941 607.896 115.993H601.892C601.944 116.967 602.829 117.663 603.853 117.663C604.807 117.663 605.345 117.211 605.588 116.532L607.792 117.158ZM601.944 114.288H605.397C605.362 113.627 604.911 112.827 603.662 112.827C602.551 112.827 601.996 113.645 601.944 114.288Z" fill="#212121"/>
<path d="M611.853 122.944L617.17 111.011H614.372L612.461 115.625L610.359 111.011H607.406L611.037 118.469L609.074 122.944H611.853Z" fill="#212121"/>
<path fill-rule="evenodd" clip-rule="evenodd" d="M625.041 117.158C624.625 118.654 623.254 119.907 621.067 119.907C618.69 119.907 616.573 118.202 616.573 115.297C616.573 112.514 618.638 110.74 620.877 110.74C623.549 110.74 625.198 112.392 625.198 115.175C625.198 115.541 625.163 115.941 625.146 115.993H619.141C619.193 116.967 620.078 117.663 621.102 117.663C622.057 117.663 622.595 117.211 622.838 116.532L625.041 117.158ZM619.193 114.288H622.647C622.612 113.627 622.161 112.827 620.911 112.827C619.801 112.827 619.245 113.645 619.193 114.288Z" fill="#212121"/>
<rect x="609.57" y="68.5715" width="31.4286" height="31.4286" rx="15.7143" fill="#DBDDDF"/>
<circle cx="625.284" cy="84.2858" r="10.2143" fill="#4D5360" stroke="white" stroke-width="1.57143"/>
</g>
<defs>
<filter id="filter0_dddd_4504_18837" x="531" y="68.5715" width="114" height="86.4285" filterUnits="userSpaceOnUse" color-interpolation-filters="sRGB">
<feFlood flood-opacity="0" result="BackgroundImageFix"/>
<feColorMatrix in="SourceAlpha" type="matrix" values="0 0 0 0 0 0 0 0 0 0 0 0 0 0 0 0 0 0 127 0" result="hardAlpha"/>
<feOffset dy="1"/>
<feGaussianBlur stdDeviation="0.5"/>
<feColorMatrix type="matrix" values="0 0 0 0 0 0 0 0 0 0 0 0 0 0 0 0 0 0 0.05 0"/>
<feBlend mode="normal" in2="BackgroundImageFix" result="effect1_dropShadow_4504_18837"/>
<feColorMatrix in="SourceAlpha" type="matrix" values="0 0 0 0 0 0 0 0 0 0 0 0 0 0 0 0 0 0 127 0" result="hardAlpha"/>
<feOffset dy="3"/>
<feGaussianBlur stdDeviation="1.5"/>
<feColorMatrix type="matrix" values="0 0 0 0 0 0 0 0 0 0 0 0 0 0 0 0 0 0 0.04 0"/>
<feBlend mode="normal" in2="effect1_dropShadow_4504_18837" result="effect2_dropShadow_4504_18837"/>
<feColorMatrix in="SourceAlpha" type="matrix" values="0 0 0 0 0 0 0 0 0 0 0 0 0 0 0 0 0 0 127 0" result="hardAlpha"/>
<feOffset dy="6"/>
<feGaussianBlur stdDeviation="2"/>
<feColorMatrix type="matrix" values="0 0 0 0 0 0 0 0 0 0 0 0 0 0 0 0 0 0 0.03 0"/>
<feBlend mode="normal" in2="effect2_dropShadow_4504_18837" result="effect3_dropShadow_4504_18837"/>
<feColorMatrix in="SourceAlpha" type="matrix" values="0 0 0 0 0 0 0 0 0 0 0 0 0 0 0 0 0 0 127 0" result="hardAlpha"/>
<feOffset dy="10"/>
<feGaussianBlur stdDeviation="2"/>
<feColorMatrix type="matrix" values="0 0 0 0 0 0 0 0 0 0 0 0 0 0 0 0 0 0 0.01 0"/>
<feBlend mode="normal" in2="effect3_dropShadow_4504_18837" result="effect4_dropShadow_4504_18837"/>
<feBlend mode="normal" in="SourceGraphic" in2="effect4_dropShadow_4504_18837" result="shape"/>
</filter>
</defs>
</svg>
