<svg width="700" height="700" viewBox="0 0 700 700" fill="none" xmlns="http://www.w3.org/2000/svg">
<rect x="0.5" y="0.5" width="699" height="699" rx="19.5" stroke="#F8F8F8"/>
<circle cx="92.6671" cy="183.629" r="9.2317" fill="white" stroke="#3E424D" stroke-width="0.87921"/>
<circle cx="92.6698" cy="183.628" r="5.71486" fill="#3E424D" stroke="white" stroke-width="0.87921"/>
<circle cx="96.8663" cy="253.566" r="9.2317" fill="white" stroke="#3E424D" stroke-width="0.87921"/>
<circle cx="96.869" cy="253.565" r="5.71486" fill="#3E424D" stroke="white" stroke-width="0.87921"/>
<circle cx="119.245" cy="319.307" r="9.2317" fill="white" stroke="#3E424D" stroke-width="0.87921"/>
<circle cx="119.244" cy="319.306" r="5.71486" fill="#3E424D" stroke="white" stroke-width="0.87921"/>
<circle cx="109.448" cy="366.864" r="9.2317" fill="white" stroke="#3E424D" stroke-width="0.87921"/>
<circle cx="109.455" cy="366.863" r="5.71486" fill="#3E424D" stroke="white" stroke-width="0.87921"/>
<circle cx="150.019" cy="359.87" r="9.2317" fill="white" stroke="#3E424D" stroke-width="0.87921"/>
<circle cx="150.014" cy="359.869" r="5.71486" fill="#3E424D" stroke="white" stroke-width="0.87921"/>
<circle cx="108.058" cy="393.44" r="9.2317" fill="white" stroke="#3E424D" stroke-width="0.87921"/>
<circle cx="108.053" cy="393.439" r="5.71486" fill="#3E424D" stroke="white" stroke-width="0.87921"/>
<circle cx="215.757" cy="434.004" r="9.2317" fill="white" stroke="#3E424D" stroke-width="0.87921"/>
<circle cx="215.76" cy="434.003" r="5.71486" fill="#3E424D" stroke="white" stroke-width="0.87921"/>
<circle cx="159.804" cy="496.947" r="9.2317" fill="white" stroke="#3E424D" stroke-width="0.87921"/>
<circle cx="159.81" cy="496.946" r="5.71486" fill="#3E424D" stroke="white" stroke-width="0.87921"/>
<circle cx="268.909" cy="474.567" r="9.2317" fill="white" stroke="#3E424D" stroke-width="0.87921"/>
<circle cx="268.912" cy="474.567" r="5.71486" fill="#3E424D" stroke="white" stroke-width="0.87921"/>
<circle cx="294.085" cy="464.776" r="9.2317" fill="white" stroke="#3E424D" stroke-width="0.87921"/>
<circle cx="294.088" cy="464.775" r="5.71486" fill="#3E424D" stroke="white" stroke-width="0.87921"/>
<circle cx="315.069" cy="464.776" r="9.2317" fill="white" stroke="#3E424D" stroke-width="0.87921"/>
<circle cx="315.064" cy="464.775" r="5.71486" fill="#3E424D" stroke="white" stroke-width="0.87921"/>
<circle cx="319.265" cy="492.751" r="9.2317" fill="white" stroke="#3E424D" stroke-width="0.87921"/>
<circle cx="319.267" cy="492.75" r="5.71486" fill="#3E424D" stroke="white" stroke-width="0.87921"/>
<circle cx="327.659" cy="501.143" r="9.2317" fill="white" stroke="#3E424D" stroke-width="0.87921"/>
<circle cx="327.658" cy="501.142" r="5.71486" fill="#3E424D" stroke="white" stroke-width="0.87921"/>
<circle cx="221.351" cy="544.505" r="9.2317" fill="white" stroke="#3E424D" stroke-width="0.87921"/>
<circle cx="221.353" cy="544.504" r="5.71486" fill="#3E424D" stroke="white" stroke-width="0.87921"/>
<circle cx="337.448" cy="566.884" r="9.2317" fill="white" stroke="#3E424D" stroke-width="0.87921"/>
<circle cx="337.447" cy="566.884" r="5.71486" fill="#3E424D" stroke="white" stroke-width="0.87921"/>
<circle cx="347.237" cy="580.872" r="9.2317" fill="white" stroke="#3E424D" stroke-width="0.87921"/>
<circle cx="347.24" cy="580.871" r="5.71486" fill="#3E424D" stroke="white" stroke-width="0.87921"/>
<circle cx="415.776" cy="569.682" r="9.2317" fill="white" stroke="#3E424D" stroke-width="0.87921"/>
<circle cx="415.779" cy="569.681" r="5.71486" fill="#3E424D" stroke="white" stroke-width="0.87921"/>
<circle cx="461.933" cy="569.682" r="9.2317" fill="white" stroke="#3E424D" stroke-width="0.87921"/>
<circle cx="461.939" cy="569.681" r="5.71486" fill="#3E424D" stroke="white" stroke-width="0.87921"/>
<circle cx="461.933" cy="551.498" r="9.2317" fill="white" stroke="#3E424D" stroke-width="0.87921"/>
<circle cx="461.939" cy="551.496" r="5.71486" fill="#3E424D" stroke="white" stroke-width="0.87921"/>
<circle cx="447.952" cy="536.112" r="9.2317" fill="white" stroke="#3E424D" stroke-width="0.87921"/>
<circle cx="447.947" cy="536.111" r="5.71486" fill="#3E424D" stroke="white" stroke-width="0.87921"/>
<circle cx="442.355" cy="526.32" r="9.2317" fill="white" stroke="#3E424D" stroke-width="0.87921"/>
<circle cx="442.357" cy="526.32" r="5.71486" fill="#3E424D" stroke="white" stroke-width="0.87921"/>
<circle cx="445.151" cy="517.928" r="9.2317" fill="white" stroke="#3E424D" stroke-width="0.87921"/>
<circle cx="445.154" cy="517.927" r="5.71486" fill="#3E424D" stroke="white" stroke-width="0.87921"/>
<circle cx="463.335" cy="503.941" r="9.2317" fill="white" stroke="#3E424D" stroke-width="0.87921"/>
<circle cx="463.334" cy="503.94" r="5.71486" fill="#3E424D" stroke="white" stroke-width="0.87921"/>
<circle cx="496.905" cy="517.928" r="9.2317" fill="white" stroke="#3E424D" stroke-width="0.87921"/>
<circle cx="496.904" cy="517.927" r="5.71486" fill="#3E424D" stroke="white" stroke-width="0.87921"/>
<circle cx="425.569" cy="502.542" r="9.2317" fill="white" stroke="#3E424D" stroke-width="0.87921"/>
<circle cx="425.568" cy="502.541" r="5.71486" fill="#3E424D" stroke="white" stroke-width="0.87921"/>
<circle cx="387.804" cy="495.548" r="9.2317" fill="white" stroke="#3E424D" stroke-width="0.87921"/>
<circle cx="387.803" cy="495.548" r="5.71486" fill="#3E424D" stroke="white" stroke-width="0.87921"/>
<circle cx="364.026" cy="481.561" r="9.2317" fill="white" stroke="#3E424D" stroke-width="0.87921"/>
<circle cx="364.021" cy="481.559" r="5.71486" fill="#3E424D" stroke="white" stroke-width="0.87921"/>
<circle cx="401.792" cy="461.979" r="9.2317" fill="white" stroke="#3E424D" stroke-width="0.87921"/>
<circle cx="401.795" cy="461.978" r="5.71486" fill="#3E424D" stroke="white" stroke-width="0.87921"/>
<circle cx="419.972" cy="456.383" r="9.2317" fill="white" stroke="#3E424D" stroke-width="0.87921"/>
<circle cx="419.974" cy="456.383" r="5.71486" fill="#3E424D" stroke="white" stroke-width="0.87921"/>
<circle cx="418.573" cy="427.01" r="9.2317" fill="white" stroke="#3E424D" stroke-width="0.87921"/>
<circle cx="418.576" cy="427.009" r="5.71486" fill="#3E424D" stroke="white" stroke-width="0.87921"/>
<circle cx="428.362" cy="436.801" r="9.2317" fill="white" stroke="#3E424D" stroke-width="0.87921"/>
<circle cx="428.369" cy="436.8" r="5.71486" fill="#3E424D" stroke="white" stroke-width="0.87921"/>
<circle cx="459.148" cy="467.574" r="9.2317" fill="white" stroke="#3E424D" stroke-width="0.87921"/>
<circle cx="459.142" cy="467.573" r="5.71486" fill="#3E424D" stroke="white" stroke-width="0.87921"/>
<circle cx="463.335" cy="454.984" r="9.2317" fill="white" stroke="#3E424D" stroke-width="0.87921"/>
<circle cx="463.334" cy="454.984" r="5.71486" fill="#3E424D" stroke="white" stroke-width="0.87921"/>
<circle cx="471.726" cy="474.567" r="9.2317" fill="white" stroke="#3E424D" stroke-width="0.87921"/>
<circle cx="471.728" cy="474.567" r="5.71486" fill="#3E424D" stroke="white" stroke-width="0.87921"/>
<circle cx="393.398" cy="421.415" r="9.2317" fill="white" stroke="#3E424D" stroke-width="0.87921"/>
<circle cx="393.4" cy="421.414" r="5.71486" fill="#3E424D" stroke="white" stroke-width="0.87921"/>
<circle cx="359.831" cy="411.624" r="9.2317" fill="white" stroke="#3E424D" stroke-width="0.87921"/>
<circle cx="359.826" cy="411.622" r="5.71486" fill="#3E424D" stroke="white" stroke-width="0.87921"/>
<circle cx="329.058" cy="420.016" r="9.2317" fill="white" stroke="#3E424D" stroke-width="0.87921"/>
<circle cx="329.057" cy="420.015" r="5.71486" fill="#3E424D" stroke="white" stroke-width="0.87921"/>
<circle cx="320.663" cy="445.194" r="9.2317" fill="white" stroke="#3E424D" stroke-width="0.87921"/>
<circle cx="320.662" cy="445.193" r="5.71486" fill="#3E424D" stroke="white" stroke-width="0.87921"/>
<circle cx="298.28" cy="413.023" r="9.2317" fill="white" stroke="#3E424D" stroke-width="0.87921"/>
<circle cx="298.279" cy="413.021" r="5.71486" fill="#3E424D" stroke="white" stroke-width="0.87921"/>
<circle cx="277.304" cy="365.465" r="9.2317" fill="white" stroke="#3E424D" stroke-width="0.87921"/>
<circle cx="277.303" cy="365.464" r="5.71486" fill="#3E424D" stroke="white" stroke-width="0.87921"/>
<circle cx="371.019" cy="382.25" r="9.2317" fill="white" stroke="#3E424D" stroke-width="0.87921"/>
<circle cx="371.017" cy="382.249" r="5.71486" fill="#3E424D" stroke="white" stroke-width="0.87921"/>
<circle cx="372.417" cy="361.269" r="9.2317" fill="white" stroke="#3E424D" stroke-width="0.87921"/>
<circle cx="372.416" cy="361.268" r="5.71486" fill="#3E424D" stroke="white" stroke-width="0.87921"/>
<circle cx="393.398" cy="376.655" r="9.2317" fill="white" stroke="#3E424D" stroke-width="0.87921"/>
<circle cx="393.4" cy="376.654" r="5.71486" fill="#3E424D" stroke="white" stroke-width="0.87921"/>
<circle cx="410.183" cy="375.256" r="9.2317" fill="white" stroke="#3E424D" stroke-width="0.87921"/>
<circle cx="410.182" cy="375.256" r="5.71486" fill="#3E424D" stroke="white" stroke-width="0.87921"/>
<circle cx="404.585" cy="354.275" r="9.2317" fill="white" stroke="#3E424D" stroke-width="0.87921"/>
<circle cx="404.588" cy="354.274" r="5.71486" fill="#3E424D" stroke="white" stroke-width="0.87921"/>
<circle cx="432.562" cy="366.863" r="9.2317" fill="white" stroke="#3E424D" stroke-width="0.87921"/>
<circle cx="432.564" cy="366.863" r="5.71486" fill="#3E424D" stroke="white" stroke-width="0.87921"/>
<circle cx="435.359" cy="348.68" r="9.2317" fill="white" stroke="#3E424D" stroke-width="0.87921"/>
<circle cx="435.361" cy="348.679" r="5.71486" fill="#3E424D" stroke="white" stroke-width="0.87921"/>
<circle cx="442.355" cy="336.092" r="9.2317" fill="white" stroke="#3E424D" stroke-width="0.87921"/>
<circle cx="442.357" cy="336.091" r="5.71486" fill="#3E424D" stroke="white" stroke-width="0.87921"/>
<circle cx="464.73" cy="350.079" r="9.2317" fill="white" stroke="#3E424D" stroke-width="0.87921"/>
<circle cx="464.736" cy="350.078" r="5.71486" fill="#3E424D" stroke="white" stroke-width="0.87921"/>
<circle cx="454.941" cy="361.269" r="9.2317" fill="white" stroke="#3E424D" stroke-width="0.87921"/>
<circle cx="454.943" cy="361.268" r="5.71486" fill="#3E424D" stroke="white" stroke-width="0.87921"/>
<circle cx="474.526" cy="386.446" r="9.2317" fill="white" stroke="#3E424D" stroke-width="0.87921"/>
<circle cx="474.525" cy="386.446" r="5.71486" fill="#3E424D" stroke="white" stroke-width="0.87921"/>
<circle cx="466.128" cy="403.231" r="9.2317" fill="white" stroke="#3E424D" stroke-width="0.87921"/>
<circle cx="466.135" cy="403.231" r="5.71486" fill="#3E424D" stroke="white" stroke-width="0.87921"/>
<circle cx="478.722" cy="406.029" r="9.2317" fill="white" stroke="#3E424D" stroke-width="0.87921"/>
<circle cx="478.721" cy="406.028" r="5.71486" fill="#3E424D" stroke="white" stroke-width="0.87921"/>
<circle cx="503.898" cy="397.636" r="9.2317" fill="white" stroke="#3E424D" stroke-width="0.87921"/>
<circle cx="503.9" cy="397.636" r="5.71486" fill="#3E424D" stroke="white" stroke-width="0.87921"/>
<circle cx="517.886" cy="380.851" r="9.2317" fill="white" stroke="#3E424D" stroke-width="0.87921"/>
<circle cx="517.885" cy="380.85" r="5.71486" fill="#3E424D" stroke="white" stroke-width="0.87921"/>
<circle cx="510.89" cy="341.687" r="9.2317" fill="white" stroke="#3E424D" stroke-width="0.87921"/>
<circle cx="510.896" cy="341.686" r="5.71486" fill="#3E424D" stroke="white" stroke-width="0.87921"/>
<circle cx="494.109" cy="319.307" r="9.2317" fill="white" stroke="#3E424D" stroke-width="0.87921"/>
<circle cx="494.107" cy="319.306" r="5.71486" fill="#3E424D" stroke="white" stroke-width="0.87921"/>
<circle cx="450.745" cy="316.509" r="9.2317" fill="white" stroke="#3E424D" stroke-width="0.87921"/>
<circle cx="450.748" cy="316.508" r="5.71486" fill="#3E424D" stroke="white" stroke-width="0.87921"/>
<circle cx="403.191" cy="277.344" r="9.2317" fill="white" stroke="#3E424D" stroke-width="0.87921"/>
<circle cx="403.185" cy="277.343" r="5.71486" fill="#3E424D" stroke="white" stroke-width="0.87921"/>
<circle cx="320.663" cy="312.313" r="9.2317" fill="white" stroke="#3E424D" stroke-width="0.87921"/>
<circle cx="320.662" cy="312.312" r="5.71486" fill="#3E424D" stroke="white" stroke-width="0.87921"/>
<circle cx="288.491" cy="253.566" r="9.2317" fill="white" stroke="#3E424D" stroke-width="0.87921"/>
<circle cx="288.494" cy="253.565" r="5.71486" fill="#3E424D" stroke="white" stroke-width="0.87921"/>
<circle cx="319.265" cy="217.198" r="9.2317" fill="white" stroke="#3E424D" stroke-width="0.87921"/>
<circle cx="319.267" cy="217.197" r="5.71486" fill="#3E424D" stroke="white" stroke-width="0.87921"/>
<circle cx="253.523" cy="173.837" r="9.2317" fill="white" stroke="#3E424D" stroke-width="0.87921"/>
<circle cx="253.525" cy="173.836" r="5.71486" fill="#3E424D" stroke="white" stroke-width="0.87921"/>
<circle cx="337.448" cy="155.653" r="9.2317" fill="white" stroke="#3E424D" stroke-width="0.87921"/>
<circle cx="337.447" cy="155.653" r="5.71486" fill="#3E424D" stroke="white" stroke-width="0.87921"/>
<circle cx="480.12" cy="226.989" r="9.2317" fill="white" stroke="#3E424D" stroke-width="0.87921"/>
<circle cx="480.123" cy="226.989" r="5.71486" fill="#3E424D" stroke="white" stroke-width="0.87921"/>
<circle cx="640.972" cy="221.394" r="9.2317" fill="white" stroke="#3E424D" stroke-width="0.87921"/>
<circle cx="640.978" cy="221.394" r="5.71486" fill="#3E424D" stroke="white" stroke-width="0.87921"/>
<circle cx="59.0968" cy="323.503" r="9.2317" fill="white" stroke="#3E424D" stroke-width="0.87921"/>
<circle cx="59.0995" cy="323.502" r="5.71486" fill="#3E424D" stroke="white" stroke-width="0.87921"/>
<circle cx="59.0968" cy="347.281" r="9.2317" fill="white" stroke="#3E424D" stroke-width="0.87921"/>
<circle cx="59.0995" cy="347.281" r="5.71486" fill="#3E424D" stroke="white" stroke-width="0.87921"/>
<circle cx="412.98" cy="117.888" r="9.2317" fill="white" stroke="#3E424D" stroke-width="0.87921"/>
<circle cx="412.978" cy="117.887" r="5.71486" fill="#3E424D" stroke="white" stroke-width="0.87921"/>
<circle cx="454.941" cy="117.888" r="9.2317" fill="white" stroke="#3E424D" stroke-width="0.87921"/>
<circle cx="454.943" cy="117.887" r="5.71486" fill="#3E424D" stroke="white" stroke-width="0.87921"/>
</svg>
