<svg width="22" height="23" viewBox="0 0 22 23" fill="none" xmlns="http://www.w3.org/2000/svg">
<path d="M19.5098 6.60312H16.1478C16.246 6.06711 16.565 5.79911 17.2276 5.45801L17.8411 5.14128C18.9454 4.58091 19.5344 3.94745 19.5344 2.8998C19.5344 2.24197 19.289 1.73033 18.7736 1.36487C18.2828 0.999413 17.6693 0.804502 16.9576 0.804502C16.3932 0.804502 15.9024 0.950685 15.4361 1.24305C14.9698 1.53542 14.6263 1.87651 14.4299 2.33943L15.4116 3.31399C15.7797 2.5587 16.3441 2.19325 17.0558 2.19325C17.6693 2.19325 18.0374 2.50998 18.0374 2.92416C18.0374 3.28962 17.8656 3.58199 17.154 3.94745L16.7613 4.14236C15.9024 4.58091 15.2889 5.06819 14.9453 5.62856C14.6017 6.18893 14.4299 6.89549 14.4299 7.74822V7.99186H19.5098V6.60312Z" fill="#FF492C"/>
<path d="M19.0678 9.55133H13.5217L10.724 14.3267H16.2948L19.0678 19.102L21.8409 14.3267L19.0678 9.55133Z" fill="#FF492C"/>
<path d="M11.2151 17.5177C7.68122 17.5177 4.80996 14.6671 4.80996 11.1587C4.80996 7.65028 7.68122 4.77533 11.2151 4.77533L13.4237 0.219275C12.712 0.0730917 11.9758 0 11.2151 0C5.03083 0 0 4.99461 0 11.1343C0 17.274 5.03083 22.2686 11.2151 22.2686C13.6937 22.2686 15.9759 21.4646 17.8165 20.1246L15.387 15.9827C14.2581 16.9329 12.8102 17.5177 11.2151 17.5177Z" fill="#FF492C"/>
</svg>
