<svg xmlns="http://www.w3.org/2000/svg" viewBox="3.24 4.25 29.48 25.07" width="29.48" height="25.07" fill="currentColor">
  <path d="M19.36 29.33C20.03 29.33 20.58 29.05 21.23 28.44L32.02 18.25C32.54 17.76 32.72 17.24 32.72 16.79C32.72 16.32 32.55 15.82 32.02 15.31L21.23 5.22C20.51 4.54 20.06 4.25 19.39 4.25C18.43 4.25 17.75 5.00 17.75 5.92L17.75 11.09L17.35 11.09C7.52 11.09 3.24 17.39 3.24 27.49C3.24 28.67 3.91 29.33 4.65 29.33C5.22 29.33 5.85 29.19 6.33 28.31C8.71 23.84 12.06 22.50 17.35 22.50L17.75 22.50L17.75 27.73C17.75 28.64 18.43 29.33 19.36 29.33ZM20.14 26.39C20.03 26.39 19.95 26.30 19.95 26.18L19.95 20.89C19.95 20.58 19.81 20.44 19.50 20.44L17.66 20.44C11.17 20.44 7.03 22.70 5.41 26.13C5.37 26.22 5.35 26.26 5.28 26.26C5.22 26.26 5.18 26.22 5.18 26.11C5.46 19.66 8.27 13.15 17.66 13.15L19.50 13.15C19.81 13.15 19.95 13.02 19.95 12.70L19.95 7.27C19.95 7.16 20.03 7.08 20.15 7.08C20.23 7.08 20.32 7.14 20.38 7.19L30.12 16.53C30.21 16.63 30.26 16.71 30.26 16.79C30.26 16.87 30.23 16.94 30.12 17.05L20.37 26.26C20.30 26.35 20.22 26.39 20.14 26.39Z" />
</svg>