<svg xmlns="http://www.w3.org/2000/svg" viewBox="3.46 6.76 20.21 20.16" width="20.21" height="20.16" fill="currentColor">
  <path d="M3.84 7.14C3.34 7.63 3.32 8.34 3.84 8.85L17.71 22.74L19.80 24.68L13.28 24.46L8.52 24.46C7.88 24.46 7.29 25.02 7.29 25.68C7.29 26.33 7.81 26.92 8.57 26.92L22.33 26.92C23.15 26.92 23.65 26.37 23.65 25.59L23.67 11.84C23.67 11.10 23.08 10.54 22.42 10.54C21.75 10.54 21.19 11.14 21.19 11.79L21.19 16.84L21.44 23.15L19.44 21L5.56 7.14C5.04 6.62 4.35 6.64 3.84 7.14Z" />
</svg>