<svg xmlns="http://www.w3.org/2000/svg" viewBox="2.45 2.82 28.36 29.09" width="28.36" height="29.09" fill="currentColor">
  <path d="M2.45 17.43C2.45 26.44 8.54 31.91 16.94 31.91C19.21 31.91 21.37 31.60 22.71 31.16C23.65 30.86 23.95 30.37 23.95 29.86C23.95 29.35 23.56 28.97 23.05 28.97C22.89 28.97 22.67 29.00 22.41 29.07C20.74 29.48 19.30 29.75 17.38 29.75C9.90 29.75 4.80 25.24 4.80 17.51C4.80 10.12 9.61 4.96 16.86 4.96C23.27 4.96 28.63 8.91 28.63 16.01C28.63 20.15 27.23 22.94 24.98 22.94C23.47 22.94 22.63 22.07 22.63 20.58L22.63 11.31C22.63 10.57 22.22 10.12 21.52 10.12C20.84 10.12 20.41 10.57 20.41 11.31L20.41 12.87L20.29 12.87C19.59 11.18 17.88 10.12 15.85 10.12C12.30 10.12 9.82 13.14 9.82 17.47C9.82 21.85 12.29 24.90 15.90 24.90C18.02 24.90 19.66 23.75 20.45 21.81L20.58 21.81C20.84 23.73 22.46 24.91 24.62 24.91C28.44 24.91 30.80 21.16 30.80 15.91C30.80 7.97 24.96 2.82 16.88 2.82C8.39 2.82 2.45 8.63 2.45 17.43ZM16.27 22.74C13.82 22.74 12.26 20.70 12.26 17.46C12.26 14.27 13.84 12.24 16.28 12.24C18.80 12.24 20.38 14.23 20.38 17.40C20.38 20.64 18.76 22.74 16.27 22.74Z" />
</svg>