<svg xmlns="http://www.w3.org/2000/svg" viewBox="3.49 3.04 24.27 27.51" width="24.27" height="27.51" fill="currentColor">
  <path d="M7.78 30.54L23.87 30.54C26.32 30.54 27.75 29.12 27.75 26.30L27.75 12.15C27.75 9.34 26.30 7.92 23.46 7.92L20.99 7.92C20.73 5.15 18.50 3.04 15.61 3.04C12.74 3.04 10.51 5.14 10.25 7.92L7.78 7.92C4.92 7.92 3.49 9.32 3.49 12.15L3.49 26.30C3.49 29.13 4.92 30.54 7.78 30.54ZM15.61 5.11C17.34 5.11 18.55 6.25 18.77 7.92L12.47 7.92C12.69 6.25 13.90 5.11 15.61 5.11ZM7.81 28.34C6.44 28.34 5.69 27.62 5.69 26.20L5.69 12.26C5.69 10.84 6.44 10.12 7.81 10.12L23.42 10.12C24.77 10.12 25.55 10.84 25.55 12.26L25.55 26.20C25.55 27.62 24.77 28.34 23.83 28.34Z" />
</svg>