<svg xmlns="http://www.w3.org/2000/svg" viewBox="3.49 7.01 16.26 19.55" width="16.26" height="19.55" fill="currentColor">
  <path d="M5.80 26.56L12.92 26.56C17.10 26.56 19.74 24.36 19.74 20.99C19.74 18.32 17.81 16.39 15.04 16.24L15.04 16.13C17.31 15.82 18.85 14.11 18.85 11.94C18.85 8.89 16.52 7.01 12.73 7.01L5.80 7.01C4.33 7.01 3.49 7.88 3.49 9.38L3.49 24.21C3.49 25.70 4.33 26.56 5.80 26.56ZM8.00 15.13L8.00 10.23L11.36 10.23C13.28 10.23 14.41 11.10 14.41 12.61C14.41 14.19 13.15 15.13 11.02 15.13ZM8.00 23.41L8.00 17.98L11.43 17.98C13.82 17.98 15.16 18.91 15.16 20.66C15.16 22.45 13.88 23.41 11.53 23.41Z" />
</svg>