<svg xmlns="http://www.w3.org/2000/svg" viewBox="3.49 4.22 27.25 25.17" width="27.25" height="25.17" fill="currentColor">
  <path d="M7.78 29.39L26.46 29.39C29.31 29.39 30.73 27.97 30.73 25.16L30.73 8.46C30.73 5.65 29.31 4.22 26.46 4.22L7.78 4.22C4.92 4.22 3.49 5.63 3.49 8.46L3.49 25.16C3.49 27.99 4.92 29.39 7.78 29.39ZM7.57 27.19C6.36 27.19 5.69 26.55 5.69 25.28L5.69 12.39C5.69 11.13 6.36 10.47 7.57 10.47L26.63 10.47C27.85 10.47 28.53 11.13 28.53 12.39L28.53 25.28C28.53 26.55 27.85 27.19 26.63 27.19ZM14.45 15.38L15.26 15.38C15.74 15.38 15.89 15.24 15.89 14.77L15.89 13.96C15.89 13.48 15.74 13.33 15.26 13.33L14.45 13.33C13.97 13.33 13.81 13.48 13.81 13.96L13.81 14.77C13.81 15.24 13.97 15.38 14.45 15.38ZM18.99 15.38L19.80 15.38C20.28 15.38 20.44 15.24 20.44 14.77L20.44 13.96C20.44 13.48 20.28 13.33 19.80 13.33L18.99 13.33C18.51 13.33 18.35 13.48 18.35 13.96L18.35 14.77C18.35 15.24 18.51 15.38 18.99 15.38ZM23.53 15.38L24.34 15.38C24.81 15.38 24.98 15.24 24.98 14.77L24.98 13.96C24.98 13.48 24.81 13.33 24.34 13.33L23.53 13.33C23.05 13.33 22.90 13.48 22.90 13.96L22.90 14.77C22.90 15.24 23.05 15.38 23.53 15.38ZM9.91 19.85L10.71 19.85C11.20 19.85 11.35 19.71 11.35 19.24L11.35 18.43C11.35 17.95 11.20 17.81 10.71 17.81L9.91 17.81C9.42 17.81 9.27 17.95 9.27 18.43L9.27 19.24C9.27 19.71 9.42 19.85 9.91 19.85ZM14.45 19.85L15.26 19.85C15.74 19.85 15.89 19.71 15.89 19.24L15.89 18.43C15.89 17.95 15.74 17.81 15.26 17.81L14.45 17.81C13.97 17.81 13.81 17.95 13.81 18.43L13.81 19.24C13.81 19.71 13.97 19.85 14.45 19.85ZM18.99 19.85L19.80 19.85C20.28 19.85 20.44 19.71 20.44 19.24L20.44 18.43C20.44 17.95 20.28 17.81 19.80 17.81L18.99 17.81C18.51 17.81 18.35 17.95 18.35 18.43L18.35 19.24C18.35 19.71 18.51 19.85 18.99 19.85ZM23.53 19.85L24.34 19.85C24.81 19.85 24.98 19.71 24.98 19.24L24.98 18.43C24.98 17.95 24.81 17.81 24.34 17.81L23.53 17.81C23.05 17.81 22.90 17.95 22.90 18.43L22.90 19.24C22.90 19.71 23.05 19.85 23.53 19.85ZM9.91 24.34L10.71 24.34C11.20 24.34 11.35 24.19 11.35 23.71L11.35 22.90C11.35 22.42 11.20 22.29 10.71 22.29L9.91 22.29C9.42 22.29 9.27 22.42 9.27 22.90L9.27 23.71C9.27 24.19 9.42 24.34 9.91 24.34ZM14.45 24.34L15.26 24.34C15.74 24.34 15.89 24.19 15.89 23.71L15.89 22.90C15.89 22.42 15.74 22.29 15.26 22.29L14.45 22.29C13.97 22.29 13.81 22.42 13.81 22.90L13.81 23.71C13.81 24.19 13.97 24.34 14.45 24.34ZM18.99 24.34L19.80 24.34C20.28 24.34 20.44 24.19 20.44 23.71L20.44 22.90C20.44 22.42 20.28 22.29 19.80 22.29L18.99 22.29C18.51 22.29 18.35 22.42 18.35 22.90L18.35 23.71C18.35 24.19 18.51 24.34 18.99 24.34Z" />
</svg>