<svg xmlns="http://www.w3.org/2000/svg" viewBox="2.45 2.84 27.89 27.89" width="27.89" height="27.89" fill="currentColor">
  <path d="M16.39 30.73C24.09 30.73 30.34 24.49 30.34 16.79C30.34 9.09 24.09 2.84 16.39 2.84C8.70 2.84 2.45 9.09 2.45 16.79C2.45 24.49 8.70 30.73 16.39 30.73ZM16.39 28.41C9.97 28.41 4.77 23.21 4.77 16.79C4.77 10.36 9.97 5.17 16.39 5.17C22.82 5.17 28.01 10.36 28.01 16.79C28.01 23.21 22.82 28.41 16.39 28.41ZM11.88 23.23C12.37 23.23 12.73 23.00 12.93 22.35L13.93 19.44L18.83 19.44L19.82 22.35C20.03 22.98 20.37 23.23 20.88 23.23C21.48 23.23 21.89 22.83 21.89 22.29C21.89 22.07 21.83 21.88 21.74 21.57L17.90 11.25C17.64 10.54 17.12 10.17 16.37 10.17C15.63 10.17 15.12 10.54 14.85 11.25L11.02 21.57C10.91 21.88 10.87 22.07 10.87 22.27C10.87 22.85 11.27 23.23 11.88 23.23ZM14.48 17.80L16.30 12.51L16.45 12.51L18.27 17.80Z" />
</svg>