<svg xmlns="http://www.w3.org/2000/svg" viewBox="3.49 3.99 23.75 25.59" width="23.75" height="25.59" fill="currentColor">
  <path d="M3.86 15.22C3.62 15.46 3.49 15.76 3.49 16.12C3.49 16.83 4.02 17.36 4.73 17.36C5.09 17.36 5.40 17.23 5.62 17.01L15.37 7.05L25.10 17.01C25.33 17.23 25.65 17.36 25.99 17.36C26.70 17.36 27.23 16.83 27.23 16.12C27.23 15.76 27.10 15.46 26.87 15.23L16.28 4.39C16.04 4.16 15.71 3.99 15.37 3.99C15.01 3.99 14.70 4.13 14.44 4.39ZM3.86 27.44C3.62 27.69 3.49 27.99 3.49 28.33C3.49 29.04 4.02 29.59 4.73 29.59C5.09 29.59 5.40 29.45 5.62 29.22L15.37 19.28L25.10 29.22C25.33 29.45 25.65 29.59 25.99 29.59C26.70 29.59 27.23 29.04 27.23 28.33C27.23 27.99 27.10 27.69 26.87 27.44L16.28 16.61C16.05 16.35 15.71 16.21 15.37 16.21C15.01 16.21 14.70 16.35 14.44 16.61Z" />
</svg>