<svg xmlns="http://www.w3.org/2000/svg" viewBox="2.45 2.84 27.89 27.89" width="27.89" height="27.89" fill="currentColor">
  <path d="M16.39 30.73C24.09 30.73 30.34 24.49 30.34 16.79C30.34 9.09 24.09 2.84 16.39 2.84C8.70 2.84 2.45 9.09 2.45 16.79C2.45 24.49 8.70 30.73 16.39 30.73ZM16.39 28.41C9.97 28.41 4.77 23.21 4.77 16.79C4.77 10.36 9.97 5.17 16.39 5.17C22.82 5.17 28.01 10.36 28.01 16.79C28.01 23.21 22.82 28.41 16.39 28.41ZM9.24 18.27L16.38 18.27C16.91 18.27 17.34 17.86 17.34 17.31L17.34 8.09C17.34 7.56 16.91 7.15 16.38 7.15C15.85 7.15 15.44 7.56 15.44 8.09L15.44 16.37L9.24 16.37C8.70 16.37 8.29 16.78 8.29 17.31C8.29 17.86 8.70 18.27 9.24 18.27Z" />
</svg>