<svg xmlns="http://www.w3.org/2000/svg" viewBox="3.49 5.13 32.13 23.35" width="32.13" height="23.35" fill="currentColor">
  <path d="M7.78 28.48L31.32 28.48C34.19 28.48 35.62 27.07 35.62 24.25L35.62 9.37C35.62 6.55 34.19 5.13 31.32 5.13L7.78 5.13C4.92 5.13 3.49 6.55 3.49 9.37L3.49 24.25C3.49 27.07 4.92 28.48 7.78 28.48ZM5.69 9.49C5.69 8.07 6.44 7.33 7.81 7.33L31.29 7.33C32.63 7.33 33.41 8.07 33.41 9.49L33.41 10.57L5.69 10.57ZM7.81 26.28C6.44 26.28 5.69 25.55 5.69 24.13L5.69 13.67L33.41 13.67L33.41 24.13C33.41 25.55 32.63 26.28 31.29 26.28ZM9.63 23.69L12.97 23.69C13.78 23.69 14.31 23.15 14.31 22.38L14.31 19.85C14.31 19.07 13.78 18.54 12.97 18.54L9.63 18.54C8.82 18.54 8.29 19.07 8.29 19.85L8.29 22.38C8.29 23.15 8.82 23.69 9.63 23.69Z" />
</svg>