<svg xmlns="http://www.w3.org/2000/svg" viewBox="2.45 2.41 22.33 28.77" width="22.33" height="28.77" fill="currentColor">
  <path d="M15.11 31.17C20.89 31.17 24.77 27.29 24.77 20.89L24.77 17.90C24.77 14.75 23.28 12.91 20.74 12.88C20.43 11.87 19.59 11.27 18.46 11.27C18.05 11.27 17.65 11.33 17.25 11.47C16.91 10.36 16.01 9.69 14.82 9.69C14.51 9.69 14.18 9.73 13.85 9.83L13.85 5.28C13.85 3.55 12.70 2.41 11.09 2.41C9.46 2.41 8.30 3.55 8.30 5.28L8.30 16.68C8.30 16.76 8.27 16.80 8.20 16.80C8.15 16.80 8.11 16.78 8.08 16.71L7.18 14.53C6.71 13.47 5.92 12.89 4.95 12.89C3.61 12.89 2.45 13.74 2.45 15.23C2.43 15.65 2.53 16.20 2.69 16.67L5.10 23.43C6.92 28.56 10.29 31.17 15.11 31.17ZM15.18 29.29C11.36 29.29 8.44 27.52 6.77 22.85L4.35 16.11C4.28 15.90 4.24 15.72 4.24 15.48C4.24 15.01 4.59 14.60 5.14 14.60C5.61 14.60 5.88 14.88 6.07 15.34L7.94 19.50C8.24 20.19 8.65 20.41 9.15 20.41C9.72 20.41 10.12 19.95 10.12 19.33L10.12 5.15C10.12 4.58 10.53 4.17 11.09 4.17C11.65 4.17 12.03 4.58 12.03 5.15L12.03 15.27C12.03 15.75 12.44 16.12 12.91 16.12C13.38 16.12 13.77 15.75 13.77 15.27L13.77 11.63C14 11.53 14.31 11.44 14.59 11.44C15.27 11.44 15.68 11.89 15.68 12.62L15.68 15.79C15.68 16.30 16.09 16.64 16.56 16.64C17.01 16.64 17.42 16.30 17.42 15.79L17.42 13.21C17.65 13.10 17.96 13.03 18.22 13.03C18.91 13.03 19.32 13.47 19.32 14.19L19.32 16.32C19.32 16.82 19.74 17.16 20.21 17.16C20.64 17.16 21.05 16.82 21.05 16.32L21.05 14.75C22.27 14.75 22.97 16.00 22.97 18.17L22.97 20.67C22.97 26.17 20.02 29.29 15.18 29.29Z" />
</svg>