<svg xmlns="http://www.w3.org/2000/svg" viewBox="2.45 1.9 27.85 29.74" width="27.85" height="29.74" fill="currentColor">
  <path d="M30.30 11.50C30.30 7.07 27.41 3.36 23.93 3.36L19.56 3.36C17.83 2.45 15.72 1.90 13.37 1.90L11.54 1.90C9.90 1.90 8.48 2.00 7.53 2.24C5.70 2.68 4.55 3.96 4.55 5.58C4.55 5.91 4.61 6.22 4.69 6.51C3.79 7.21 3.28 8.19 3.28 9.30C3.28 9.83 3.38 10.35 3.58 10.79C2.97 11.42 2.61 12.33 2.61 13.29C2.61 13.90 2.78 14.56 3.04 15.04C2.67 15.57 2.45 16.32 2.45 17.10C2.45 19.09 3.99 20.64 5.96 20.64L10.95 20.64C11.25 20.64 11.44 20.78 11.44 21.04C11.44 22.46 9.20 25.80 9.20 28.48C9.20 30.32 10.49 31.64 12.25 31.64C13.55 31.64 14.42 30.97 15.27 29.33C16.88 26.24 18.80 23.49 21.92 19.69L24.42 19.69C27.67 19.69 30.30 16.01 30.30 11.50ZM22.60 11.57C22.60 14.42 21.96 16.24 20.18 18.63C18.20 21.27 15.44 24.46 13.47 28.40C12.96 29.38 12.65 29.61 12.17 29.61C11.61 29.61 11.22 29.22 11.22 28.48C11.22 26.33 13.47 23.11 13.47 21.04C13.47 19.54 12.24 18.62 10.66 18.62L5.96 18.62C5.11 18.62 4.47 17.98 4.47 17.10C4.47 16.47 4.66 16.08 5.18 15.57C5.43 15.35 5.46 15.07 5.25 14.82C4.83 14.19 4.63 13.81 4.63 13.29C4.63 12.66 4.94 12.14 5.54 11.68C5.87 11.43 6.00 11.09 5.80 10.68C5.47 10.06 5.30 9.78 5.30 9.30C5.30 8.60 5.76 8.05 6.71 7.56C7.01 7.40 7.08 7.15 6.95 6.85C6.63 6.04 6.59 5.92 6.59 5.58C6.59 4.95 7.04 4.44 8.00 4.20C8.78 3.99 10.02 3.91 11.53 3.91L13.22 3.91C18.85 3.92 22.60 7.12 22.60 11.57ZM28.27 11.50C28.27 14.89 26.44 17.66 24.42 17.66L23.23 17.66C24.20 15.82 24.62 13.90 24.62 11.61C24.62 9.16 23.75 7.03 22.18 5.40L23.93 5.40C26.24 5.40 28.27 8.18 28.27 11.50Z" />
</svg>