<svg xmlns="http://www.w3.org/2000/svg" viewBox="2.45 -0.59 26.01 30.73" width="26.01" height="30.73" fill="currentColor">
  <path d="M9.28-0.59C5.51-0.59 2.45 2.47 2.45 6.25C2.45 7.88 3.02 9.38 3.96 10.55C4.20 10.84 4.47 10.95 4.73 10.95C5.40 10.95 5.97 10.16 5.40 9.47C4.66 8.60 4.24 7.48 4.24 6.25C4.24 3.46 6.49 1.20 9.28 1.20C12.07 1.20 14.31 3.46 14.31 6.25L14.31 6.54C14.33 7.15 14.75 7.42 15.19 7.42C15.61 7.42 16.05 7.12 16.09 6.64C16.11 6.55 16.11 6.43 16.11 6.25C16.11 2.47 13.06-0.59 9.28-0.59ZM22.08 29.45C27.51 27.48 29.82 22.50 27.64 16.49L26.62 13.69C25.54 10.72 23.50 9.50 21.12 10.34C20.48 9.50 19.50 9.21 18.42 9.61C18.02 9.75 17.68 9.95 17.35 10.20C16.65 9.28 15.57 8.96 14.45 9.37C14.15 9.47 13.86 9.64 13.59 9.83L12.04 5.56C11.44 3.94 9.98 3.25 8.46 3.80C6.93 4.36 6.25 5.82 6.82 7.45L10.73 18.17C10.75 18.24 10.73 18.29 10.66 18.32C10.61 18.35 10.57 18.32 10.53 18.27L8.93 16.53C8.13 15.68 7.19 15.44 6.28 15.76C5.03 16.21 4.21 17.40 4.73 18.81C4.85 19.21 5.14 19.70 5.44 20.07L10.02 25.61C13.49 29.80 17.54 31.10 22.08 29.45ZM21.51 27.66C17.91 28.97 14.55 28.30 11.39 24.49L6.82 18.98C6.67 18.81 6.58 18.66 6.49 18.44C6.33 17.99 6.52 17.50 7.05 17.31C7.48 17.14 7.83 17.31 8.18 17.68L11.33 20.95C11.87 21.49 12.33 21.55 12.80 21.38C13.33 21.18 13.56 20.63 13.34 20.03L8.49 6.71C8.29 6.18 8.53 5.66 9.06 5.46C9.60 5.28 10.09 5.51 10.28 6.07L13.75 15.57C13.92 16.02 14.42 16.23 14.86 16.05C15.30 15.90 15.54 15.42 15.38 14.97L14.12 11.55C14.31 11.38 14.57 11.20 14.85 11.12C15.48 10.88 16.01 11.16 16.26 11.83L17.35 14.81C17.53 15.29 18.03 15.46 18.46 15.31C18.89 15.15 19.15 14.70 18.98 14.23L18.10 11.79C18.28 11.61 18.55 11.43 18.80 11.33C19.44 11.10 19.99 11.38 20.23 12.06L20.96 14.07C21.12 14.53 21.64 14.71 22.08 14.55C22.49 14.40 22.75 13.93 22.59 13.47L22.05 11.99C23.19 11.58 24.27 12.52 25.02 14.56L25.87 16.90C27.74 22.07 26.04 26.00 21.51 27.66Z" />
</svg>