<svg xmlns="http://www.w3.org/2000/svg" viewBox="3.49 0.46 18.29 31.81" width="18.29" height="31.81" fill="currentColor">
  <path d="M3.49 8.89C3.49 14.14 6.63 15.44 7.51 24.55C7.56 25.05 7.83 25.36 8.35 25.36L16.91 25.36C17.45 25.36 17.72 25.05 17.77 24.55C18.65 15.44 21.78 14.14 21.78 8.89C21.78 4.17 17.75 0.46 12.63 0.46C7.52 0.46 3.49 4.17 3.49 8.89ZM5.55 8.89C5.55 5.20 8.79 2.53 12.63 2.53C16.47 2.53 19.71 5.20 19.71 8.89C19.71 12.81 17.12 13.74 15.89 23.30L9.39 23.30C8.15 13.74 5.55 12.81 5.55 8.89ZM8.31 28.31L16.97 28.31C17.42 28.31 17.76 27.96 17.76 27.51C17.76 27.07 17.42 26.71 16.97 26.71L8.31 26.71C7.86 26.71 7.51 27.07 7.51 27.51C7.51 27.96 7.86 28.31 8.31 28.31ZM12.63 32.28C14.75 32.28 16.52 31.24 16.65 29.67L8.63 29.67C8.72 31.24 10.50 32.28 12.63 32.28Z" />
</svg>