<svg xmlns="http://www.w3.org/2000/svg" viewBox="3.49 3.05 28.14 26.8" width="28.14" height="26.8" fill="currentColor">
  <path d="M6.56 29.85L19.07 29.85C21.08 29.85 22.15 28.75 22.15 26.59L22.15 17.17C22.15 15.34 21.37 14.27 19.91 14L19.91 10.39C19.91 6.93 22.12 5.11 24.68 5.11C27.23 5.11 29.45 6.93 29.45 10.39L29.45 13.43C29.45 14.23 29.93 14.64 30.54 14.64C31.13 14.64 31.62 14.27 31.62 13.43L31.62 10.68C31.62 5.54 28.25 3.05 24.68 3.05C21.10 3.05 17.75 5.54 17.75 10.68L17.75 13.93L6.56 13.93C4.55 13.93 3.49 15.03 3.49 17.17L3.49 26.59C3.49 28.75 4.55 29.85 6.56 29.85ZM6.63 27.78C6.04 27.78 5.70 27.41 5.70 26.74L5.70 17.02C5.70 16.35 6.04 16.00 6.63 16.00L19.00 16.00C19.61 16.00 19.93 16.35 19.93 17.02L19.93 26.74C19.93 27.41 19.61 27.78 19.00 27.78Z" />
</svg>