<svg xmlns="http://www.w3.org/2000/svg" viewBox="3.49 4.21 32.24 25.17" width="32.24" height="25.17" fill="currentColor">
  <path d="M7.78 29.38L31.43 29.38C34.30 29.38 35.72 27.97 35.72 25.16L35.72 8.45C35.72 5.63 34.30 4.21 31.43 4.21L7.78 4.21C4.92 4.21 3.49 5.63 3.49 8.45L3.49 25.16C3.49 27.97 4.92 29.38 7.78 29.38ZM7.81 27.18C6.44 27.18 5.69 26.46 5.69 25.03L5.69 8.57C5.69 7.15 6.44 6.41 7.81 6.41L31.40 6.41C32.76 6.41 33.52 7.15 33.52 8.57L33.52 25.03C33.52 26.46 32.76 27.18 31.40 27.18ZM14.67 22.18C14.67 23.20 15.12 23.68 16.08 23.68L23.16 23.68C24.10 23.68 24.55 23.20 24.55 22.18L24.55 16.73C24.55 15.78 24.16 15.31 23.35 15.26L23.35 13.63C23.35 11.12 21.85 9.43 19.62 9.43C17.39 9.43 15.89 11.12 15.89 13.63L15.89 15.26C15.07 15.31 14.67 15.78 14.67 16.73ZM17.31 15.24L17.31 13.48C17.31 11.88 18.22 10.81 19.62 10.81C21 10.81 21.93 11.88 21.93 13.48L21.93 15.24Z" />
</svg>