<svg xmlns="http://www.w3.org/2000/svg" viewBox="3.49 3.31 28.44 26.97" width="28.44" height="26.97" fill="currentColor">
  <path d="M5.03 29.75C5.37 29.75 5.73 29.63 6.17 29.38L13.13 25.63L20.69 29.87C21.18 30.15 21.71 30.28 22.22 30.28C22.70 30.28 23.17 30.16 23.58 29.93L30.73 25.87C31.55 25.42 31.92 24.76 31.92 23.84L31.92 5.43C31.92 4.42 31.36 3.86 30.38 3.86C30.04 3.86 29.68 3.96 29.23 4.21L21.98 8.24L14.56 3.69C14.14 3.45 13.66 3.31 13.18 3.31C12.69 3.31 12.20 3.45 11.77 3.69L4.66 7.74C3.86 8.20 3.49 8.86 3.49 9.78L3.49 28.16C3.49 29.18 4.05 29.75 5.03 29.75ZM12.24 23.46L6.07 26.85C6.00 26.88 5.93 26.92 5.87 26.92C5.76 26.92 5.69 26.84 5.69 26.70L5.69 10.31C5.69 9.98 5.81 9.75 6.14 9.56L11.74 6.28C11.92 6.18 12.07 6.10 12.24 6.00ZM14.44 23.68L14.44 6.29C14.57 6.37 14.74 6.45 14.88 6.54L20.97 10.25L20.97 27.34C20.78 27.23 20.58 27.14 20.37 27.03ZM23.17 27.59L23.17 10.12L29.34 6.75C29.41 6.71 29.48 6.69 29.53 6.69C29.65 6.69 29.72 6.77 29.72 6.90L29.72 23.30C29.72 23.64 29.59 23.87 29.27 24.06L23.79 27.25C23.58 27.37 23.38 27.49 23.17 27.59Z" />
</svg>