<svg xmlns="http://www.w3.org/2000/svg" viewBox="2.45 1.78 25.96 30.02" width="25.96" height="30.02" fill="currentColor">
  <path d="M10.29 6.93C10.29 9.34 11.92 11.35 14.15 11.91L14.15 20.56C14.15 24.60 14.88 26.80 15.42 26.80C15.98 26.80 16.69 24.61 16.69 20.56L16.69 11.91C18.92 11.36 20.56 9.34 20.56 6.93C20.56 4.10 18.28 1.78 15.42 1.78C12.58 1.78 10.29 4.10 10.29 6.93ZM13.96 7.22C13.03 7.22 12.21 6.40 12.21 5.44C12.21 4.50 13.03 3.69 13.96 3.69C14.93 3.69 15.72 4.50 15.72 5.44C15.72 6.40 14.93 7.22 13.96 7.22ZM15.44 31.80C23.68 31.80 28.41 28.96 28.41 25.95C28.41 22.34 22.68 20.14 18.92 20.10L18.92 22.09C21.56 22.13 25.65 23.57 25.65 25.62C25.65 27.97 21.31 29.64 15.44 29.64C9.53 29.64 5.22 28 5.22 25.62C5.22 23.57 9.30 22.13 11.94 22.09L11.94 20.10C8.18 20.14 2.45 22.34 2.45 25.95C2.45 28.96 7.19 31.80 15.44 31.80Z" />
</svg>