<svg xmlns="http://www.w3.org/2000/svg" viewBox="3.49 7.71 18.19 18.19" width="18.19" height="18.19" fill="currentColor">
  <path d="M5.58 25.55L12.58 18.54L19.59 25.55C20.06 26.02 20.85 26.03 21.31 25.55C21.81 25.07 21.79 24.28 21.31 23.82L14.31 16.80L21.31 9.80C21.79 9.34 21.81 8.53 21.31 8.07C20.85 7.59 20.06 7.60 19.59 8.07L12.58 15.08L5.58 8.07C5.11 7.60 4.31 7.59 3.84 8.07C3.36 8.53 3.38 9.34 3.84 9.80L10.86 16.80L3.84 23.82C3.38 24.28 3.36 25.07 3.84 25.55C4.31 26.03 5.11 26.02 5.58 25.55Z" />
</svg>