<svg xmlns="http://www.w3.org/2000/svg" viewBox="3.14 6.01 21.79 21.65" width="21.79" height="21.65" fill="currentColor">
  <path d="M23.00 10.34L24.38 8.98C25.07 8.29 25.12 7.55 24.49 6.90L24.02 6.45C23.39 5.82 22.64 5.88 21.96 6.56L20.56 7.93ZM22.91 25.50C23.32 25.91 24.01 25.91 24.40 25.50C24.80 25.07 24.81 24.42 24.40 24.01L7.22 6.82C6.81 6.41 6.11 6.40 5.71 6.82C5.30 7.22 5.30 7.92 5.71 8.31ZM17.98 15.33L21.79 11.51L19.40 9.11L15.59 12.92ZM6.88 26.41L14.25 19.04L11.84 16.65L4.47 24.01L3.17 27.06C3.04 27.38 3.39 27.77 3.72 27.63Z" />
</svg>