<svg xmlns="http://www.w3.org/2000/svg" viewBox="2.45 2.84 27.89 27.89" width="27.89" height="27.89" fill="currentColor">
  <path d="M16.39 30.73C24.09 30.73 30.34 24.49 30.34 16.79C30.34 9.09 24.09 2.84 16.39 2.84C8.70 2.84 2.45 9.09 2.45 16.79C2.45 24.49 8.70 30.73 16.39 30.73ZM16.39 21.44C12.29 21.44 9.12 22.91 7.74 24.54C5.89 22.49 4.77 19.77 4.77 16.79C4.77 10.36 9.97 5.17 16.39 5.17C22.82 5.17 28.01 10.36 28.01 16.79C28.01 19.77 26.89 22.49 25.05 24.54C23.67 22.91 20.51 21.44 16.39 21.44ZM16.39 19.11C19.03 19.14 21.08 16.90 21.08 13.96C21.08 11.20 19.02 8.91 16.39 8.91C13.77 8.91 11.69 11.20 11.70 13.96C11.72 16.90 13.77 19.09 16.39 19.11Z" />
</svg>