<svg xmlns="http://www.w3.org/2000/svg" viewBox="3.14 3.44 26.7 26.7" width="26.7" height="26.7" fill="currentColor">
  <path d="M23.00 30.15C25.38 30.15 26.95 29.50 28.33 27.96C28.44 27.84 28.53 27.73 28.64 27.60C29.46 26.70 29.85 25.81 29.85 24.96C29.85 23.98 29.29 23.02 28.07 22.19L24.64 19.84C23.58 19.13 22.70 19.09 21.38 19.71L19.26 20.75C18.85 20.95 18.50 20.95 18.10 20.70C17.50 20.32 15.98 19.10 14.96 18.05C13.92 17.01 12.91 15.76 12.46 14.98C12.28 14.67 12.30 14.41 12.54 14.04L13.77 12.11C14.30 11.27 14.46 10.10 13.78 9.12L11.07 5.24C10.23 4.02 9.31 3.46 8.33 3.45C7.48 3.43 6.59 3.83 5.67 4.65C5.56 4.74 5.44 4.85 5.33 4.96C3.79 6.33 3.14 7.90 3.14 10.27C3.14 14.18 5.56 18.96 9.95 23.34C14.31 27.70 19.09 30.15 23.00 30.15ZM23.01 28.07C19.52 28.14 15.07 25.46 11.53 21.93C7.96 18.38 5.15 13.75 5.22 10.25C5.25 8.75 5.77 7.46 6.85 6.52C6.93 6.45 7.01 6.38 7.10 6.32C7.51 5.96 7.96 5.77 8.34 5.77C8.75 5.77 9.09 5.92 9.37 6.33L11.83 10.02C12.06 10.36 12.04 10.66 11.77 11.14L10.40 13.33C9.80 14.30 9.91 15.04 10.51 15.86C11.31 16.91 12.50 18.43 13.55 19.47C14.59 20.51 16.32 21.98 17.27 22.64C18.09 23.24 18.83 23.38 20.10 22.76L22.39 21.67C22.91 21.44 23.32 21.51 23.76 21.78L26.96 23.93C27.37 24.19 27.52 24.54 27.52 24.95C27.52 25.33 27.33 25.79 26.97 26.20C26.91 26.28 26.84 26.36 26.77 26.44C25.83 27.52 24.53 28.04 23.01 28.07Z" />
</svg>