<svg xmlns="http://www.w3.org/2000/svg" viewBox="3.49 2.72 41.14 26.78" width="41.14" height="26.78" fill="currentColor">
  <path d="M43.13 6.23L44.23 5.15C44.75 4.63 44.76 3.87 44.24 3.36L43.89 3.04C43.42 2.61 42.68 2.60 42.19 3.10L41.10 4.21ZM29.86 19.50L42.14 7.23L40.10 5.20L27.84 17.46L26.70 20.07C26.59 20.34 26.88 20.66 27.17 20.55ZM9.20 29.50L32.68 29.50C36.35 29.50 38.39 27.47 38.39 23.79L38.39 13.89L36.19 16.09L36.19 23.79C36.19 26.04 34.92 27.32 32.68 27.32L9.20 27.32C6.96 27.32 5.69 26.04 5.69 23.79L5.69 15.90C5.69 13.66 6.96 12.39 9.20 12.39L30.01 12.39L32.18 10.19L9.20 10.19C5.52 10.19 3.49 12.24 3.49 15.90L3.49 23.79C3.49 27.47 5.52 29.50 9.20 29.50ZM10.75 21.72C11.83 21.72 12.70 20.85 12.70 19.77C12.70 18.69 11.83 17.81 10.75 17.81C9.67 17.81 8.79 18.69 8.79 19.77C8.79 20.85 9.67 21.72 10.75 21.72ZM16.64 21.72C17.72 21.72 18.59 20.85 18.59 19.77C18.59 18.69 17.72 17.81 16.64 17.81C15.56 17.81 14.68 18.69 14.68 19.77C14.68 20.85 15.56 21.72 16.64 21.72ZM22.53 21.72C23.61 21.72 24.49 20.85 24.49 19.77C24.49 18.69 23.61 17.81 22.53 17.81C21.45 17.81 20.58 18.69 20.58 19.77C20.58 20.85 21.45 21.72 22.53 21.72Z" />
</svg>