<svg xmlns="http://www.w3.org/2000/svg" viewBox="2.79 3.97 27.81 25.17" width="27.81" height="25.17" fill="currentColor">
  <path d="M3.09 20.47C3.51 20.89 4.14 20.88 4.55 20.47L6.96 18.06C15.35 9.67 20.13 4.79 21.81 6.45C22.98 7.63 20.10 10.95 16.54 15.15C12.84 19.52 8.75 24.06 11.53 26.85C13.93 29.27 17.83 26.18 21.45 22.67C24.20 20.00 26.33 17.94 27.06 18.65C27.67 19.26 26.80 20.48 25.76 22.27C24.45 24.54 22.78 26.97 24.36 28.56C25.58 29.78 27.64 29.07 30.19 26.46C30.71 25.95 30.72 25.32 30.30 24.90C29.87 24.49 29.26 24.50 28.83 24.91C26.85 26.76 26.00 27.26 25.68 26.93C25.29 26.55 25.84 25.73 27.30 23.32C29.15 20.30 29.82 18.50 28.56 17.24C26.84 15.50 24.28 17.08 19.97 21.18C15.75 25.18 13.88 26.26 12.99 25.39C11.91 24.34 13.33 21.96 18.09 16.49C23.42 10.34 25.48 7.21 23.26 4.99C20.51 2.26 17.45 4.65 5.51 16.60L3.09 19.00C2.68 19.41 2.69 20.04 3.09 20.47Z" />
</svg>