<svg xmlns="http://www.w3.org/2000/svg" viewBox="3.49 4.1 25.02 24.06" width="25.02" height="24.06" fill="currentColor">
  <path d="M6.78 28.16C7.40 28.16 7.88 27.67 7.88 27.11L7.88 23.06C9.15 22.61 10.06 21.40 10.06 19.97C10.06 18.55 9.15 17.34 7.88 16.88L7.88 5.21C7.88 4.59 7.40 4.10 6.78 4.10C6.17 4.10 5.67 4.59 5.67 5.21L5.67 16.87C4.40 17.34 3.49 18.55 3.49 19.97C3.49 21.40 4.40 22.61 5.67 23.06L5.67 27.11C5.67 27.67 6.17 28.16 6.78 28.16ZM16.00 28.16C16.61 28.16 17.10 27.67 17.10 27.06L17.10 15.16C18.36 14.71 19.28 13.49 19.28 12.07C19.28 10.65 18.36 9.43 17.10 8.98L17.10 5.15C17.10 4.59 16.61 4.10 16.00 4.10C15.38 4.10 14.90 4.59 14.90 5.15L14.90 8.97C13.62 9.43 12.70 10.65 12.70 12.07C12.70 13.49 13.62 14.71 14.90 15.16L14.90 27.06C14.90 27.67 15.38 28.16 16.00 28.16ZM21.94 19.97C21.94 21.40 22.85 22.61 24.12 23.06L24.12 27.11C24.12 27.67 24.61 28.16 25.22 28.16C25.84 28.16 26.32 27.67 26.32 27.11L26.32 23.06C27.59 22.61 28.51 21.40 28.51 19.97C28.51 18.55 27.59 17.32 26.32 16.87L26.32 5.21C26.32 4.59 25.84 4.10 25.22 4.10C24.61 4.10 24.12 4.59 24.12 5.21L24.12 16.88C22.85 17.34 21.94 18.55 21.94 19.97ZM14.40 12.07C14.40 11.18 15.11 10.47 16.00 10.47C16.90 10.47 17.60 11.18 17.60 12.07C17.60 12.97 16.90 13.67 16.00 13.67C15.11 13.67 14.40 12.97 14.40 12.07ZM5.17 19.97C5.17 19.07 5.88 18.38 6.78 18.38C7.68 18.38 8.38 19.07 8.38 19.97C8.38 20.88 7.68 21.57 6.78 21.57C5.88 21.57 5.17 20.88 5.17 19.97ZM23.63 19.97C23.63 19.07 24.34 18.38 25.22 18.38C26.14 18.38 26.82 19.07 26.82 19.97C26.82 20.88 26.14 21.57 25.22 21.57C24.34 21.57 23.63 20.88 23.63 19.97Z" />
</svg>