<svg width="21" height="21" viewBox="0 0 21 21" fill="currentColor" xmlns="http://www.w3.org/2000/svg">
<path d="M11.1935 20C11.084 20 10.9888 19.962 10.9081 19.886C10.8332 19.8159 10.787 19.7194 10.7697 19.5967C10.6371 18.638 10.493 17.8314 10.3373 17.1767C10.1874 16.5278 9.98559 15.993 9.73189 15.5721C9.4782 15.1512 9.14378 14.8151 8.72865 14.5638C8.31928 14.3124 7.79459 14.1108 7.15459 13.9588C6.52036 13.801 5.73622 13.6607 4.80216 13.5379C4.67532 13.5262 4.57441 13.4795 4.49946 13.3976C4.4245 13.3158 4.38703 13.2164 4.38703 13.0995C4.38703 12.9885 4.4245 12.892 4.49946 12.8102C4.57441 12.7283 4.67532 12.6816 4.80216 12.6699C5.73622 12.5647 6.52324 12.439 7.16324 12.2929C7.80324 12.1467 8.33081 11.9451 8.74595 11.6879C9.16108 11.4307 9.4955 11.0887 9.74919 10.662C10.0029 10.2353 10.2047 9.69458 10.3546 9.03989C10.5103 8.37937 10.6486 7.56686 10.7697 6.60237C10.787 6.48546 10.8332 6.39193 10.9081 6.32179C10.9888 6.2458 11.084 6.2078 11.1935 6.2078C11.3088 6.2078 11.404 6.2458 11.4789 6.32179C11.5539 6.39193 11.6029 6.48546 11.6259 6.60237C11.747 7.56686 11.8825 8.37937 12.0324 9.03989C12.1881 9.69458 12.3899 10.2353 12.6378 10.662C12.8915 11.0887 13.2259 11.4307 13.6411 11.6879C14.0562 11.9451 14.5838 12.1467 15.2238 12.2929C15.8638 12.439 16.6537 12.5647 17.5935 12.6699C17.7146 12.6816 17.8126 12.7283 17.8876 12.8102C17.9625 12.892 18 12.9885 18 13.0995C18 13.2164 17.9625 13.3158 17.8876 13.3976C17.8126 13.4795 17.7146 13.5262 17.5935 13.5379C16.6537 13.6431 15.8638 13.7688 15.2238 13.9149C14.5838 14.0611 14.0562 14.2628 13.6411 14.5199C13.2259 14.7713 12.8915 15.1103 12.6378 15.537C12.3899 15.9638 12.1881 16.5074 12.0324 17.1679C11.8825 17.8284 11.747 18.638 11.6259 19.5967C11.6029 19.7194 11.5539 19.8159 11.4789 19.886C11.404 19.962 11.3088 20 11.1935 20ZM5.32973 10.3025C5.15676 10.3025 5.05874 10.2061 5.03568 10.0132C4.96649 9.42861 4.89153 8.96975 4.81081 8.63656C4.73586 8.30338 4.61189 8.05495 4.43892 7.89128C4.27171 7.72176 4.01802 7.59316 3.67784 7.50548C3.34342 7.4178 2.88216 7.32427 2.29405 7.2249C2.09802 7.19567 2 7.0963 2 6.92679C2 6.76312 2.08649 6.66667 2.25946 6.63744C2.85333 6.52053 3.32036 6.41824 3.66054 6.33056C4.00072 6.23703 4.2573 6.10843 4.43027 5.94476C4.60324 5.78109 4.73009 5.53851 4.81081 5.21701C4.89153 4.88967 4.96649 4.43373 5.03568 3.84919C5.05874 3.65629 5.15676 3.55984 5.32973 3.55984C5.5027 3.55984 5.60072 3.65337 5.62378 3.84042C5.69874 4.43081 5.77369 4.89551 5.84865 5.23455C5.92937 5.57358 6.05333 5.83078 6.22054 6.00614C6.39351 6.17565 6.65009 6.30133 6.99027 6.38317C7.33045 6.465 7.80036 6.54976 8.4 6.63744C8.47495 6.64329 8.5355 6.67251 8.58162 6.72512C8.63351 6.77773 8.65946 6.84495 8.65946 6.92679C8.65946 7.09046 8.57297 7.18983 8.4 7.2249C7.80036 7.34181 7.33045 7.44703 6.99027 7.54055C6.65586 7.62823 6.40216 7.75683 6.22919 7.92635C6.06198 8.09002 5.93802 8.33553 5.8573 8.66287C5.77658 8.99021 5.69874 9.44615 5.62378 10.0307C5.61225 10.1067 5.58054 10.171 5.52865 10.2236C5.47676 10.2762 5.41045 10.3025 5.32973 10.3025ZM9.51568 4.27006C9.40613 4.27006 9.3427 4.2116 9.32541 4.0947C9.25622 3.73813 9.19568 3.45755 9.14378 3.25296C9.09766 3.04837 9.0227 2.89347 8.91892 2.78825C8.8209 2.67719 8.66811 2.58951 8.46054 2.52521C8.25297 2.46091 7.9618 2.39661 7.58703 2.33231C7.47171 2.30893 7.41405 2.24171 7.41405 2.13064C7.41405 2.02543 7.47171 1.96113 7.58703 1.93775C7.9618 1.8676 8.25297 1.8033 8.46054 1.74485C8.66811 1.68055 8.8209 1.59579 8.91892 1.49057C9.0227 1.37951 9.09766 1.22169 9.14378 1.0171C9.19568 0.812509 9.25622 0.53193 9.32541 0.175362C9.3427 0.0584539 9.40613 0 9.51568 0C9.61946 0 9.68288 0.0584539 9.70595 0.175362C9.76937 0.53193 9.82703 0.812509 9.87892 1.0171C9.93081 1.22169 10.0058 1.37951 10.1038 1.49057C10.2076 1.59579 10.3632 1.68055 10.5708 1.74485C10.7784 1.8033 11.0695 1.8676 11.4443 1.93775C11.5596 1.96113 11.6173 2.02543 11.6173 2.13064C11.6173 2.24171 11.5596 2.30893 11.4443 2.33231C11.0695 2.39661 10.7784 2.46091 10.5708 2.52521C10.3632 2.58951 10.2076 2.67719 10.1038 2.78825C10.0058 2.89347 9.93081 3.04837 9.87892 3.25296C9.82703 3.45755 9.76937 3.73813 9.70595 4.0947C9.68288 4.2116 9.61946 4.27006 9.51568 4.27006Z" fill="currentColor"/>
</svg>
