<svg xmlns="http://www.w3.org/2000/svg" viewBox="3.49 1.52 26.89 31.08" width="26.89" height="31.08" fill="currentColor">
  <path d="M4.89 26.10C5.14 26.10 5.43 26.02 5.70 25.83L5.70 11.20C5.70 10.71 5.80 10.51 6.22 10.28L18.89 2.98C18.95 2.08 18.36 1.52 17.60 1.52C17.24 1.52 16.86 1.61 16.45 1.86L4.98 8.45C3.64 9.23 3.49 9.47 3.49 11.03L3.49 24.12C3.49 25.29 4.05 26.10 4.89 26.10ZM10.35 29.26C10.61 29.26 10.88 29.18 11.16 28.98L11.16 14.36C11.16 13.82 11.24 13.69 11.69 13.44L24.36 6.13C24.40 5.24 23.84 4.66 23.04 4.66C22.70 4.66 22.31 4.77 21.90 4.99L10.43 11.59C9.09 12.36 8.93 12.65 8.93 14.18L8.93 27.28C8.93 28.45 9.53 29.26 10.35 29.26ZM16.21 32.59C16.69 32.59 17.27 32.40 17.95 32.02L28.67 25.87C29.93 25.14 30.38 24.39 30.38 22.86L30.38 10.47C30.38 8.83 29.80 8.00 28.78 8.00C28.31 8.00 27.75 8.18 27.11 8.54L16.37 14.74C15.08 15.49 14.63 16.26 14.63 17.75L14.63 30.13C14.63 31.72 15.18 32.59 16.21 32.59ZM16.95 29.93C16.87 29.91 16.86 29.87 16.86 29.78L16.95 17.79C16.95 17.27 17.10 16.99 17.55 16.73L27.90 10.65C27.96 10.62 28 10.62 28.04 10.64C28.11 10.65 28.14 10.69 28.14 10.79L28.10 22.82C28.10 23.27 27.95 23.61 27.49 23.88L17.09 29.91C17.04 29.94 16.99 29.94 16.95 29.93Z" />
</svg>