<svg xmlns="http://www.w3.org/2000/svg" viewBox="3.49 0.74 24.27 30.71" width="24.27" height="30.71" fill="currentColor">
  <path d="M15.61 20.74C16.20 20.74 16.71 20.26 16.71 19.69L16.71 5.77L16.61 3.72L17.39 4.54L19.50 6.79C19.69 7.01 19.97 7.12 20.23 7.12C20.81 7.12 21.23 6.71 21.23 6.17C21.23 5.87 21.12 5.65 20.92 5.44L16.41 1.09C16.13 0.82 15.90 0.74 15.61 0.74C15.34 0.74 15.11 0.82 14.82 1.09L10.32 5.44C10.12 5.65 9.99 5.87 9.99 6.17C9.99 6.71 10.40 7.12 10.98 7.12C11.24 7.12 11.54 7.01 11.73 6.79L13.85 4.54L14.63 3.71L14.53 5.77L14.53 19.69C14.53 20.26 15.03 20.74 15.61 20.74ZM9.20 31.45L22.03 31.45C25.70 31.45 27.75 29.39 27.75 25.73L27.75 15.20C27.75 11.53 25.70 9.49 22.03 9.49L19.26 9.49L19.26 11.69L22.03 11.69C24.28 11.69 25.55 12.95 25.55 15.20L25.55 25.73C25.55 27.99 24.28 29.24 22.03 29.24L9.20 29.24C6.96 29.24 5.69 27.99 5.69 25.73L5.69 15.20C5.69 12.95 6.96 11.69 9.20 11.69L11.96 11.69L11.96 9.49L9.20 9.49C5.52 9.49 3.49 11.53 3.49 15.20L3.49 25.73C3.49 29.39 5.52 31.45 9.20 31.45Z" />
</svg>