<svg xmlns="http://www.w3.org/2000/svg" viewBox="4.89 2.35 27.05 27.01" width="27.05" height="27.01" fill="currentColor">
  <path d="M30.61 5.58L31.60 4.57C32.06 4.07 32.06 3.42 31.60 2.97L31.28 2.64C30.86 2.21 30.19 2.27 29.74 2.71L28.74 3.69ZM14.16 20.49L16.83 19.33L29.60 6.58L27.73 4.73L14.97 17.49L13.74 20.06C13.63 20.29 13.90 20.60 14.16 20.49ZM10.61 29.35L23.41 29.35C27.08 29.35 29.12 27.32 29.12 23.64L29.12 10.86C29.12 10.47 29.08 10.10 29.01 9.78L26.87 11.91C26.91 12.13 26.92 12.35 26.92 12.59L26.92 23.64C26.92 25.89 25.66 27.15 23.41 27.15L10.61 27.15C8.37 27.15 7.10 25.89 7.10 23.64L7.10 10.84C7.10 8.60 8.37 7.33 10.61 7.33L21.45 7.33C21.78 7.33 22.12 7.36 22.42 7.40L24.55 5.24C24.23 5.18 23.86 5.14 23.47 5.14L10.61 5.13C6.95 5.13 4.89 7.18 4.89 10.86L4.89 23.64C4.89 27.32 6.95 29.35 10.61 29.35Z" />
</svg>