<svg width="21" height="21" viewBox="0 0 21 21" fill="currentColor" xmlns="http://www.w3.org/2000/svg">
<path d="M4.52759 19.723C3.21899 19.723 2.20988 19.3682 1.50024 18.6585C0.797119 17.9554 0.445557 16.9496 0.445557 15.641V6.51011C0.445557 5.195 0.797119 4.18589 1.50024 3.48276C2.20988 2.77313 3.21899 2.41831 4.52759 2.41831L13.717 2.42808C13.8538 2.42808 13.9872 2.43459 14.1174 2.44761C14.2476 2.46063 14.3713 2.4769 14.4885 2.49644L12.9651 4.0394C12.8544 4.02638 12.7405 4.01662 12.6233 4.01011C12.5061 3.99709 12.3889 3.99058 12.2717 3.99058H4.52759C3.72681 3.99058 3.10832 4.20868 2.67212 4.64487C2.23592 5.08107 2.01782 5.69956 2.01782 6.50034V15.641C2.01782 16.4483 2.23592 17.07 2.67212 17.5062C3.10832 17.9359 3.72681 18.1507 4.52759 18.1507H13.6682C14.469 18.1507 15.0875 17.9359 15.5237 17.5062C15.9599 17.07 16.178 16.4483 16.178 15.641V7.75034C16.178 7.6592 16.1747 7.57456 16.1682 7.49644C16.1617 7.41831 16.1519 7.34019 16.1389 7.26206L17.6721 5.73862C17.6982 5.85581 17.7177 5.97951 17.7307 6.10972C17.7437 6.23993 17.7502 6.37339 17.7502 6.51011V15.641C17.7502 16.9496 17.3987 17.9554 16.6956 18.6585C15.9924 19.3682 14.9833 19.723 13.6682 19.723H4.52759ZM7.06665 13.3949C6.9755 13.4339 6.89087 13.4144 6.81274 13.3363C6.74113 13.2516 6.72485 13.167 6.76392 13.0824L7.64282 11.2464L16.7542 2.13511L18.092 3.45347L8.97095 12.5648L7.06665 13.3949ZM18.8147 2.74058L17.4768 1.39292L18.1897 0.689795C18.3525 0.533545 18.538 0.44891 18.7463 0.435889C18.9612 0.422868 19.1435 0.491227 19.2932 0.640967L19.5178 0.875342C19.6871 1.0381 19.7685 1.2269 19.762 1.44175C19.762 1.65008 19.6806 1.84214 19.5178 2.01792L18.8147 2.74058Z" fill="currentColor"/>
</svg>
