<svg xmlns="http://www.w3.org/2000/svg" viewBox="3.4 1.93 27.96 30.35" width="27.96" height="30.35" fill="currentColor">
  <path d="M17.39 19.25C17.94 19.25 18.47 19.07 19.13 18.69L29.82 12.48C30.93 11.84 31.35 11.33 31.35 10.58C31.35 9.84 30.93 9.34 29.82 8.70L19.13 2.49C18.47 2.11 17.94 1.93 17.39 1.93C16.83 1.93 16.31 2.11 15.64 2.49L4.95 8.70C3.84 9.34 3.42 9.84 3.42 10.58C3.42 11.33 3.84 11.84 4.95 12.48L15.64 18.69C16.31 19.07 16.83 19.25 17.39 19.25ZM17.39 16.87C17.19 16.87 17.01 16.80 16.78 16.68L6.37 10.72C6.32 10.69 6.28 10.65 6.28 10.58C6.28 10.53 6.32 10.49 6.37 10.46L16.78 4.50C17.01 4.38 17.19 4.31 17.39 4.31C17.58 4.31 17.76 4.38 17.99 4.50L28.40 10.46C28.46 10.49 28.49 10.53 28.49 10.58C28.49 10.65 28.46 10.69 28.40 10.72L17.99 16.68C17.76 16.80 17.58 16.87 17.39 16.87ZM17.39 25.99C17.88 25.99 18.31 25.76 18.88 25.42L30.63 18.48C31.13 18.17 31.36 17.72 31.36 17.29C31.36 16.73 30.95 16.27 30.57 16.09L17.91 23.41C17.71 23.52 17.54 23.60 17.39 23.60C17.23 23.60 17.06 23.52 16.86 23.41L4.20 16.09C3.81 16.27 3.40 16.73 3.40 17.29C3.40 17.72 3.65 18.18 4.16 18.48L15.89 25.42C16.47 25.76 16.88 25.99 17.39 25.99ZM17.39 32.28C17.88 32.28 18.31 32.05 18.88 31.71L30.63 24.77C31.12 24.49 31.36 24.01 31.36 23.58C31.36 23.02 30.95 22.57 30.57 22.38L17.91 29.71C17.71 29.82 17.54 29.90 17.39 29.90C17.23 29.90 17.06 29.82 16.86 29.71L4.20 22.38C3.81 22.57 3.40 23.02 3.40 23.58C3.40 24.01 3.65 24.49 4.16 24.77L15.89 31.71C16.47 32.05 16.88 32.28 17.39 32.28Z" />
</svg>