<svg xmlns="http://www.w3.org/2000/svg" viewBox="2.79 1.31 30.36 29.02" width="30.36" height="29.02" fill="currentColor">
  <path d="M8.61 30.08C9.17 30.52 9.88 30.37 10.73 29.75L17.96 24.43L25.21 29.75C26.06 30.37 26.76 30.52 27.33 30.08C27.89 29.65 28.01 28.96 27.67 27.96L24.81 19.46L32.12 14.21C32.96 13.60 33.30 12.97 33.09 12.29C32.87 11.63 32.22 11.31 31.17 11.32L22.22 11.38L19.50 2.83C19.17 1.82 18.68 1.31 17.96 1.31C17.27 1.31 16.78 1.82 16.45 2.83L13.73 11.38L4.77 11.32C3.72 11.31 3.08 11.63 2.86 12.29C2.63 12.97 2.98 13.60 3.83 14.21L11.13 19.46L8.27 27.96C7.93 28.96 8.05 29.65 8.61 30.08ZM10.58 27.37C10.55 27.34 10.57 27.33 10.58 27.25L13.30 19.43C13.49 18.89 13.38 18.47 12.91 18.14L6.10 13.44C6.03 13.40 6.02 13.37 6.03 13.33C6.04 13.29 6.07 13.29 6.15 13.29L14.42 13.44C14.98 13.45 15.34 13.22 15.52 12.66L17.90 4.74C17.91 4.66 17.94 4.63 17.96 4.63C18.01 4.63 18.03 4.66 18.05 4.74L20.43 12.66C20.60 13.22 20.96 13.45 21.52 13.44L29.79 13.29C29.87 13.29 29.90 13.29 29.91 13.33C29.93 13.37 29.90 13.40 29.85 13.44L23.04 18.14C22.56 18.47 22.45 18.89 22.64 19.43L25.36 27.25C25.38 27.33 25.39 27.34 25.36 27.37C25.33 27.41 25.29 27.38 25.24 27.34L18.66 22.33C18.22 21.98 17.72 21.98 17.28 22.33L10.71 27.34C10.65 27.38 10.61 27.41 10.58 27.37Z" />
</svg>