<svg xmlns="http://www.w3.org/2000/svg" viewBox="3.49 5.65 22.27 22.29" width="22.27" height="22.29" fill="currentColor">
  <path d="M3.49 24.91C3.49 26.81 4.63 27.93 6.55 27.93L22.70 27.93C24.62 27.93 25.76 26.81 25.76 24.91L25.76 8.67C25.76 6.77 24.62 5.65 22.70 5.65L6.55 5.65C4.63 5.65 3.49 6.77 3.49 8.67ZM5.69 24.39L5.69 9.19C5.69 8.35 6.18 7.85 7 7.85L22.24 7.85C23.08 7.85 23.56 8.35 23.56 9.19L23.56 24.39C23.56 25.22 23.08 25.73 22.24 25.73L7 25.73C6.18 25.73 5.69 25.22 5.69 24.39Z" />
</svg>