<svg xmlns="http://www.w3.org/2000/svg" viewBox="3.49 6.66 22.57 20.26" width="22.57" height="20.26" fill="currentColor">
  <path d="M4.05 17.16L11.98 17.16C12.32 17.27 12.69 17.38 13.08 17.46L15.60 18.06C18.44 18.74 19.63 19.67 19.63 21.31C19.63 23.28 17.62 24.72 14.77 24.72C12.24 24.72 10.34 23.56 9.64 21.62C9.39 21.03 9.09 20.77 8.52 20.77C7.78 20.77 7.33 21.22 7.33 21.93C7.33 22.18 7.37 22.44 7.44 22.70C8.16 25.28 11.01 26.92 14.77 26.92C19.30 26.92 22.22 24.58 22.22 21.01C22.22 19.30 21.59 18.07 20.21 17.16L25.50 17.16C25.81 17.16 26.06 16.91 26.06 16.60C26.06 16.28 25.81 16.04 25.50 16.04L17.65 16.04C17.27 15.91 16.86 15.80 16.43 15.71L14.21 15.18C11.43 14.51 10.25 13.66 10.25 12.14C10.25 10.23 12.14 8.87 14.75 8.87C17.10 8.87 18.79 9.94 19.46 11.83C19.67 12.35 20.00 12.59 20.55 12.59C21.26 12.59 21.70 12.18 21.70 11.50C21.70 11.29 21.67 11.07 21.62 10.87C21 8.38 18.27 6.66 14.75 6.66C10.64 6.66 7.67 9.01 7.67 12.32C7.67 13.93 8.27 15.13 9.56 16.04L4.05 16.04C3.73 16.04 3.49 16.28 3.49 16.60C3.49 16.91 3.73 17.16 4.05 17.16Z" />
</svg>