<svg xmlns="http://www.w3.org/2000/svg" viewBox="2.45 3.61 30.53 26.4" width="30.53" height="26.4" fill="currentColor">
  <path d="M17.66 3.61C9.26 3.61 2.45 10.42 2.45 18.83C2.45 22.97 4.10 26.77 6.85 29.53C7.30 30.00 8.04 30.02 8.56 29.54C8.97 29.13 8.89 28.38 8.34 27.79C6.14 25.50 4.81 22.30 4.81 18.83C4.81 11.63 10.49 5.93 17.66 5.93C24.12 5.93 29.35 10.55 30.31 16.71C30.49 17.61 31.29 17.91 31.91 17.68C32.40 17.49 32.77 16.98 32.61 16.20C31.40 9.05 25.17 3.61 17.66 3.61ZM16.05 20.77C17.04 21.75 18.46 21.75 19.44 20.77C20.43 19.78 20.43 18.36 19.44 17.38C19.26 17.19 18.87 16.90 18.62 16.73L11.33 11.68C10.96 11.42 10.61 11.50 10.39 11.70C10.17 11.94 10.09 12.28 10.35 12.66L15.41 19.95C15.57 20.19 15.86 20.58 16.05 20.77ZM31.61 22.26C32.36 22.26 32.98 21.63 32.98 20.89C32.98 20.13 32.36 19.52 31.61 19.52C30.87 19.52 30.24 20.13 30.24 20.89C30.24 21.63 30.87 22.26 31.61 22.26ZM30.27 26.52C31.01 26.52 31.64 25.89 31.64 25.16C31.64 24.39 31.01 23.78 30.27 23.78C29.52 23.78 28.90 24.39 28.90 25.16C28.90 25.89 29.52 26.52 30.27 26.52ZM27.59 30.01C28.36 30.01 28.96 29.38 28.96 28.64C28.96 27.88 28.36 27.28 27.59 27.28C26.85 27.28 26.22 27.88 26.22 28.64C26.22 29.38 26.85 30.01 27.59 30.01Z" />
</svg>