<svg xmlns="http://www.w3.org/2000/svg" viewBox="3.13 2.21 30.54 30.54" width="30.54" height="30.54" fill="currentColor">
  <path d="M19.25 31.28L32.58 17.92C33.61 16.90 33.67 16.31 33.67 14.88L33.67 9.68C33.67 8.23 33.33 7.78 32.29 6.74L29.15 3.60C28.12 2.57 27.67 2.21 26.22 2.21L21.01 2.21C19.58 2.21 19.00 2.28 17.98 3.31L4.61 16.65C2.65 18.61 2.63 20.63 4.62 22.63L13.28 31.27C15.29 33.26 17.29 33.24 19.25 31.28ZM17.77 29.63C16.80 30.61 15.75 30.63 14.75 29.61L6.26 21.14C5.26 20.14 5.28 19.09 6.25 18.12L19.52 4.87C19.81 4.59 20.08 4.42 20.55 4.42L26.30 4.42C26.74 4.42 27.02 4.58 27.32 4.87L31.04 8.59C31.32 8.87 31.47 9.16 31.47 9.58L31.47 15.35C31.47 15.80 31.31 16.09 31.04 16.37ZM24.62 13.15C25.69 13.15 26.50 12.32 26.50 11.28C26.50 10.23 25.69 9.41 24.62 9.41C23.56 9.41 22.75 10.23 22.75 11.28C22.75 12.32 23.56 13.15 24.62 13.15Z" />
</svg>