<svg xmlns="http://www.w3.org/2000/svg" viewBox="3.62 2.54 45.83 28.64" width="45.83" height="28.64" fill="currentColor">
  <path d="M4.91 22.64C5.41 22.64 5.92 22.34 6.18 21.63L7.96 16.75L16.11 16.75L17.87 21.63C18.14 22.35 18.62 22.64 19.13 22.64C19.71 22.64 20.29 22.20 20.29 21.55C20.29 21.31 20.23 21.12 20.14 20.82L13.71 3.76C13.41 2.94 12.88 2.54 12.03 2.54C11.18 2.54 10.66 2.94 10.36 3.75L3.94 20.84C3.84 21.14 3.80 21.33 3.80 21.56C3.80 22.23 4.33 22.64 4.91 22.64ZM23.39 22.64C24.04 22.64 24.53 22.19 24.53 21.48L24.53 19.59L24.57 19.59C25.33 21.46 27.10 22.65 29.31 22.65C32.96 22.65 35.37 19.76 35.37 15.30C35.37 10.83 32.95 7.93 29.34 7.93C27.18 7.93 25.40 9.11 24.62 10.98L24.58 10.98L24.58 4.21C24.58 3.46 24.12 2.98 23.43 2.98C22.75 2.98 22.27 3.46 22.27 4.21L22.27 21.48C22.27 22.20 22.72 22.64 23.39 22.64ZM8.57 14.79L11.94 5.48L12.10 5.48L15.46 14.79ZM43.54 22.65C46.16 22.65 48.41 21.21 49.18 19.17C49.27 18.94 49.31 18.70 49.31 18.51C49.31 17.92 48.88 17.51 48.30 17.51C47.80 17.51 47.52 17.72 47.21 18.31C46.53 19.81 45.35 20.64 43.56 20.64C40.97 20.64 39.31 18.62 39.31 15.30C39.31 12.00 40.99 9.94 43.56 9.94C45.25 9.94 46.48 10.73 47.18 12.30C47.47 12.87 47.77 13.06 48.26 13.06C48.85 13.06 49.26 12.66 49.26 12.09C49.26 11.91 49.23 11.70 49.18 11.53C48.49 9.46 46.21 7.93 43.50 7.93C39.53 7.93 36.93 10.86 36.93 15.31C36.93 19.80 39.55 22.65 43.54 22.65ZM28.83 20.64C26.35 20.64 24.60 18.54 24.60 15.30C24.60 12.06 26.35 9.95 28.83 9.95C31.39 9.95 32.98 12.00 32.98 15.30C32.98 18.61 31.38 20.64 28.83 20.64ZM5.29 31.19C6.21 31.19 6.95 30.45 6.95 29.53C6.95 28.62 6.21 27.86 5.29 27.86C4.36 27.86 3.62 28.62 3.62 29.53C3.62 30.45 4.36 31.19 5.29 31.19ZM12.37 31.19C13.29 31.19 14.04 30.45 14.04 29.53C14.04 28.62 13.29 27.86 12.37 27.86C11.46 27.86 10.72 28.62 10.72 29.53C10.72 30.45 11.46 31.19 12.37 31.19ZM19.47 31.19C20.38 31.19 21.12 30.45 21.12 29.53C21.12 28.62 20.38 27.86 19.47 27.86C18.55 27.86 17.80 28.62 17.80 29.53C17.80 30.45 18.55 31.19 19.47 31.19ZM26.55 31.19C27.47 31.19 28.22 30.45 28.22 29.53C28.22 28.62 27.47 27.86 26.55 27.86C25.63 27.86 24.90 28.62 24.90 29.53C24.90 30.45 25.63 31.19 26.55 31.19ZM33.65 31.19C34.56 31.19 35.30 30.45 35.30 29.53C35.30 28.62 34.56 27.86 33.65 27.86C32.73 27.86 31.98 28.62 31.98 29.53C31.98 30.45 32.73 31.19 33.65 31.19ZM40.73 31.19C41.64 31.19 42.40 30.45 42.40 29.53C42.40 28.62 41.64 27.86 40.73 27.86C39.81 27.86 39.07 28.62 39.07 29.53C39.07 30.45 39.81 31.19 40.73 31.19ZM47.80 31.19C48.71 31.19 49.45 30.45 49.45 29.53C49.45 28.62 48.71 27.86 47.80 27.86C46.88 27.86 46.13 28.62 46.13 29.53C46.13 30.45 46.88 31.19 47.80 31.19Z" />
</svg>