<svg xmlns="http://www.w3.org/2000/svg" viewBox="2.09 0.36 26.47 30.45" width="26.47" height="30.45" fill="currentColor">
  <path d="M9.06 30.80L21.60 30.80C23.56 30.80 24.87 29.53 24.96 27.58L25.91 7.70L27.55 7.70C28.11 7.70 28.56 7.22 28.56 6.66C28.56 6.10 28.11 5.63 27.55 5.63L21.30 5.63L21.30 3.54C21.30 1.56 20.02 0.36 17.91 0.36L12.71 0.36C10.61 0.36 9.32 1.56 9.32 3.54L9.32 5.63L3.12 5.63C2.57 5.63 2.09 6.10 2.09 6.66C2.09 7.23 2.57 7.70 3.12 7.70L4.74 7.70L5.70 27.59C5.80 29.54 7.08 30.80 9.06 30.80ZM11.50 3.68C11.50 2.90 12.04 2.39 12.87 2.39L17.76 2.39C18.58 2.39 19.13 2.90 19.13 3.68L19.13 5.63L11.50 5.63ZM9.26 28.74C8.48 28.74 7.89 28.15 7.85 27.34L6.89 7.70L23.71 7.70L22.80 27.34C22.78 28.16 22.19 28.74 21.38 28.74ZM11.28 26.40C11.80 26.40 12.14 26.07 12.13 25.59L11.70 10.96C11.69 10.49 11.35 10.17 10.86 10.17C10.34 10.17 9.99 10.50 10.01 10.98L10.42 25.59C10.43 26.09 10.77 26.40 11.28 26.40ZM15.33 26.40C15.85 26.40 16.21 26.07 16.21 25.59L16.21 10.98C16.21 10.50 15.85 10.17 15.33 10.17C14.81 10.17 14.45 10.50 14.45 10.98L14.45 25.59C14.45 26.07 14.81 26.40 15.33 26.40ZM19.39 26.40C19.88 26.40 20.22 26.09 20.23 25.59L20.64 10.98C20.66 10.50 20.32 10.17 19.80 10.17C19.30 10.17 18.96 10.49 18.95 10.98L18.54 25.59C18.53 26.07 18.87 26.40 19.39 26.40Z" />
</svg>