<svg xmlns="http://www.w3.org/2000/svg" viewBox="3.49 5.14 32.24 23.34" width="32.24" height="23.34" fill="currentColor">
  <path d="M7.78 28.48L31.43 28.48C34.30 28.48 35.72 27.06 35.72 24.24L35.72 16.15C35.72 14.92 35.56 14.30 34.95 13.55L30.23 7.71C28.63 5.74 27.92 5.14 25.48 5.14L13.73 5.14C11.29 5.14 10.60 5.74 9.00 7.71L4.27 13.55C3.66 14.30 3.49 14.92 3.49 16.15L3.49 24.24C3.49 27.07 4.92 28.48 7.78 28.48ZM6.37 15.33C5.92 15.33 5.82 14.93 6.06 14.64L11.13 8.24C11.80 7.40 12.56 7.05 13.56 7.05L25.65 7.05C26.65 7.05 27.41 7.40 28.08 8.24L33.17 14.64C33.39 14.93 33.30 15.33 32.85 15.33L23.83 15.33C23.12 15.33 22.79 15.86 22.79 16.43L22.79 16.47C22.79 18.06 21.55 19.74 19.61 19.74C17.68 19.74 16.43 18.06 16.43 16.47L16.43 16.43C16.43 15.86 16.09 15.33 15.38 15.33ZM7.81 26.28C6.44 26.28 5.69 25.55 5.69 24.13L5.69 17.32L14.36 17.32C14.68 19.88 16.83 21.77 19.61 21.77C22.38 21.77 24.53 19.87 24.86 17.32L33.52 17.32L33.52 24.13C33.52 25.55 32.76 26.28 31.40 26.28Z" />
</svg>