<svg xmlns="http://www.w3.org/2000/svg" viewBox="3.49 6.66 15.93 24.46" width="15.93" height="24.46" fill="currentColor">
  <path d="M11.44 26.92C16.37 26.92 19.41 23.97 19.41 19.67L19.41 7.93C19.41 7.16 18.91 6.66 18.13 6.66C17.36 6.66 16.88 7.16 16.88 7.93L16.88 19.47C16.88 22.52 14.88 24.60 11.44 24.60C8.03 24.60 6.02 22.52 6.02 19.47L6.02 7.93C6.02 7.16 5.51 6.66 4.73 6.66C3.96 6.66 3.49 7.16 3.49 7.93L3.49 19.67C3.49 23.97 6.52 26.92 11.44 26.92ZM4.29 31.12L18.59 31.12C19.04 31.12 19.41 30.78 19.41 30.31C19.41 29.85 19.04 29.49 18.59 29.49L4.29 29.49C3.86 29.49 3.49 29.85 3.49 30.31C3.49 30.78 3.86 31.12 4.29 31.12Z" />
</svg>